<?xml version="1.0" encoding="utf-8"?>
<!-- Generator: Adobe Illustrator 25.0.0, SVG Export Plug-In . SVG Version: 6.00 Build 0)  -->
<svg version="1.1" xmlns="http://www.w3.org/2000/svg" xmlns:xlink="http://www.w3.org/1999/xlink" x="0px" y="0px"
	 viewBox="0 0 500 500" style="enable-background:new 0 0 500 500;" xml:space="preserve">
<style type="text/css">
	.st0{opacity:0.5;}
	.st1{fill:#FBC326;}
	.st2{fill-rule:evenodd;clip-rule:evenodd;fill:#FAFAFA;}
	.st3{fill:#FAFAFA;}
	.st4{opacity:0.1;fill:#EEEEEE;}
	.st5{fill:#FFFFFF;}
</style>
<g id="BACKGROUND">
</g>
<g id="OBJECTS">
	<g>
		<g id="XMLID_58_" class="st0">
			
				<image style="overflow:visible;" width="869" height="869" xlink:href="55A57D70940F33B4.png"  transform="matrix(0.24 0 0 0.24 -6.24 96)">
			</image>
		</g>
		<path id="XMLID_57_" class="st1" d="M157.2,264.4H30.9c-2.8,0-5-2.2-5-5V133c0-2.8,2.2-5,5-5h126.4c2.8,0,5,2.2,5,5v126.4
			C162.2,262.1,160,264.4,157.2,264.4z"/>
		<g id="XMLID_34_">
			<g id="XMLID_37_">
				<g id="XMLID_47_">
					<path id="XMLID_56_" class="st2" d="M114.8,169.7c3.4,0,6.2-2.8,6.2-6.2c0-3.4-2.8-6.2-6.2-6.2s-6.2,2.8-6.2,6.2
						C108.6,166.9,111.4,169.7,114.8,169.7z"/>
					<g id="XMLID_53_">
						<path id="XMLID_55_" class="st3" d="M114,231c0,2.3-1.5,4.1-3.4,4.1c-1.9,0-3.4-1.9-3.4-4.1v-35c0-2.3,1.5-4.1,3.4-4.1
							c1.9,0,3.4,1.9,3.4,4.1V231z"/>
						<path id="XMLID_54_" class="st3" d="M122.4,231c0,2.3-1.5,4.1-3.4,4.1c-1.9,0-3.4-1.9-3.4-4.1v-35c0-2.3,1.5-4.1,3.4-4.1
							c1.9,0,3.4,1.9,3.4,4.1V231z"/>
					</g>
					<polygon id="XMLID_52_" class="st2" points="104.6,207.1 125.1,207.1 120,175 109.6,175 					"/>
					<path id="XMLID_51_" class="st2" d="M107.2,171.6h15.2c2.6,0,4.7,2.2,4.7,4.8v4.4h-24.6v-4.4
						C102.5,173.8,104.6,171.6,107.2,171.6z"/>
					<g id="XMLID_48_">
						<path id="XMLID_50_" class="st3" d="M104.1,199.6c-0.2,1.5-1.6,2.4-3.1,2.2c-1.5-0.2-2.4-1.6-2.2-3.1l3.7-22.4
							c0.2-1.5,1.6-2.4,3.1-2.2c1.5,0.2,2.4,1.6,2.2,3.1L104.1,199.6z"/>
						<path id="XMLID_49_" class="st3" d="M125.5,199.6c0.2,1.5,1.6,2.4,3.1,2.2c1.5-0.2,2.4-1.6,2.2-3.1l-3.7-22.4
							c-0.2-1.5-1.6-2.4-3.1-2.2c-1.5,0.2-2.4,1.6-2.2,3.1L125.5,199.6z"/>
					</g>
				</g>
				<g id="XMLID_38_">
					<path id="XMLID_46_" class="st2" d="M72,169.7c3.4,0,6.2-2.8,6.2-6.2c0-3.4-2.8-6.2-6.2-6.2c-3.4,0-6.2,2.8-6.2,6.2
						C65.7,166.9,68.5,169.7,72,169.7z"/>
					<path id="XMLID_45_" class="st3" d="M62.6,199.1c0,1.5-1.2,2.7-2.7,2.7c-1.5,0-2.7-1.2-2.7-2.7v-22.7c0-1.5,1.2-2.7,2.7-2.7
						c1.5,0,2.7,1.2,2.7,2.7V199.1z"/>
					<path id="XMLID_44_" class="st3" d="M86.1,199.1c0,1.5-1.2,2.7-2.7,2.7c-1.5,0-2.7-1.2-2.7-2.7v-22.7c0-1.5,1.2-2.7,2.7-2.7
						c1.5,0,2.7,1.2,2.7,2.7V199.1z"/>
					<path id="XMLID_43_" class="st3" d="M70.8,231c0,2.3-1.5,4.1-3.4,4.1c-1.9,0-3.4-1.9-3.4-4.1v-35c0-2.3,1.5-4.1,3.4-4.1
						c1.9,0,3.4,1.9,3.4,4.1V231z"/>
					<path id="XMLID_42_" class="st3" d="M79.2,231c0,2.3-1.5,4.1-3.4,4.1c-1.9,0-3.4-1.9-3.4-4.1v-35c0-2.3,1.5-4.1,3.4-4.1
						c1.9,0,3.4,1.9,3.4,4.1V231z"/>
					<rect id="XMLID_41_" x="64.1" y="178.8" class="st2" width="15.1" height="22.5"/>
					<path id="XMLID_40_" class="st2" d="M61.9,171.6h19.5c2.6,0,4.7,2.2,4.7,4.8v4.4H57.2v-4.4C57.2,173.8,59.3,171.6,61.9,171.6z"
						/>
				</g>
			</g>
			<rect id="XMLID_35_" x="92.9" y="157.2" class="st2" width="2.3" height="77.9"/>
		</g>
		<g id="XMLID_32_">
			<defs>
				<path id="XMLID_33_" d="M157.2,264.4H30.9c-2.8,0-5-2.2-5-5V133c0-2.8,2.2-5,5-5h126.4c2.8,0,5,2.2,5,5v126.4
					C162.2,262.1,160,264.4,157.2,264.4z"/>
			</defs>
			<clipPath id="XMLID_9_">
				<use xlink:href="#XMLID_33_"  style="overflow:visible;"/>
			</clipPath>
		</g>
		<path id="XMLID_31_" class="st4" d="M157.2,128c-36.3,0-69.1,14.7-92.9,38.5c-23.8,23.8-38.5,56.6-38.5,92.9V133c0-2.8,2.2-5,5-5
			H157.2z"/>
	</g>
	<g>
		<g id="XMLID_14_" class="st0">
			
				<image style="overflow:visible;" width="869" height="869" xlink:href="55A57D70940F33B5.png"  transform="matrix(0.24 0 0 0.24 293.52 96)">
			</image>
		</g>
		<path id="XMLID_2_" class="st1" d="M457,264.4H330.6c-2.8,0-5-2.2-5-5V133c0-2.8,2.2-5,5-5H457c2.8,0,5,2.2,5,5v126.4
			C462,262.1,459.8,264.4,457,264.4z"/>
		<g id="XMLID_3474_">
			<defs>
				<path id="XMLID_3473_" d="M457,264.4H330.6c-2.8,0-5-2.2-5-5V133c0-2.8,2.2-5,5-5H457c2.8,0,5,2.2,5,5v126.4
					C462,262.1,459.8,264.4,457,264.4z"/>
			</defs>
			<clipPath id="XMLID_10_">
				<use xlink:href="#XMLID_3473_"  style="overflow:visible;"/>
			</clipPath>
		</g>
		<path id="XMLID_6_" class="st4" d="M457,128c-36.3,0-69.1,14.7-92.9,38.5c-23.8,23.8-38.5,56.6-38.5,92.9V133c0-2.8,2.2-5,5-5H457
			z"/>
		<g>
			<g>
				<g>
					<path class="st5" d="M365,221c-0.9-1.7-0.9-3.5,0.1-3.9l5.1-2.4c0.9-0.4,2.2,0.4,2.9,1.8c0.8,1.4,0.8,2.9-0.1,3.4l-4.6,3.2
						C367.5,223.6,365.9,222.7,365,221z"/>
				</g>
				<g>
					<path class="st5" d="M361.6,213.4c-0.7-1.9-0.2-3.7,0.8-3.9l5.5-1.2c1-0.2,2,0.8,2.5,2.2c0.5,1.4,0.3,2.9-0.7,3.3l-5.2,2.2
						C363.7,216.5,362.3,215.4,361.6,213.4z"/>
				</g>
				<g>
					<path class="st5" d="M360,204.8c0-2.3,1.2-4.1,2.2-3.8l5.5,1.1c1,0.2,1.6,1.3,1.6,2.5c0,1.3-0.6,2.6-1.6,2.8l-5.5,1
						C361.2,208.5,360,207,360,204.8z"/>
				</g>
				<g>
					<path class="st5" d="M362.6,195.1c0.7-1.1,1.6-1.8,2.4-2.1c0.8-0.3,1.4-0.3,1.8,0.1l3.7,4.2c0.6,0.8,0.5,2,0,2.8
						c-0.5,0.8-1.5,1.4-2.5,1.2l-5.4-1.6c-0.5-0.1-0.8-0.7-0.8-1.6C361.6,197.3,361.9,196.2,362.6,195.1z"/>
				</g>
				<g>
					<path class="st5" d="M370.2,188.7c1-0.5,2-0.6,2.7-0.5c0.8,0.1,1.3,0.4,1.5,0.9l1.4,5.4c0.1,0.5,0,1-0.3,1.4
						c-0.3,0.5-0.9,0.9-1.4,1.1c-1.2,0.5-2.4,0.4-3-0.3l-3.4-4.5C367,191.5,368.1,189.7,370.2,188.7z"/>
				</g>
				<g>
					<path class="st5" d="M379.6,186.8c2.5,0.2,4.1,1.7,3.7,2.6l-1.8,5.3c-0.4,0.9-1.5,1.4-2.5,1.3c-1-0.1-2.1-0.7-2.3-1.7l-1-5.5
						C375.4,187.9,377.1,186.6,379.6,186.8z"/>
				</g>
				<g>
					<path class="st5" d="M388.8,190.2c1.8,1.3,2.4,3.1,1.7,3.8l-3.9,4.1c-0.7,0.7-2.1,0.5-3.2-0.3c-1.1-0.7-1.6-1.8-1.2-2.8
						l2.2-5.2C384.9,188.9,387,188.9,388.8,190.2z"/>
				</g>
				<g>
					<path class="st5" d="M395.1,196.3c1.2,1.5,1.4,3.3,0.6,3.9l-4.6,3.2c-0.8,0.6-2.2-0.1-3.2-1.3c-1-1.2-1.2-2.6-0.5-3.3l4-3.9
						C392.1,194.1,393.8,194.7,395.1,196.3z"/>
				</g>
				<g>
					<path class="st5" d="M399.6,202.9c1,1.6,1,3.3,0.1,3.8l-4.9,2.7c-0.9,0.5-2.3-0.3-3.1-1.7c-0.8-1.4-0.9-3-0.1-3.5l4.7-3.1
						C397.1,200.5,398.7,201.3,399.6,202.9z"/>
				</g>
				<g>
					<path class="st5" d="M403.4,209.6c0.8,1.6,0.7,3.2-0.1,3.7l-5,2.6c-0.9,0.5-2.3-0.4-3.1-2c-0.8-1.5-0.7-3.1,0.1-3.6l4.9-2.7
						C401.1,207.1,402.6,208,403.4,209.6z"/>
				</g>
				<g>
					<path class="st5" d="M406.8,216.2c0.8,1.5,0.7,3-0.1,3.5l-4.9,2.8c-0.9,0.5-2.4-0.4-3.2-2.1c-0.8-1.6-0.8-3.3,0.1-3.7l5-2.6
						C404.6,213.8,406,214.7,406.8,216.2z"/>
				</g>
				<g>
					<path class="st5" d="M410.2,221.7c0.9,1.1,1.1,2.4,0.5,3.2l-3.8,4.2c-0.7,0.8-2.5,0.2-3.9-1.5c-1.4-1.7-1.5-3.5-0.6-4l4.8-3
						C408,220.1,409.3,220.7,410.2,221.7z"/>
				</g>
				<g>
					<path class="st5" d="M414.4,225.4c1.1,0.6,1.8,1.7,1.5,2.6l-1.7,5.4c-0.3,1-2.3,1.2-4.3,0.1c-2-1.1-2.8-2.9-2.2-3.7l3.6-4.4
						C412,224.7,413.3,224.8,414.4,225.4z"/>
				</g>
				<g>
					<path class="st5" d="M419.3,226.7c1.1,0,2.2,0.5,2.5,1.5l1.4,5.5c0.3,1-1.4,2.3-3.9,2.3c-2.4,0-4.1-1.3-3.8-2.3l1.3-5.5
						C417,227.3,418.2,226.7,419.3,226.7z"/>
				</g>
				<g>
					<path class="st5" d="M423.6,225.4c0.8-0.6,2-0.7,2.8-0.1l4.4,3.5c0.8,0.6,0.2,2.7-1.8,4.2c-2.1,1.5-4.3,1.3-4.6,0.3l-1.9-5.3
						C422.2,227,422.8,226,423.6,225.4z"/>
				</g>
				<g>
					<path class="st5" d="M426.2,221.9c0.3-1,1.2-2,2.2-1.9l5.6,0.5c1,0,1.7,2,1,4.3c-0.8,2.4-2.6,3.6-3.4,3l-4.7-3.1
						C426,224,425.9,222.9,426.2,221.9z"/>
				</g>
				<g>
					<path class="st5" d="M426.4,216.8c-0.2-1.3,0.2-2.7,1.1-3l5.4-1.8c0.9-0.3,2.3,1,2.7,3.2c0.4,2.2-0.5,4-1.5,4l-5.6-0.1
						C427.4,219.1,426.7,218.1,426.4,216.8z"/>
				</g>
				<g>
					<path class="st5" d="M424.5,211.1c-0.7-1.3-0.7-2.8,0.2-3.4l4.8-3c0.8-0.5,2.4,0.4,3.3,2.2c0.9,1.8,0.7,3.7-0.2,4l-5.3,2
						C426.3,213.2,425.1,212.4,424.5,211.1z"/>
				</g>
				<g>
					<path class="st5" d="M420.9,205.6c-1-1.3-1.2-2.8-0.5-3.4l4.2-3.7c0.7-0.7,2.4-0.1,3.6,1.5c1.2,1.5,1.4,3.3,0.5,3.9l-4.7,3.1
						C423.3,207.5,421.9,206.9,420.9,205.6z"/>
				</g>
				<g>
					<path class="st5" d="M416.4,200.5c-1.2-1.2-1.6-2.7-0.9-3.4l3.8-4.2c0.7-0.7,2.3-0.3,3.7,1c1.3,1.3,1.8,3,1,3.7l-4.2,3.8
						C419,202.1,417.6,201.7,416.4,200.5z"/>
				</g>
				<g>
					<path class="st5" d="M411.2,195.8c-1.3-1.1-1.9-2.5-1.3-3.3l3.4-4.5c0.6-0.8,2.3-0.5,3.7,0.6c1.4,1.2,2,2.8,1.3,3.5l-3.7,4.2
						C414,197.2,412.5,196.9,411.2,195.8z"/>
				</g>
			</g>
			<g>
				<g>
					<path class="st5" d="M376.1,161.9c-20.6-1.6-13.1-10.1-13.1-10.1S369.3,142.4,376.1,161.9z"/>
				</g>
				<g>
					<path class="st5" d="M381.1,161.6c-9.7-9.8-2.2-10.8-2.2-10.8S386.2,148.8,381.1,161.6z"/>
				</g>
				<g>
					<path class="st5" d="M377,166.9c-12-6.8-11,0.6-11,0.6S366,175,377,166.9z"/>
				</g>
				<g>
					<polygon class="st5" points="407.2,185.2 402.1,191.9 382.1,171.3 384.8,167.9 387.4,164.5 412.3,178.6 					"/>
				</g>
				<path class="st5" d="M419.4,182.1c-0.2-1.7-1-3.2-2.4-4.3c-2.8-2.1-6.8-1.5-8.9,1.4l-6.5,8.5c-2.2,2.9-1.7,6.9,1,9l0,0
					c2.8,2.1,6.8,1.5,9-1.4l6.5-8.5C419.1,185.5,419.6,183.8,419.4,182.1z M403.1,195.9L403.1,195.9L403.1,195.9L403.1,195.9z"/>
				<path class="st5" d="M386.8,162.4c-1.2-0.9-3-0.5-4.2,0.9l-2.8,3.6c-0.6,0.8-0.9,1.7-0.8,2.6c0.1,0.7,0.4,1.3,0.9,1.7l0,0
					c1.2,0.9,3,0.5,4.2-1l2.8-3.6C388,165.3,388,163.4,386.8,162.4z M380.6,170.5L380.6,170.5L380.6,170.5L380.6,170.5z"/>
				<g>
					<path class="st5" d="M364.9,152.7c0,0,3.4-5.3,8,4.9C372.9,157.6,368.6,151.5,364.9,152.7z"/>
				</g>
				<g>
					<path class="st5" d="M379,151.8c0,0,4.6-1.5,2.3,6.8C381.3,158.6,381.8,152.9,379,151.8z"/>
				</g>
				<g>
					<path class="st5" d="M367.2,167.1c0,0-0.5-4.8,7.1-0.9C374.3,166.3,368.9,164.6,367.2,167.1z"/>
				</g>
			</g>
		</g>
	</g>
	<g>
		<g>
			<g id="XMLID_29_" class="st0">
				
					<image style="overflow:visible;" width="869" height="869" xlink:href="55A57D70940F33B3.png"  transform="matrix(0.24 0 0 0.24 142.08 96)">
				</image>
			</g>
			<path id="XMLID_28_" class="st1" d="M305.6,264.4H179.2c-2.8,0-5-2.2-5-5V133c0-2.8,2.2-5,5-5h126.4c2.8,0,5,2.2,5,5v126.4
				C310.6,262.1,308.4,264.4,305.6,264.4z"/>
			<g id="XMLID_3_">
				<defs>
					<path id="XMLID_4_" d="M305.6,264.4H179.2c-2.8,0-5-2.2-5-5V133c0-2.8,2.2-5,5-5h126.4c2.8,0,5,2.2,5,5v126.4
						C310.6,262.1,308.4,264.4,305.6,264.4z"/>
				</defs>
				<clipPath id="XMLID_11_">
					<use xlink:href="#XMLID_4_"  style="overflow:visible;"/>
				</clipPath>
			</g>
			<path id="XMLID_1_" class="st4" d="M305.6,128c-36.3,0-69.1,14.7-92.9,38.5c-23.8,23.8-38.5,56.6-38.5,92.9V133c0-2.8,2.2-5,5-5
				H305.6z"/>
		</g>
		<g>
			<path class="st3" d="M241.3,175.5h-1v-3h11.2v3h-1.1v3H261c0,0,5,2.5,4.5,16.2c-0.5,13.7-4.1,17-4.1,17h-67.6
				c0,0-4.6-1.1-4.6-16.1c0-15,3.6-17,3.6-17h10v-2.7h-1v-3.4h7.2v3h-1.2v3h33.7"/>
			<g>
				<g>
					<path class="st1" d="M274.3,185.8c-0.2,4.3-0.1,8.5,0,12.8c4.1,0,8.1,0,12.2,0c-1.1-4.3-2.5-8.4-3.6-12.6
						C280.1,185.7,277.2,185.8,274.3,185.8z"/>
					<path class="st1" d="M277.8,219.5c-1.4,0-2.6,1-2.8,2.3c0,0.2,0,0.3,0,0.5c0,0.8,0.4,1.6,0.9,2.1c0.5,0.5,1.2,0.8,1.9,0.8
						c0.7,0,1.4-0.3,1.9-0.8c0.6-0.5,0.9-1.3,0.9-2.1c0-0.2,0-0.3,0-0.5C280.4,220.5,279.2,219.5,277.8,219.5z"/>
					<path class="st1" d="M204.5,220.7c-0.5-0.7-1.4-1.2-2.3-1.2c-1,0-1.8,0.5-2.3,1.2c-0.2,0.3-0.4,0.7-0.5,1.1c0,0.2,0,0.3,0,0.5
						c0,0.8,0.4,1.6,0.9,2.1c0.5,0.5,1.2,0.8,1.9,0.8c0.7,0,1.4-0.3,1.9-0.8c0.6-0.5,0.9-1.3,0.9-2.1c0-0.2,0-0.3,0-0.5
						C204.9,221.4,204.7,221,204.5,220.7z"/>
					<path class="st1" d="M289.7,211.6c0,1.5,0,2.9,0,4.4c2.5,0,5,0,7.5,0c0-1.5,0-2.9,0-4.4C294.7,211.6,292.2,211.6,289.7,211.6z"
						/>
					<path class="st3" d="M277.8,212.7c-5.3,0-9.6,4.3-9.6,9.6c0,5.3,4.3,9.6,9.6,9.6c5.3,0,9.6-4.3,9.6-9.6
						C287.4,217,283.1,212.7,277.8,212.7z M279.7,224.4c-0.5,0.5-1.2,0.8-1.9,0.8c-0.7,0-1.4-0.3-1.9-0.8c-0.6-0.5-0.9-1.3-0.9-2.1
						c0-0.2,0-0.3,0-0.5c0.2-1.3,1.4-2.3,2.8-2.3c1.4,0,2.6,1,2.8,2.3c0,0.2,0,0.3,0,0.5C280.7,223.2,280.3,223.9,279.7,224.4z"/>
					<path class="st3" d="M202.1,212.7L202.1,212.7c-4.8,0-8.7,3.4-9.5,8c-0.1,0.5-0.1,1.1-0.1,1.6c0,5.3,4.3,9.6,9.6,9.6
						c5.3,0,9.6-4.3,9.6-9.6c0-0.6-0.1-1.1-0.1-1.6C210.8,216.2,206.9,212.8,202.1,212.7z M204.1,224.4c-0.5,0.5-1.2,0.8-1.9,0.8
						c-0.7,0-1.4-0.3-1.9-0.8c-0.6-0.5-0.9-1.3-0.9-2.1c0-0.2,0-0.3,0-0.5c0.1-0.4,0.2-0.8,0.5-1.1c0.5-0.7,1.4-1.2,2.3-1.2
						c1,0,1.8,0.5,2.3,1.2c0.2,0.3,0.4,0.7,0.5,1.1c0,0.2,0,0.3,0,0.5C205,223.2,204.6,223.9,204.1,224.4z"/>
					<path class="st3" d="M198.7,212.7h-8.1v8h1.5c0,0,0-0.1,0-0.1C192.7,216.9,195.3,213.9,198.7,212.7z"/>
					<path class="st3" d="M297.6,215.7c0-4.4,0.1-8.7-0.1-13.1c-1.4-0.6-2.8-1.3-4.2-1.9c-1-0.5-2-0.9-2.9-1.4
						c-0.1-0.1-0.3-0.1-0.4-0.2c-2-1.1-1.9-3.7-2.7-5.6c-0.8-3.2-2.1-6.3-2.9-9.6c-0.5-2-0.8-4.1-0.6-6.3c-5.7-0.1-11.4,0-17.1,0
						c0,0,0,0-0.1,0c0,0,0,0,0,0l0,0v7l0,0c0,9.3-0.1,18.7,0,28h-61.2c3.4,1.2,6,4.1,6.6,7.9c0,0,0,0.1,0,0.1h54.7
						c1.4-4.5,4.9-8.7,9.9-9c5.5-0.8,10.7,3.5,11.9,8.7c3.7,0,7.3,0,11,0c0-1.5,0-3.1,0-4.6C299,215.8,298.3,215.8,297.6,215.7z
						 M274.3,198.5c0-4.3-0.1-8.5,0-12.8c2.8,0,5.7,0,8.6,0.1c1.1,4.2,2.5,8.4,3.6,12.6C282.4,198.6,278.4,198.5,274.3,198.5z
						 M297.2,216c-2.5,0.1-5,0.1-7.5,0c0-1.5,0-2.9,0-4.4c2.5,0,5,0,7.4,0C297.2,213.1,297.2,214.6,297.2,216z"/>
				</g>
			</g>
		</g>
	</g>
</g>
<g id="DESIGNED_BY_FREEPIK">
</g>
</svg>
