<?xml version="1.0" encoding="utf-8"?>
<!-- Generator: Adobe Illustrator 25.0.0, SVG Export Plug-In . SVG Version: 6.00 Build 0)  -->
<svg version="1.1" id="Capa_1" xmlns="http://www.w3.org/2000/svg" xmlns:xlink="http://www.w3.org/1999/xlink" x="0px" y="0px"
	 viewBox="0 0 864 414.1" style="enable-background:new 0 0 864 414.1;" xml:space="preserve">
<style type="text/css">
	.st0{fill:#FFFFFF;}
	.st1{fill:#1D71B8;}
	.st2{fill:none;}
</style>
<rect width="864" height="414.1"/>
<path class="st0" d="M300.8,233h7.6h0.3l13.8,31.7h39.8h2.5h34.6l3-13.3c5.1,4.6,11.4,8.2,18.8,10.7c9.1,3.1,19.3,4.7,30.6,4.7
	c7.4,0,14.3-0.9,20.8-2.6c6.5-1.7,12.2-4.2,17.1-7.5c4.9-3.2,9.1-7.2,12.5-11.8c3.4-4.6,5.7-9.9,7-15.7l0.1-0.3
	c1.2-5.6,1.2-10.3-0.2-14.3c-1.4-3.9-3.9-7.3-7.4-10.1c-3.6-2.8-8-5.1-13.4-6.9c-5.4-1.8-11.5-3.3-18.3-4.6
	c-2.8-0.5-5.2-1.1-6.9-1.6c-1.8-0.5-3.2-1.1-4.1-1.7c-1-0.6-1.6-1.2-1.9-1.8c-0.3-0.6-0.3-1.3-0.2-2.1l0.1-0.3
	c0.3-1.4,1.2-2.5,2.7-3.3c1.5-0.8,3.6-1.3,6.4-1.3c5.2,0,10.5,0.9,16,2.6c5.5,1.7,10.4,4.5,14.9,8.3l23.7-25
	c-5.3-5.1-11.7-8.9-19.2-11.4c-7.5-2.5-16.7-3.8-27.5-3.8c-7.6,0-14.5,1-20.8,2.9c-6.3,1.9-11.8,4.5-16.5,7.9
	c-4.7,3.4-8.6,7.4-11.7,11.9c-3.1,4.5-5.2,9.5-6.4,14.7l-0.1,0.3c-1.3,5.9-1.2,10.9,0.5,14.8c1.7,4,4.3,7.3,8,9.9
	c3.7,2.6,8.2,4.8,13.5,6.5c5.3,1.7,10.9,3.2,16.8,4.4c5.7,1.2,9.5,2.3,11.4,3.3c1.9,1.1,2.7,2.4,2.4,4l-0.1,0.3
	c-0.3,1.5-1.3,2.7-3,3.5c-1.7,0.8-4.2,1.3-7.6,1.3c-6.5,0-12.9-1-19.1-3c-6.2-2-11.8-5.3-16.8-10l-19.9,18.7l19.9-89.4h-37.1
	L363.1,261l-15.7-34c7.5-3.3,13.8-7.7,19-13.3c5.2-5.6,8.6-12.5,10.5-20.6l0.1-0.3c1.3-5.7,1.5-10.7,0.8-14.9
	c-0.7-4.2-2.4-8-5.1-11.4c-3-3.9-7.5-7-13.4-9.3c-5.9-2.3-13.8-3.4-23.7-3.4h-54.2l-24.8,110.9h37.1L300.8,233z M311.5,184.9h16.2
	c4.3,0,7.6,0.9,9.7,2.6c2.1,1.7,2.8,4.4,2,8l-0.1,0.3c-0.8,3.4-2.6,6-5.6,7.9c-3,1.9-6.7,2.8-11.1,2.8h-16L311.5,184.9z"/>
<path class="st0" d="M533.3,264.7l9-14.9h38.8l2.5,14.9H624L602.2,153h-36.8l-71.7,111.7H533.3z M573.7,196.6l4.1,26.9h-20.3
	L573.7,196.6z"/>
<path class="st0" d="M174.3,284.6c-0.2-1.2-0.7-2.2-1.4-3.1c-0.7-0.9-1.7-1.5-2.8-2c-1.2-0.5-2.5-0.7-4-0.7h-7.5l-4.3,19.3h7.5
	c1.5,0,3-0.2,4.3-0.7c1.4-0.5,2.6-1.2,3.7-2c1.1-0.9,2-1.9,2.8-3.1c0.8-1.2,1.3-2.4,1.6-3.8l0-0.1
	C174.5,287.1,174.5,285.8,174.3,284.6 M169.7,288.5L169.7,288.5c-0.2,0.9-0.5,1.7-1,2.4c-0.4,0.7-1,1.3-1.6,1.8
	c-0.6,0.5-1.3,0.9-2.1,1.2c-0.8,0.3-1.6,0.4-2.5,0.4h-3.3l2.6-11.7h3.3c0.9,0,1.6,0.1,2.3,0.4c0.7,0.3,1.2,0.7,1.6,1.2
	c0.4,0.5,0.6,1.1,0.8,1.9C169.9,286.9,169.9,287.6,169.7,288.5"/>
<polygon class="st0" points="189.5,290.3 190.3,286.5 181.2,286.5 182.1,282.6 192.4,282.6 193.3,278.8 178.7,278.8 174.4,298.2 
	189.1,298.2 189.9,294.4 179.4,294.4 180.4,290.3 "/>
<path class="st0" d="M206.8,292.4c0.2-0.8,0.2-1.6,0.1-2.2c-0.1-0.6-0.4-1.1-0.8-1.6c-0.4-0.5-1-0.8-1.7-1.2
	c-0.7-0.3-1.5-0.6-2.4-0.9c-0.8-0.2-1.4-0.4-1.9-0.6c-0.5-0.2-0.9-0.3-1.2-0.5s-0.4-0.4-0.5-0.6c-0.1-0.2-0.1-0.5,0-0.8l0-0.1
	c0.1-0.5,0.4-0.9,0.9-1.2c0.5-0.3,1.1-0.5,2-0.5c0.8,0,1.6,0.2,2.4,0.5c0.8,0.3,1.5,0.8,2.2,1.4l2.9-3.2c-0.8-0.8-1.8-1.4-2.9-1.8
	s-2.4-0.6-3.8-0.6c-1,0-1.9,0.1-2.8,0.4c-0.9,0.3-1.7,0.7-2.4,1.2c-0.7,0.5-1.3,1.1-1.8,1.8c-0.5,0.7-0.8,1.5-1,2.4l0,0.1
	c-0.2,1-0.2,1.8-0.1,2.4c0.2,0.6,0.5,1.2,0.9,1.6c0.5,0.4,1.1,0.8,1.8,1.1c0.7,0.3,1.6,0.6,2.5,0.8c0.8,0.2,1.4,0.4,1.9,0.6
	c0.5,0.2,0.8,0.4,1.1,0.6c0.2,0.2,0.4,0.4,0.4,0.6c0.1,0.2,0.1,0.5,0,0.7l0,0.1c-0.1,0.6-0.5,1-1,1.3c-0.6,0.3-1.3,0.5-2.2,0.5
	c-1.1,0-2.1-0.2-2.9-0.6c-0.8-0.4-1.6-1-2.3-1.7l-3.2,3c0.9,1.1,2,1.8,3.3,2.3c1.3,0.5,2.7,0.8,4.2,0.8c1.1,0,2-0.1,3-0.4
	c0.9-0.3,1.8-0.7,2.5-1.2c0.7-0.5,1.4-1.1,1.9-1.9C206.2,294.3,206.6,293.4,206.8,292.4L206.8,292.4z"/>
<path class="st0" d="M218.8,278.7l-12.6,19.5h4.3l2.7-4.3h8.2l0.8,4.3h4.4l-3.9-19.5H218.8z M215.6,290.1l4-6.3l1.2,6.3H215.6z"/>
<polygon class="st0" points="248.1,278.8 232.4,278.8 231.5,282.6 241.8,282.6 228.4,294.9 227.7,298.2 243.8,298.2 244.7,294.4 
	234,294.4 247.4,282.1 "/>
<path class="st0" d="M268.5,284.6c-0.2-1.2-0.7-2.3-1.4-3.2c-0.7-0.9-1.6-1.6-2.8-2.1c-1.1-0.5-2.5-0.8-3.9-0.8
	c-1.5,0-2.9,0.3-4.3,0.8c-1.4,0.5-2.6,1.2-3.7,2.2c-1.1,0.9-2.1,2-2.9,3.2c-0.8,1.2-1.3,2.5-1.6,3.9l0,0.1c-0.3,1.4-0.3,2.7-0.1,3.9
	c0.2,1.2,0.7,2.3,1.4,3.2c0.7,0.9,1.6,1.6,2.8,2.1c1.1,0.5,2.4,0.8,3.9,0.8c1.5,0,2.9-0.3,4.3-0.8c1.4-0.5,2.6-1.2,3.7-2.2
	c1.1-0.9,2.1-2,2.9-3.2c0.8-1.2,1.3-2.5,1.6-3.9l0-0.1C268.7,287.1,268.7,285.8,268.5,284.6 M263.9,288.5L263.9,288.5
	c-0.2,0.9-0.5,1.7-1,2.4c-0.4,0.7-1,1.4-1.6,1.9c-0.6,0.6-1.3,1-2.1,1.3c-0.8,0.3-1.6,0.5-2.5,0.5c-0.9,0-1.6-0.2-2.3-0.5
	c-0.6-0.3-1.2-0.8-1.6-1.3c-0.4-0.6-0.7-1.2-0.8-1.9c-0.1-0.7-0.1-1.5,0.1-2.3l0-0.1c0.2-0.8,0.5-1.6,0.9-2.3c0.4-0.7,1-1.4,1.6-1.9
	c0.6-0.6,1.3-1,2.1-1.3c0.8-0.3,1.6-0.5,2.5-0.5c0.8,0,1.6,0.2,2.2,0.5c0.6,0.3,1.2,0.8,1.6,1.3c0.4,0.6,0.7,1.2,0.8,1.9
	C264.1,286.9,264.1,287.7,263.9,288.5"/>
<polygon class="st0" points="277.2,278.8 272.9,278.8 268.6,298.2 282.5,298.2 283.3,294.3 273.7,294.3 "/>
<polygon class="st0" points="301.8,278.8 293.7,292.4 291.7,278.8 287,278.8 290.4,298.3 294.2,298.3 306.4,278.8 "/>
<polygon class="st0" points="303.7,298.2 318.4,298.2 319.2,294.4 308.7,294.4 309.6,290.3 318.7,290.3 319.6,286.5 310.4,286.5 
	311.3,282.6 321.7,282.6 322.5,278.8 308,278.8 "/>
<polygon class="st0" points="337.9,286.6 335,278.8 330,278.8 334.8,290.5 333.1,298.2 337.4,298.2 339.1,290.5 349.1,278.8 
	344.3,278.8 "/>
<path class="st0" d="M370.6,292.8c0.3-1.3,0.2-2.3-0.3-3c-0.5-0.7-1.2-1.3-2.3-1.7c0.4-0.2,0.8-0.4,1.1-0.7c0.4-0.3,0.7-0.6,1-0.9
	c0.3-0.3,0.6-0.7,0.8-1.1c0.2-0.4,0.4-0.9,0.5-1.5l0-0.1c0.3-1.3,0.1-2.4-0.6-3.3c-0.9-1.1-2.4-1.7-4.7-1.7h-9l-4.3,19.3h9.2
	c1.1,0,2.1-0.1,3-0.3c0.9-0.2,1.8-0.6,2.5-1c0.7-0.4,1.3-1,1.8-1.7C370.1,294.5,370.4,293.7,370.6,292.8L370.6,292.8z M366.5,292.3
	L366.5,292.3c-0.2,0.8-0.6,1.3-1.2,1.6c-0.6,0.3-1.4,0.5-2.3,0.5H358l1-4.3h4.9c1.1,0,1.9,0.2,2.3,0.6
	C366.5,291.1,366.7,291.6,366.5,292.3 M367.2,284.5L367.2,284.5c-0.2,0.8-0.6,1.3-1.2,1.6c-0.6,0.3-1.4,0.5-2.3,0.5h-3.9l0.9-4.1
	h4.2c0.9,0,1.6,0.2,2,0.5C367.2,283.4,367.3,283.9,367.2,284.5"/>
<path class="st0" d="M382.6,278.7l-12.6,19.5h4.3l2.7-4.3h8.2l0.8,4.3h4.4l-3.9-19.5H382.6z M379.4,290.1l4-6.3l1.2,6.3H379.4z"/>
<path class="st0" d="M407.9,274.2c-0.3,0-0.5-0.1-0.8-0.2c-0.3-0.1-0.6-0.2-0.9-0.4c-0.3-0.1-0.7-0.3-1-0.4
	c-0.4-0.1-0.8-0.2-1.2-0.2c-0.5,0-0.9,0.1-1.3,0.3c-0.4,0.2-0.8,0.4-1.1,0.8c-0.3,0.3-0.7,0.7-1,1.2c-0.3,0.5-0.6,1-0.9,1.6l2.1,0.7
	c0.3-0.4,0.6-0.8,0.8-1c0.3-0.2,0.6-0.3,1-0.3c0.2,0,0.5,0.1,0.8,0.2c0.3,0.1,0.6,0.2,0.9,0.4c0.3,0.1,0.7,0.3,1,0.4
	c0.4,0.1,0.8,0.2,1.2,0.2c1,0,1.8-0.3,2.4-1c0.7-0.7,1.3-1.6,1.8-2.8l-2.1-0.7c-0.3,0.4-0.6,0.8-0.8,1
	C408.6,274,408.3,274.2,407.9,274.2"/>
<polygon class="st0" points="409.3,278.8 406.7,290.7 400.3,278.8 396.3,278.8 392,298.2 396.2,298.2 399,285.9 405.6,298.2 
	409.2,298.2 413.5,278.8 "/>
<path class="st0" d="M434.4,288.4c0.3-1.4,0.3-2.7,0.1-3.9c-0.2-1.2-0.7-2.3-1.4-3.2c-0.7-0.9-1.6-1.6-2.8-2.1
	c-1.1-0.5-2.5-0.8-3.9-0.8c-1.5,0-2.9,0.3-4.3,0.8c-1.4,0.5-2.6,1.2-3.7,2.2c-1.1,0.9-2.1,2-2.9,3.2c-0.8,1.2-1.3,2.5-1.6,3.9l0,0.1
	c-0.3,1.4-0.3,2.7-0.1,3.9c0.2,1.2,0.7,2.3,1.4,3.2c0.7,0.9,1.6,1.6,2.8,2.1c1.1,0.5,2.4,0.8,3.9,0.8c1.5,0,2.9-0.3,4.3-0.8
	c1.4-0.5,2.6-1.2,3.7-2.2c1.1-0.9,2.1-2,2.9-3.2C433.5,291.2,434,289.9,434.4,288.4L434.4,288.4z M429.9,288.5L429.9,288.5
	c-0.2,0.9-0.5,1.7-1,2.4c-0.4,0.7-1,1.4-1.6,1.9c-0.6,0.6-1.3,1-2.1,1.3c-0.8,0.3-1.6,0.5-2.5,0.5c-0.9,0-1.6-0.2-2.3-0.5
	c-0.6-0.3-1.2-0.8-1.6-1.3c-0.4-0.6-0.7-1.2-0.8-1.9c-0.1-0.7-0.1-1.5,0.1-2.3l0-0.1c0.2-0.8,0.5-1.6,0.9-2.3c0.4-0.7,1-1.4,1.6-1.9
	c0.6-0.6,1.3-1,2.1-1.3c0.8-0.3,1.6-0.5,2.5-0.5c0.8,0,1.6,0.2,2.2,0.5c0.6,0.3,1.2,0.8,1.6,1.3c0.4,0.6,0.7,1.2,0.8,1.9
	C430.1,286.9,430.1,287.7,429.9,288.5"/>
<path class="st0" d="M441.4,284c0.1-0.5,0.4-0.9,0.9-1.2c0.5-0.3,1.1-0.5,2-0.5c0.8,0,1.6,0.2,2.4,0.5c0.8,0.3,1.5,0.8,2.2,1.4
	l2.9-3.2c-0.8-0.8-1.8-1.4-2.9-1.8c-1.1-0.4-2.4-0.6-3.8-0.6c-1,0-1.9,0.1-2.8,0.4c-0.9,0.3-1.7,0.7-2.4,1.2
	c-0.7,0.5-1.3,1.1-1.8,1.8c-0.5,0.7-0.8,1.5-1,2.4l0,0.1c-0.2,1-0.2,1.8-0.1,2.4c0.2,0.6,0.5,1.2,0.9,1.6c0.5,0.4,1.1,0.8,1.8,1.1
	c0.7,0.3,1.6,0.6,2.5,0.8c0.8,0.2,1.4,0.4,1.9,0.6c0.5,0.2,0.8,0.4,1.1,0.6c0.2,0.2,0.4,0.4,0.4,0.6c0.1,0.2,0.1,0.5,0,0.7l0,0.1
	c-0.1,0.6-0.5,1-1,1.3c-0.6,0.3-1.3,0.5-2.2,0.5c-1.1,0-2.1-0.2-2.9-0.6c-0.8-0.4-1.6-1-2.3-1.7l-3.2,3c0.9,1.1,2,1.8,3.3,2.3
	c1.3,0.5,2.7,0.8,4.2,0.8c1.1,0,2-0.1,3-0.4c0.9-0.3,1.8-0.7,2.5-1.2c0.7-0.5,1.4-1.1,1.9-1.9c0.5-0.7,0.9-1.6,1.1-2.6l0-0.1
	c0.2-0.8,0.2-1.6,0.1-2.2c-0.1-0.6-0.4-1.1-0.8-1.6c-0.4-0.5-1-0.8-1.7-1.2c-0.7-0.3-1.5-0.6-2.4-0.9c-0.8-0.2-1.4-0.4-1.9-0.6
	c-0.5-0.2-0.9-0.3-1.2-0.5s-0.4-0.4-0.5-0.6C441.3,284.6,441.3,284.4,441.4,284L441.4,284z"/>
<path class="st0" d="M475.9,285.5c0.2-1,0.3-1.9,0.1-2.7c-0.2-0.8-0.5-1.5-1-2.1c-0.5-0.6-1.2-1-2-1.4c-0.8-0.3-1.8-0.5-3-0.5h-7.9
	l-4.3,19.3h4.3l1.3-5.8h3.2c1.1,0,2.1-0.1,3.1-0.4c1-0.3,1.9-0.7,2.8-1.3c0.8-0.6,1.6-1.3,2.1-2.1
	C475.2,287.7,475.7,286.7,475.9,285.5L475.9,285.5z M471.6,285.6L471.6,285.6c-0.2,0.9-0.6,1.6-1.4,2.1c-0.7,0.6-1.6,0.8-2.7,0.8
	h-3.4l1.3-5.9h3.3c1.1,0,1.9,0.2,2.4,0.7C471.7,283.9,471.8,284.6,471.6,285.6"/>
<path class="st0" d="M496.9,284.6c-0.2-1.2-0.7-2.3-1.4-3.2c-0.7-0.9-1.6-1.6-2.8-2.1c-1.1-0.5-2.5-0.8-3.9-0.8
	c-1.5,0-2.9,0.3-4.3,0.8c-1.4,0.5-2.6,1.2-3.7,2.2c-1.1,0.9-2.1,2-2.9,3.2c-0.8,1.2-1.3,2.5-1.6,3.9l0,0.1c-0.3,1.4-0.3,2.7-0.1,3.9
	c0.2,1.2,0.7,2.3,1.4,3.2c0.7,0.9,1.6,1.6,2.8,2.1c1.1,0.5,2.4,0.8,3.9,0.8c1.5,0,2.9-0.3,4.3-0.8c1.4-0.5,2.6-1.2,3.7-2.2
	c1.1-0.9,2.1-2,2.9-3.2c0.8-1.2,1.3-2.5,1.6-3.9l0-0.1C497.1,287.1,497.1,285.8,496.9,284.6 M492.3,288.5L492.3,288.5
	c-0.2,0.9-0.5,1.7-1,2.4c-0.4,0.7-1,1.4-1.6,1.9c-0.6,0.6-1.3,1-2.1,1.3c-0.8,0.3-1.6,0.5-2.5,0.5c-0.9,0-1.6-0.2-2.3-0.5
	c-0.6-0.3-1.2-0.8-1.6-1.3c-0.4-0.6-0.7-1.2-0.8-1.9c-0.1-0.7-0.1-1.5,0.1-2.3l0-0.1c0.2-0.8,0.5-1.6,0.9-2.3c0.4-0.7,1-1.4,1.6-1.9
	c0.6-0.6,1.3-1,2.1-1.3c0.8-0.3,1.6-0.5,2.5-0.5c0.8,0,1.6,0.2,2.2,0.5c0.6,0.3,1.2,0.8,1.6,1.3c0.4,0.6,0.7,1.2,0.8,1.9
	C492.5,286.9,492.5,287.7,492.3,288.5"/>
<path class="st0" d="M510.1,278.8h-8.8l-4.3,19.3h4.3l1.4-6.2h3.3h0.1l2.8,6.2h5l-3.2-6.9c1.3-0.5,2.5-1.2,3.5-2.2
	c1-1,1.7-2.3,2-3.8l0-0.1c0.4-1.8,0.2-3.3-0.7-4.4C514.3,279.5,512.6,278.8,510.1,278.8 M511.7,285.4L511.7,285.4
	c-0.2,0.9-0.6,1.5-1.3,2c-0.7,0.5-1.5,0.7-2.6,0.7h-4.3l1.2-5.6h4.2c1,0,1.8,0.2,2.3,0.7C511.7,283.8,511.9,284.5,511.7,285.4"/>
<polygon class="st0" points="534.6,278.8 518.5,278.8 517.6,282.7 523.5,282.7 520.1,298.2 524.3,298.2 527.8,282.7 533.7,282.7 "/>
<path class="st0" d="M543.1,278.7l-12.6,19.5h4.3l2.7-4.3h8.2l0.8,4.3h4.4l-3.9-19.5H543.1z M539.9,290.1l4-6.3l1.2,6.3H539.9z"/>
<polygon class="st0" points="571.5,278.8 555.5,278.8 554.6,282.7 560.5,282.7 557.1,298.2 561.3,298.2 564.8,282.7 570.7,282.7 "/>
<polygon class="st0" points="573.6,278.8 569.3,298.2 573.5,298.2 577.9,278.8 "/>
<polygon class="st0" points="585.6,278.8 581.3,278.8 577,298.2 590.9,298.2 591.8,294.3 582.1,294.3 "/>
<polygon class="st0" points="607.8,290.3 608.6,286.5 599.5,286.5 600.4,282.6 610.8,282.6 611.6,278.8 597,278.8 592.7,298.2 
	607.4,298.2 608.3,294.4 597.8,294.4 598.7,290.3 "/>
<path class="st0" d="M624.4,288.6c-0.4-0.5-1-0.8-1.7-1.2c-0.7-0.3-1.5-0.6-2.4-0.9c-0.8-0.2-1.4-0.4-1.9-0.6
	c-0.5-0.2-0.9-0.3-1.2-0.5c-0.3-0.2-0.4-0.4-0.5-0.6c-0.1-0.2-0.1-0.5,0-0.8l0-0.1c0.1-0.5,0.4-0.9,0.9-1.2c0.5-0.3,1.1-0.5,2-0.5
	c0.8,0,1.6,0.2,2.4,0.5c0.8,0.3,1.5,0.8,2.2,1.4l2.9-3.2c-0.8-0.8-1.8-1.4-2.9-1.8c-1.1-0.4-2.4-0.6-3.8-0.6c-1,0-1.9,0.1-2.8,0.4
	c-0.9,0.3-1.7,0.7-2.4,1.2c-0.7,0.5-1.3,1.1-1.8,1.8c-0.5,0.7-0.8,1.5-1,2.4l0,0.1c-0.2,1-0.2,1.8-0.1,2.4c0.2,0.6,0.5,1.2,0.9,1.6
	c0.5,0.4,1.1,0.8,1.8,1.1c0.7,0.3,1.6,0.6,2.5,0.8c0.8,0.2,1.4,0.4,1.9,0.6c0.5,0.2,0.8,0.4,1.1,0.6c0.2,0.2,0.4,0.4,0.4,0.6
	c0.1,0.2,0.1,0.5,0,0.7l0,0.1c-0.1,0.6-0.5,1-1,1.3c-0.6,0.3-1.3,0.5-2.2,0.5c-1.1,0-2.1-0.2-2.9-0.6c-0.8-0.4-1.6-1-2.3-1.7l-3.2,3
	c0.9,1,2,1.8,3.3,2.3c1.3,0.5,2.7,0.8,4.2,0.8c1.1,0,2-0.1,3-0.4c0.9-0.3,1.8-0.7,2.5-1.2c0.7-0.5,1.4-1.1,1.9-1.9
	c0.5-0.7,0.9-1.6,1.1-2.6l0-0.1c0.2-0.8,0.2-1.6,0.1-2.2C625.1,289.6,624.8,289.1,624.4,288.6"/>
<polygon class="st0" points="428.1,137.5 391,137.5 388.3,148.6 425.4,148.6 "/>
<polygon class="st0" points="83.8,274.9 77.9,302.7 148.4,302.7 154.3,274.9 "/>
<path class="st1" d="M110.5,154.2h62.1c7.7,0,13.9,0.9,18.5,2.5c4.6,1.7,8.2,4.2,10.8,7.4c1.6,2,2.7,4.4,3.3,7.3
	c0.6,2.9,0.5,6.2-0.3,10l-0.1,0.3c-1.5,6.7-4.5,12-9,16.1c-4.5,4.1-10,7.2-16.5,9.3c6.8,2.1,11.8,5.2,15.1,9.4
	c3.3,4.1,4.2,10,2.5,17.6l-0.1,0.3c-1,4.4-2.8,8.5-5.4,12.3c-2.6,3.7-6.1,7-10.3,9.7c-4.2,2.7-9.2,4.9-14.8,6.4
	c-5.7,1.5-12,2.3-19,2.3H85.7L110.5,154.2z M146.7,237.1c4,0,7.2-0.7,9.6-2.2c2.4-1.5,3.8-3.4,4.4-5.9l0.1-0.3
	c0.5-2.4,0-4.4-1.7-5.9c-1.7-1.5-4.5-2.2-8.5-2.2h-18.7l-3.7,16.5H146.7z M153.1,197.8c7.8,0,12.3-2.5,13.4-7.6l0.1-0.3
	c1.1-5.1-2.3-7.6-10.2-7.6h-16l-3.5,15.5H153.1z"/>
<path class="st1" d="M214.8,154.2h49.9c7.4,0,13.9,0.8,19.6,2.5c5.7,1.6,10.4,4.1,14,7.4c3.6,3.3,6.1,7.4,7.4,12.4
	c1.3,5,1.2,10.7-0.2,17.3l-0.1,0.3c-1.5,6.7-4,12.5-7.6,17.7c-3.6,5.1-8,9.4-13.2,12.9c-5.2,3.5-11.1,6.1-17.7,7.8
	c-6.6,1.7-13.6,2.6-21.1,2.6h-12l-6.7,30.1H190L214.8,154.2z M249.7,208.6c4.8,0,8.8-1,12.2-3.1c3.4-2.1,5.5-5.1,6.4-9.1l0.1-0.3
	c0.9-4,0.2-7.1-2.1-9.1c-2.3-2.1-5.9-3.1-10.9-3.1h-10.1l-5.5,24.7H249.7z"/>
<path class="st1" d="M778.1,138.5l0.7-6.1H657.6l-0.7,6.1c-9.9,43.6-17.6,114.3-17,157.9l-0.7,6.3h19.6l0.7-6.3h82l-0.7,6.3h19.6
	l0.7-6.3v0C771,252.7,778.6,182.1,778.1,138.5"/>
<path class="st1" d="M649.8,134h136.3C750.5,115.2,689.5,115.2,649.8,134"/>
<path class="st0" d="M757.6,146.7l0.1-0.9h-0.5c-21.8-5.9-57.9-5.9-81,0h-0.5l-0.1,1.4c-10,38.5-16.6,100.5-14.9,139l-0.1,0.4h82
	C752.7,247.9,759.4,185.3,757.6,146.7"/>
<path class="st1" d="M711.6,216.1l47.8-69.3c0.7-1,0.5-2.4-0.5-3c-1-0.6-2.3-0.2-3,0.8l-46.3,67.2l-31.9-67.2
	c-0.5-1-1.8-1.4-2.9-0.8c-1.1,0.6-1.6,1.9-1.1,3l32.9,69.3l-47.8,69.3c-0.7,1-0.5,2.4,0.5,3c0.3,0.2,0.7,0.3,1.1,0.3
	c0.8,0,1.5-0.4,2-1.1l46.3-67.2l31.9,67.2c0.3,0.7,1,1.1,1.8,1.1c0.4,0,0.8-0.1,1.1-0.3c1.1-0.6,1.6-1.9,1.1-3L711.6,216.1z"/>
<path class="st1" d="M673.4,204.9c-1.9,0-3.6,1.5-3.8,3.4c-0.2,1.9,1.2,3.4,3.1,3.4c1.9,0,3.6-1.5,3.8-3.4
	C676.7,206.5,675.3,204.9,673.4,204.9"/>
<path class="st1" d="M672.3,215.7c-1,0-1.9,0.8-2,1.8l-1.7,15.5c-0.1,1,0.6,1.8,1.6,1.8c1,0,1.9-0.8,2-1.8l1.7-15.5
	C674,216.5,673.3,215.7,672.3,215.7"/>
<rect y="-298.9" class="st2" width="864" height="713"/>
</svg>
