<?xml version="1.0" encoding="utf-8"?>
<!-- Generator: Adobe Illustrator 25.0.0, SVG Export Plug-In . SVG Version: 6.00 Build 0)  -->
<svg version="1.1" id="Capa_1" xmlns="http://www.w3.org/2000/svg" xmlns:xlink="http://www.w3.org/1999/xlink" x="0px" y="0px"
	 viewBox="0 0 864 314" style="enable-background:new 0 0 864 314;" xml:space="preserve">
<style type="text/css">
	.st0{fill:#3C3C3B;}
	.st1{fill:none;stroke:#FFFFFF;stroke-width:15;stroke-linecap:round;stroke-linejoin:round;stroke-miterlimit:10;}
	.st2{fill:#1D71B8;}
	.st3{fill:#FFFFFF;}
</style>
<path class="st0" d="M533.3,201.6l9-14.9h38.8l2.5,14.9H624L602.2,89.8h-36.8l-71.7,111.7H533.3z M573.7,133.4l4.1,26.9h-20.3
	L573.7,133.4z"/>
<path class="st1" d="M533.3,201.6l9-14.9h38.8l2.5,14.9H624L602.2,89.8h-36.8l-71.7,111.7H533.3z M573.7,133.4l4.1,26.9h-20.3
	L573.7,133.4z"/>
<path class="st0" d="M174.3,221.4c-0.2-1.2-0.7-2.2-1.4-3.1c-0.7-0.9-1.7-1.5-2.8-2c-1.2-0.5-2.5-0.7-4-0.7h-7.5l-4.3,19.3h7.5
	c1.5,0,3-0.2,4.3-0.7c1.4-0.5,2.6-1.2,3.7-2c1.1-0.9,2-1.9,2.8-3.1c0.8-1.2,1.3-2.4,1.6-3.8l0-0.1
	C174.5,223.9,174.5,222.6,174.3,221.4 M169.7,225.3L169.7,225.3c-0.2,0.9-0.5,1.7-1,2.4c-0.4,0.7-1,1.3-1.6,1.8
	c-0.6,0.5-1.3,0.9-2.1,1.2c-0.8,0.3-1.6,0.4-2.5,0.4h-3.3l2.6-11.7h3.3c0.9,0,1.6,0.1,2.3,0.4c0.7,0.3,1.2,0.7,1.6,1.2
	c0.4,0.5,0.6,1.1,0.8,1.9C169.9,223.7,169.9,224.5,169.7,225.3"/>
<path class="st1" d="M174.3,221.4c-0.2-1.2-0.7-2.2-1.4-3.1c-0.7-0.9-1.7-1.5-2.8-2c-1.2-0.5-2.5-0.7-4-0.7h-7.5l-4.3,19.3h7.5
	c1.5,0,3-0.2,4.3-0.7c1.4-0.5,2.6-1.2,3.7-2c1.1-0.9,2-1.9,2.8-3.1c0.8-1.2,1.3-2.4,1.6-3.8l0-0.1
	C174.5,223.9,174.5,222.6,174.3,221.4z M169.7,225.3L169.7,225.3c-0.2,0.9-0.5,1.7-1,2.4c-0.4,0.7-1,1.3-1.6,1.8
	c-0.6,0.5-1.3,0.9-2.1,1.2c-0.8,0.3-1.6,0.4-2.5,0.4h-3.3l2.6-11.7h3.3c0.9,0,1.6,0.1,2.3,0.4c0.7,0.3,1.2,0.7,1.6,1.2
	c0.4,0.5,0.6,1.1,0.8,1.9C169.9,223.7,169.9,224.5,169.7,225.3z"/>
<polygon class="st0" points="189.5,227.1 190.3,223.3 181.2,223.3 182.1,219.4 192.4,219.4 193.3,215.6 178.7,215.6 174.4,235 
	189.1,235 189.9,231.2 179.4,231.2 180.4,227.1 "/>
<polygon class="st1" points="189.5,227.1 190.3,223.3 181.2,223.3 182.1,219.4 192.4,219.4 193.3,215.6 178.7,215.6 174.4,235 
	189.1,235 189.9,231.2 179.4,231.2 180.4,227.1 "/>
<path class="st0" d="M206.8,229.2c0.2-0.8,0.2-1.6,0.1-2.2c-0.1-0.6-0.4-1.1-0.8-1.6c-0.4-0.5-1-0.8-1.7-1.2
	c-0.7-0.3-1.5-0.6-2.4-0.9c-0.8-0.2-1.4-0.4-1.9-0.6c-0.5-0.2-0.9-0.3-1.2-0.5c-0.3-0.2-0.4-0.4-0.5-0.6c-0.1-0.2-0.1-0.5,0-0.8
	l0-0.1c0.1-0.5,0.4-0.9,0.9-1.2c0.5-0.3,1.1-0.5,2-0.5c0.8,0,1.6,0.2,2.4,0.5c0.8,0.3,1.5,0.8,2.2,1.4l2.9-3.2
	c-0.8-0.8-1.8-1.4-2.9-1.8c-1.1-0.4-2.4-0.6-3.8-0.6c-1,0-1.9,0.1-2.8,0.4c-0.9,0.3-1.7,0.7-2.4,1.2c-0.7,0.5-1.3,1.1-1.8,1.8
	c-0.5,0.7-0.8,1.5-1,2.4l0,0.1c-0.2,1-0.2,1.8-0.1,2.4c0.2,0.6,0.5,1.2,0.9,1.6c0.5,0.4,1,0.8,1.8,1.1c0.7,0.3,1.6,0.6,2.5,0.8
	c0.8,0.2,1.4,0.4,1.9,0.6c0.5,0.2,0.8,0.4,1.1,0.6c0.2,0.2,0.4,0.4,0.4,0.6c0.1,0.2,0.1,0.5,0,0.7l0,0.1c-0.1,0.6-0.5,1-1,1.3
	c-0.6,0.3-1.3,0.5-2.2,0.5c-1.1,0-2.1-0.2-2.9-0.6c-0.8-0.4-1.6-1-2.3-1.7l-3.2,3c0.9,1.1,2,1.8,3.3,2.3c1.3,0.5,2.7,0.8,4.2,0.8
	c1.1,0,2-0.1,3-0.4c0.9-0.3,1.8-0.7,2.5-1.2c0.7-0.5,1.4-1.1,1.9-1.9C206.2,231.1,206.6,230.2,206.8,229.2L206.8,229.2z"/>
<path class="st1" d="M206.8,229.2c0.2-0.8,0.2-1.6,0.1-2.2c-0.1-0.6-0.4-1.1-0.8-1.6c-0.4-0.5-1-0.8-1.7-1.2
	c-0.7-0.3-1.5-0.6-2.4-0.9c-0.8-0.2-1.4-0.4-1.9-0.6c-0.5-0.2-0.9-0.3-1.2-0.5c-0.3-0.2-0.4-0.4-0.5-0.6c-0.1-0.2-0.1-0.5,0-0.8
	l0-0.1c0.1-0.5,0.4-0.9,0.9-1.2c0.5-0.3,1.1-0.5,2-0.5c0.8,0,1.6,0.2,2.4,0.5c0.8,0.3,1.5,0.8,2.2,1.4l2.9-3.2
	c-0.8-0.8-1.8-1.4-2.9-1.8c-1.1-0.4-2.4-0.6-3.8-0.6c-1,0-1.9,0.1-2.8,0.4c-0.9,0.3-1.7,0.7-2.4,1.2c-0.7,0.5-1.3,1.1-1.8,1.8
	c-0.5,0.7-0.8,1.5-1,2.4l0,0.1c-0.2,1-0.2,1.8-0.1,2.4c0.2,0.6,0.5,1.2,0.9,1.6c0.5,0.4,1,0.8,1.8,1.1c0.7,0.3,1.6,0.6,2.5,0.8
	c0.8,0.2,1.4,0.4,1.9,0.6c0.5,0.2,0.8,0.4,1.1,0.6c0.2,0.2,0.4,0.4,0.4,0.6c0.1,0.2,0.1,0.5,0,0.7l0,0.1c-0.1,0.6-0.5,1-1,1.3
	c-0.6,0.3-1.3,0.5-2.2,0.5c-1.1,0-2.1-0.2-2.9-0.6c-0.8-0.4-1.6-1-2.3-1.7l-3.2,3c0.9,1.1,2,1.8,3.3,2.3c1.3,0.5,2.7,0.8,4.2,0.8
	c1.1,0,2-0.1,3-0.4c0.9-0.3,1.8-0.7,2.5-1.2c0.7-0.5,1.4-1.1,1.9-1.9C206.2,231.1,206.6,230.2,206.8,229.2L206.8,229.2z"/>
<path class="st0" d="M218.8,215.5L206.2,235h4.3l2.7-4.3h8.2l0.8,4.3h4.4l-3.9-19.5H218.8z M215.6,226.9l4-6.3l1.2,6.3H215.6z"/>
<path class="st1" d="M218.8,215.5L206.2,235h4.3l2.7-4.3h8.2l0.8,4.3h4.4l-3.9-19.5H218.8z M215.6,226.9l4-6.3l1.2,6.3H215.6z"/>
<polygon class="st0" points="248.1,215.6 232.4,215.6 231.5,219.4 241.8,219.4 228.4,231.7 227.7,235 243.8,235 244.7,231.2 
	234,231.2 247.4,218.9 "/>
<polygon class="st1" points="248.1,215.6 232.4,215.6 231.5,219.4 241.8,219.4 228.4,231.7 227.7,235 243.8,235 244.7,231.2 
	234,231.2 247.4,218.9 "/>
<path class="st0" d="M268.5,221.4c-0.2-1.2-0.7-2.3-1.4-3.2c-0.7-0.9-1.6-1.6-2.8-2.1c-1.1-0.5-2.5-0.8-3.9-0.8
	c-1.5,0-2.9,0.3-4.3,0.8c-1.4,0.5-2.6,1.2-3.7,2.2c-1.1,0.9-2.1,2-2.9,3.2c-0.8,1.2-1.3,2.5-1.6,3.9l0,0.1c-0.3,1.4-0.3,2.7-0.1,3.9
	c0.2,1.2,0.7,2.3,1.4,3.1c0.7,0.9,1.6,1.6,2.8,2.1c1.1,0.5,2.4,0.8,3.9,0.8c1.5,0,2.9-0.3,4.3-0.8c1.4-0.5,2.6-1.2,3.7-2.2
	c1.1-0.9,2.1-2,2.9-3.2c0.8-1.2,1.3-2.5,1.6-3.9l0-0.1C268.7,223.9,268.7,222.6,268.5,221.4 M263.9,225.3L263.9,225.3
	c-0.2,0.9-0.5,1.7-1,2.4c-0.4,0.7-1,1.4-1.6,1.9c-0.6,0.6-1.3,1-2.1,1.3c-0.8,0.3-1.6,0.5-2.5,0.5c-0.9,0-1.6-0.2-2.3-0.5
	c-0.6-0.3-1.2-0.8-1.6-1.3c-0.4-0.6-0.7-1.2-0.8-1.9c-0.1-0.7-0.1-1.5,0.1-2.3l0-0.1c0.2-0.8,0.5-1.6,0.9-2.3s1-1.4,1.6-1.9
	c0.6-0.6,1.3-1,2.1-1.3c0.8-0.3,1.6-0.5,2.5-0.5c0.8,0,1.6,0.2,2.2,0.5c0.6,0.3,1.2,0.8,1.6,1.3c0.4,0.6,0.7,1.2,0.8,1.9
	C264.1,223.7,264.1,224.5,263.9,225.3"/>
<path class="st1" d="M268.5,221.4c-0.2-1.2-0.7-2.3-1.4-3.2c-0.7-0.9-1.6-1.6-2.8-2.1c-1.1-0.5-2.5-0.8-3.9-0.8
	c-1.5,0-2.9,0.3-4.3,0.8c-1.4,0.5-2.6,1.2-3.7,2.2c-1.1,0.9-2.1,2-2.9,3.2c-0.8,1.2-1.3,2.5-1.6,3.9l0,0.1c-0.3,1.4-0.3,2.7-0.1,3.9
	c0.2,1.2,0.7,2.3,1.4,3.1c0.7,0.9,1.6,1.6,2.8,2.1c1.1,0.5,2.4,0.8,3.9,0.8c1.5,0,2.9-0.3,4.3-0.8c1.4-0.5,2.6-1.2,3.7-2.2
	c1.1-0.9,2.1-2,2.9-3.2c0.8-1.2,1.3-2.5,1.6-3.9l0-0.1C268.7,223.9,268.7,222.6,268.5,221.4z M263.9,225.3L263.9,225.3
	c-0.2,0.9-0.5,1.7-1,2.4c-0.4,0.7-1,1.4-1.6,1.9c-0.6,0.6-1.3,1-2.1,1.3c-0.8,0.3-1.6,0.5-2.5,0.5c-0.9,0-1.6-0.2-2.3-0.5
	c-0.6-0.3-1.2-0.8-1.6-1.3c-0.4-0.6-0.7-1.2-0.8-1.9c-0.1-0.7-0.1-1.5,0.1-2.3l0-0.1c0.2-0.8,0.5-1.6,0.9-2.3s1-1.4,1.6-1.9
	c0.6-0.6,1.3-1,2.1-1.3c0.8-0.3,1.6-0.5,2.5-0.5c0.8,0,1.6,0.2,2.2,0.5c0.6,0.3,1.2,0.8,1.6,1.3c0.4,0.6,0.7,1.2,0.8,1.9
	C264.1,223.7,264.1,224.5,263.9,225.3z"/>
<polygon class="st0" points="277.2,215.6 272.9,215.6 268.6,235 282.5,235 283.3,231.1 273.7,231.1 "/>
<polygon class="st1" points="277.2,215.6 272.9,215.6 268.6,235 282.5,235 283.3,231.1 273.7,231.1 "/>
<polygon class="st0" points="301.8,215.6 293.7,229.3 291.7,215.6 287,215.6 290.4,235.1 294.2,235.1 306.4,215.6 "/>
<polygon class="st1" points="301.8,215.6 293.7,229.3 291.7,215.6 287,215.6 290.4,235.1 294.2,235.1 306.4,215.6 "/>
<polygon class="st0" points="303.7,235 318.4,235 319.2,231.2 308.7,231.2 309.6,227.1 318.7,227.1 319.6,223.3 310.4,223.3 
	311.3,219.4 321.7,219.4 322.5,215.6 308,215.6 "/>
<polygon class="st1" points="303.7,235 318.4,235 319.2,231.2 308.7,231.2 309.6,227.1 318.7,227.1 319.6,223.3 310.4,223.3 
	311.3,219.4 321.7,219.4 322.5,215.6 308,215.6 "/>
<polygon class="st0" points="337.9,223.4 335,215.6 330,215.6 334.8,227.3 333.1,235 337.4,235 339.1,227.3 349.1,215.6 
	344.3,215.6 "/>
<polygon class="st1" points="337.9,223.4 335,215.6 330,215.6 334.8,227.3 333.1,235 337.4,235 339.1,227.3 349.1,215.6 
	344.3,215.6 "/>
<path class="st0" d="M370.6,229.6c0.3-1.3,0.2-2.3-0.3-3c-0.5-0.7-1.2-1.3-2.3-1.7c0.4-0.2,0.8-0.4,1.1-0.7c0.4-0.3,0.7-0.6,1-0.9
	c0.3-0.3,0.6-0.7,0.8-1.1c0.2-0.4,0.4-0.9,0.5-1.5l0-0.1c0.3-1.3,0.1-2.4-0.6-3.3c-0.9-1.1-2.4-1.7-4.7-1.7h-9L353,235h9.2
	c1.1,0,2.1-0.1,3-0.3c0.9-0.2,1.8-0.6,2.5-1c0.7-0.4,1.3-1,1.8-1.7C370.1,231.3,370.4,230.6,370.6,229.6L370.6,229.6z M366.5,229.1
	L366.5,229.1c-0.2,0.8-0.6,1.3-1.2,1.6c-0.6,0.3-1.4,0.5-2.3,0.5H358l1-4.3h4.9c1.1,0,1.9,0.2,2.3,0.6
	C366.5,227.9,366.7,228.4,366.5,229.1 M367.2,221.4L367.2,221.4c-0.2,0.8-0.6,1.3-1.2,1.6c-0.6,0.3-1.4,0.5-2.3,0.5h-3.9l0.9-4.1
	h4.2c0.9,0,1.6,0.2,2,0.5C367.2,220.2,367.3,220.7,367.2,221.4"/>
<path class="st1" d="M370.6,229.6c0.3-1.3,0.2-2.3-0.3-3c-0.5-0.7-1.2-1.3-2.3-1.7c0.4-0.2,0.8-0.4,1.1-0.7c0.4-0.3,0.7-0.6,1-0.9
	c0.3-0.3,0.6-0.7,0.8-1.1c0.2-0.4,0.4-0.9,0.5-1.5l0-0.1c0.3-1.3,0.1-2.4-0.6-3.3c-0.9-1.1-2.4-1.7-4.7-1.7h-9L353,235h9.2
	c1.1,0,2.1-0.1,3-0.3c0.9-0.2,1.8-0.6,2.5-1c0.7-0.4,1.3-1,1.8-1.7C370.1,231.3,370.4,230.6,370.6,229.6L370.6,229.6z M366.5,229.1
	L366.5,229.1c-0.2,0.8-0.6,1.3-1.2,1.6c-0.6,0.3-1.4,0.5-2.3,0.5H358l1-4.3h4.9c1.1,0,1.9,0.2,2.3,0.6
	C366.5,227.9,366.7,228.4,366.5,229.1z M367.2,221.4L367.2,221.4c-0.2,0.8-0.6,1.3-1.2,1.6c-0.6,0.3-1.4,0.5-2.3,0.5h-3.9l0.9-4.1
	h4.2c0.9,0,1.6,0.2,2,0.5C367.2,220.2,367.3,220.7,367.2,221.4z"/>
<path class="st0" d="M382.6,215.5L369.9,235h4.3l2.7-4.3h8.2l0.8,4.3h4.4l-3.9-19.5H382.6z M379.4,226.9l4-6.3l1.2,6.3H379.4z"/>
<path class="st1" d="M382.6,215.5L369.9,235h4.3l2.7-4.3h8.2l0.8,4.3h4.4l-3.9-19.5H382.6z M379.4,226.9l4-6.3l1.2,6.3H379.4z"/>
<polygon class="st0" points="409.3,215.6 406.7,227.5 400.3,215.6 396.3,215.6 392,235 396.2,235 399,222.7 405.6,235 409.2,235 
	413.5,215.6 "/>
<polygon class="st1" points="409.3,215.6 406.7,227.5 400.3,215.6 396.3,215.6 392,235 396.2,235 399,222.7 405.6,235 409.2,235 
	413.5,215.6 "/>
<path class="st0" d="M407.9,211c-0.3,0-0.5-0.1-0.8-0.2c-0.3-0.1-0.6-0.2-0.9-0.4c-0.3-0.1-0.7-0.3-1-0.4c-0.4-0.1-0.8-0.2-1.2-0.2
	c-0.5,0-0.9,0.1-1.3,0.3c-0.4,0.2-0.8,0.4-1.1,0.8c-0.3,0.3-0.7,0.7-1,1.2c-0.3,0.5-0.6,1-0.9,1.6l2.1,0.7c0.3-0.4,0.6-0.8,0.8-1
	c0.3-0.2,0.6-0.3,1-0.3c0.2,0,0.5,0.1,0.8,0.2c0.3,0.1,0.6,0.2,0.9,0.4c0.3,0.1,0.7,0.3,1,0.4c0.4,0.1,0.8,0.2,1.2,0.2
	c1,0,1.8-0.3,2.4-1c0.7-0.7,1.3-1.6,1.8-2.8l-2.1-0.7c-0.3,0.4-0.6,0.8-0.8,1C408.6,210.8,408.3,211,407.9,211"/>
<path class="st1" d="M407.9,211c-0.3,0-0.5-0.1-0.8-0.2c-0.3-0.1-0.6-0.2-0.9-0.4c-0.3-0.1-0.7-0.3-1-0.4c-0.4-0.1-0.8-0.2-1.2-0.2
	c-0.5,0-0.9,0.1-1.3,0.3c-0.4,0.2-0.8,0.4-1.1,0.8c-0.3,0.3-0.7,0.7-1,1.2c-0.3,0.5-0.6,1-0.9,1.6l2.1,0.7c0.3-0.4,0.6-0.8,0.8-1
	c0.3-0.2,0.6-0.3,1-0.3c0.2,0,0.5,0.1,0.8,0.2c0.3,0.1,0.6,0.2,0.9,0.4c0.3,0.1,0.7,0.3,1,0.4c0.4,0.1,0.8,0.2,1.2,0.2
	c1,0,1.8-0.3,2.4-1c0.7-0.7,1.3-1.6,1.8-2.8l-2.1-0.7c-0.3,0.4-0.6,0.8-0.8,1C408.6,210.8,408.3,211,407.9,211z"/>
<path class="st0" d="M434.4,225.2c0.3-1.4,0.3-2.7,0.1-3.9c-0.2-1.2-0.7-2.3-1.4-3.2c-0.7-0.9-1.6-1.6-2.8-2.1
	c-1.1-0.5-2.5-0.8-3.9-0.8c-1.5,0-2.9,0.3-4.3,0.8c-1.4,0.5-2.6,1.2-3.7,2.2c-1.1,0.9-2.1,2-2.9,3.2c-0.8,1.2-1.3,2.5-1.6,3.9l0,0.1
	c-0.3,1.4-0.3,2.7-0.1,3.9c0.2,1.2,0.7,2.3,1.4,3.1c0.7,0.9,1.6,1.6,2.8,2.1c1.1,0.5,2.4,0.8,3.9,0.8c1.5,0,2.9-0.3,4.3-0.8
	c1.4-0.5,2.6-1.2,3.7-2.2c1.1-0.9,2.1-2,2.9-3.2C433.5,228,434,226.7,434.4,225.2L434.4,225.2z M429.9,225.3L429.9,225.3
	c-0.2,0.9-0.5,1.7-1,2.4c-0.4,0.7-1,1.4-1.6,1.9c-0.6,0.6-1.3,1-2.1,1.3c-0.8,0.3-1.6,0.5-2.5,0.5c-0.9,0-1.6-0.2-2.3-0.5
	c-0.6-0.3-1.2-0.8-1.6-1.3c-0.4-0.6-0.7-1.2-0.8-1.9c-0.1-0.7-0.1-1.5,0.1-2.3l0-0.1c0.2-0.8,0.5-1.6,0.9-2.3s1-1.4,1.6-1.9
	c0.6-0.6,1.3-1,2.1-1.3c0.8-0.3,1.6-0.5,2.5-0.5c0.8,0,1.6,0.2,2.2,0.5c0.6,0.3,1.2,0.8,1.6,1.3c0.4,0.6,0.7,1.2,0.8,1.9
	C430.1,223.7,430.1,224.5,429.9,225.3"/>
<path class="st1" d="M434.4,225.2c0.3-1.4,0.3-2.7,0.1-3.9c-0.2-1.2-0.7-2.3-1.4-3.2c-0.7-0.9-1.6-1.6-2.8-2.1
	c-1.1-0.5-2.5-0.8-3.9-0.8c-1.5,0-2.9,0.3-4.3,0.8c-1.4,0.5-2.6,1.2-3.7,2.2c-1.1,0.9-2.1,2-2.9,3.2c-0.8,1.2-1.3,2.5-1.6,3.9l0,0.1
	c-0.3,1.4-0.3,2.7-0.1,3.9c0.2,1.2,0.7,2.3,1.4,3.1c0.7,0.9,1.6,1.6,2.8,2.1c1.1,0.5,2.4,0.8,3.9,0.8c1.5,0,2.9-0.3,4.3-0.8
	c1.4-0.5,2.6-1.2,3.7-2.2c1.1-0.9,2.1-2,2.9-3.2C433.5,228,434,226.7,434.4,225.2L434.4,225.2z M429.9,225.3L429.9,225.3
	c-0.2,0.9-0.5,1.7-1,2.4c-0.4,0.7-1,1.4-1.6,1.9c-0.6,0.6-1.3,1-2.1,1.3c-0.8,0.3-1.6,0.5-2.5,0.5c-0.9,0-1.6-0.2-2.3-0.5
	c-0.6-0.3-1.2-0.8-1.6-1.3c-0.4-0.6-0.7-1.2-0.8-1.9c-0.1-0.7-0.1-1.5,0.1-2.3l0-0.1c0.2-0.8,0.5-1.6,0.9-2.3s1-1.4,1.6-1.9
	c0.6-0.6,1.3-1,2.1-1.3c0.8-0.3,1.6-0.5,2.5-0.5c0.8,0,1.6,0.2,2.2,0.5c0.6,0.3,1.2,0.8,1.6,1.3c0.4,0.6,0.7,1.2,0.8,1.9
	C430.1,223.7,430.1,224.5,429.9,225.3z"/>
<path class="st0" d="M441.4,220.8c0.1-0.5,0.4-0.9,0.9-1.2c0.5-0.3,1.1-0.5,2-0.5c0.8,0,1.6,0.2,2.4,0.5c0.8,0.3,1.5,0.8,2.2,1.4
	l2.9-3.2c-0.8-0.8-1.8-1.4-2.9-1.8c-1.1-0.4-2.4-0.6-3.8-0.6c-1,0-1.9,0.1-2.8,0.4c-0.9,0.3-1.7,0.7-2.4,1.2
	c-0.7,0.5-1.3,1.1-1.8,1.8c-0.5,0.7-0.8,1.5-1,2.4l0,0.1c-0.2,1-0.2,1.8-0.1,2.4c0.2,0.6,0.5,1.2,0.9,1.6c0.5,0.4,1.1,0.8,1.8,1.1
	c0.7,0.3,1.6,0.6,2.5,0.8c0.8,0.2,1.4,0.4,1.9,0.6c0.5,0.2,0.8,0.4,1.1,0.6c0.2,0.2,0.4,0.4,0.4,0.6c0.1,0.2,0.1,0.5,0,0.7l0,0.1
	c-0.1,0.6-0.5,1-1,1.3c-0.6,0.3-1.3,0.5-2.2,0.5c-1.1,0-2.1-0.2-2.9-0.6c-0.8-0.4-1.6-1-2.3-1.7l-3.2,3c0.9,1.1,2,1.8,3.3,2.3
	c1.3,0.5,2.7,0.8,4.2,0.8c1.1,0,2-0.1,3-0.4c0.9-0.3,1.8-0.7,2.5-1.2c0.7-0.5,1.4-1.1,1.9-1.9c0.5-0.7,0.9-1.6,1.1-2.6l0-0.1
	c0.2-0.8,0.2-1.6,0.1-2.2c-0.1-0.6-0.4-1.1-0.8-1.6s-1-0.8-1.7-1.2c-0.7-0.3-1.5-0.6-2.4-0.9c-0.8-0.2-1.4-0.4-1.9-0.6
	c-0.5-0.2-0.9-0.3-1.2-0.5s-0.4-0.4-0.5-0.6C441.3,221.4,441.3,221.2,441.4,220.8L441.4,220.8z"/>
<path class="st1" d="M441.4,220.8c0.1-0.5,0.4-0.9,0.9-1.2c0.5-0.3,1.1-0.5,2-0.5c0.8,0,1.6,0.2,2.4,0.5c0.8,0.3,1.5,0.8,2.2,1.4
	l2.9-3.2c-0.8-0.8-1.8-1.4-2.9-1.8c-1.1-0.4-2.4-0.6-3.8-0.6c-1,0-1.9,0.1-2.8,0.4c-0.9,0.3-1.7,0.7-2.4,1.2
	c-0.7,0.5-1.3,1.1-1.8,1.8c-0.5,0.7-0.8,1.5-1,2.4l0,0.1c-0.2,1-0.2,1.8-0.1,2.4c0.2,0.6,0.5,1.2,0.9,1.6c0.5,0.4,1.1,0.8,1.8,1.1
	c0.7,0.3,1.6,0.6,2.5,0.8c0.8,0.2,1.4,0.4,1.9,0.6c0.5,0.2,0.8,0.4,1.1,0.6c0.2,0.2,0.4,0.4,0.4,0.6c0.1,0.2,0.1,0.5,0,0.7l0,0.1
	c-0.1,0.6-0.5,1-1,1.3c-0.6,0.3-1.3,0.5-2.2,0.5c-1.1,0-2.1-0.2-2.9-0.6c-0.8-0.4-1.6-1-2.3-1.7l-3.2,3c0.9,1.1,2,1.8,3.3,2.3
	c1.3,0.5,2.7,0.8,4.2,0.8c1.1,0,2-0.1,3-0.4c0.9-0.3,1.8-0.7,2.5-1.2c0.7-0.5,1.4-1.1,1.9-1.9c0.5-0.7,0.9-1.6,1.1-2.6l0-0.1
	c0.2-0.8,0.2-1.6,0.1-2.2c-0.1-0.6-0.4-1.1-0.8-1.6s-1-0.8-1.7-1.2c-0.7-0.3-1.5-0.6-2.4-0.9c-0.8-0.2-1.4-0.4-1.9-0.6
	c-0.5-0.2-0.9-0.3-1.2-0.5s-0.4-0.4-0.5-0.6C441.3,221.4,441.3,221.2,441.4,220.8L441.4,220.8z"/>
<path class="st0" d="M475.9,222.3c0.2-1,0.3-1.9,0.1-2.7c-0.2-0.8-0.5-1.5-1-2.1c-0.5-0.6-1.2-1-2-1.4c-0.8-0.3-1.8-0.5-3-0.5h-7.9
	l-4.3,19.3h4.3l1.3-5.8h3.2c1.1,0,2.1-0.1,3.1-0.4c1-0.3,1.9-0.7,2.8-1.3c0.8-0.6,1.6-1.3,2.1-2.1
	C475.2,224.5,475.7,223.5,475.9,222.3L475.9,222.3z M471.6,222.4L471.6,222.4c-0.2,0.9-0.6,1.6-1.4,2.1c-0.7,0.6-1.6,0.8-2.7,0.8
	h-3.4l1.3-5.9h3.3c1.1,0,1.9,0.2,2.4,0.7C471.7,220.7,471.8,221.4,471.6,222.4"/>
<path class="st1" d="M475.9,222.3c0.2-1,0.3-1.9,0.1-2.7c-0.2-0.8-0.5-1.5-1-2.1c-0.5-0.6-1.2-1-2-1.4c-0.8-0.3-1.8-0.5-3-0.5h-7.9
	l-4.3,19.3h4.3l1.3-5.8h3.2c1.1,0,2.1-0.1,3.1-0.4c1-0.3,1.9-0.7,2.8-1.3c0.8-0.6,1.6-1.3,2.1-2.1
	C475.2,224.5,475.7,223.5,475.9,222.3L475.9,222.3z M471.6,222.4L471.6,222.4c-0.2,0.9-0.6,1.6-1.4,2.1c-0.7,0.6-1.6,0.8-2.7,0.8
	h-3.4l1.3-5.9h3.3c1.1,0,1.9,0.2,2.4,0.7C471.7,220.7,471.8,221.4,471.6,222.4z"/>
<path class="st0" d="M496.9,221.4c-0.2-1.2-0.7-2.3-1.4-3.2c-0.7-0.9-1.6-1.6-2.8-2.1c-1.1-0.5-2.5-0.8-3.9-0.8
	c-1.5,0-2.9,0.3-4.3,0.8c-1.4,0.5-2.6,1.2-3.7,2.2c-1.1,0.9-2.1,2-2.9,3.2c-0.8,1.2-1.3,2.5-1.6,3.9l0,0.1c-0.3,1.4-0.3,2.7-0.1,3.9
	c0.2,1.2,0.7,2.3,1.4,3.1c0.7,0.9,1.6,1.6,2.8,2.1c1.1,0.5,2.4,0.8,3.9,0.8c1.5,0,2.9-0.3,4.3-0.8c1.4-0.5,2.6-1.2,3.7-2.2
	c1.1-0.9,2.1-2,2.9-3.2c0.8-1.2,1.3-2.5,1.6-3.9l0-0.1C497.1,223.9,497.1,222.6,496.9,221.4 M492.3,225.3L492.3,225.3
	c-0.2,0.9-0.5,1.7-1,2.4c-0.4,0.7-1,1.4-1.6,1.9c-0.6,0.6-1.3,1-2.1,1.3c-0.8,0.3-1.6,0.5-2.5,0.5c-0.9,0-1.6-0.2-2.3-0.5
	c-0.6-0.3-1.2-0.8-1.6-1.3c-0.4-0.6-0.7-1.2-0.8-1.9c-0.1-0.7-0.1-1.5,0.1-2.3l0-0.1c0.2-0.8,0.5-1.6,0.9-2.3s1-1.4,1.6-1.9
	c0.6-0.6,1.3-1,2.1-1.3c0.8-0.3,1.6-0.5,2.5-0.5c0.8,0,1.6,0.2,2.2,0.5c0.6,0.3,1.2,0.8,1.6,1.3c0.4,0.6,0.7,1.2,0.8,1.9
	C492.5,223.7,492.5,224.5,492.3,225.3"/>
<path class="st1" d="M496.9,221.4c-0.2-1.2-0.7-2.3-1.4-3.2c-0.7-0.9-1.6-1.6-2.8-2.1c-1.1-0.5-2.5-0.8-3.9-0.8
	c-1.5,0-2.9,0.3-4.3,0.8c-1.4,0.5-2.6,1.2-3.7,2.2c-1.1,0.9-2.1,2-2.9,3.2c-0.8,1.2-1.3,2.5-1.6,3.9l0,0.1c-0.3,1.4-0.3,2.7-0.1,3.9
	c0.2,1.2,0.7,2.3,1.4,3.1c0.7,0.9,1.6,1.6,2.8,2.1c1.1,0.5,2.4,0.8,3.9,0.8c1.5,0,2.9-0.3,4.3-0.8c1.4-0.5,2.6-1.2,3.7-2.2
	c1.1-0.9,2.1-2,2.9-3.2c0.8-1.2,1.3-2.5,1.6-3.9l0-0.1C497.1,223.9,497.1,222.6,496.9,221.4z M492.3,225.3L492.3,225.3
	c-0.2,0.9-0.5,1.7-1,2.4c-0.4,0.7-1,1.4-1.6,1.9c-0.6,0.6-1.3,1-2.1,1.3c-0.8,0.3-1.6,0.5-2.5,0.5c-0.9,0-1.6-0.2-2.3-0.5
	c-0.6-0.3-1.2-0.8-1.6-1.3c-0.4-0.6-0.7-1.2-0.8-1.9c-0.1-0.7-0.1-1.5,0.1-2.3l0-0.1c0.2-0.8,0.5-1.6,0.9-2.3s1-1.4,1.6-1.9
	c0.6-0.6,1.3-1,2.1-1.3c0.8-0.3,1.6-0.5,2.5-0.5c0.8,0,1.6,0.2,2.2,0.5c0.6,0.3,1.2,0.8,1.6,1.3c0.4,0.6,0.7,1.2,0.8,1.9
	C492.5,223.7,492.5,224.5,492.3,225.3z"/>
<path class="st0" d="M510.1,215.6h-8.8L497,235h4.3l1.4-6.2h3.3h0.1l2.8,6.2h5l-3.2-6.9c1.3-0.5,2.5-1.2,3.5-2.2c1-1,1.7-2.3,2-3.8
	l0-0.1c0.4-1.8,0.2-3.3-0.7-4.4C514.3,216.3,512.6,215.6,510.1,215.6 M511.7,222.2L511.7,222.2c-0.2,0.9-0.6,1.5-1.3,2
	c-0.7,0.5-1.5,0.7-2.6,0.7h-4.3l1.2-5.6h4.2c1,0,1.8,0.2,2.3,0.7C511.7,220.6,511.9,221.3,511.7,222.2"/>
<path class="st1" d="M510.1,215.6h-8.8L497,235h4.3l1.4-6.2h3.3h0.1l2.8,6.2h5l-3.2-6.9c1.3-0.5,2.5-1.2,3.5-2.2c1-1,1.7-2.3,2-3.8
	l0-0.1c0.4-1.8,0.2-3.3-0.7-4.4C514.3,216.3,512.6,215.6,510.1,215.6z M511.7,222.2L511.7,222.2c-0.2,0.9-0.6,1.5-1.3,2
	c-0.7,0.5-1.5,0.7-2.6,0.7h-4.3l1.2-5.6h4.2c1,0,1.8,0.2,2.3,0.7C511.7,220.6,511.9,221.3,511.7,222.2z"/>
<polygon class="st0" points="534.6,215.6 518.5,215.6 517.6,219.6 523.5,219.6 520.1,235 524.3,235 527.8,219.6 533.7,219.6 "/>
<polygon class="st1" points="534.6,215.6 518.5,215.6 517.6,219.6 523.5,219.6 520.1,235 524.3,235 527.8,219.6 533.7,219.6 "/>
<path class="st0" d="M543.1,215.5L530.5,235h4.3l2.7-4.3h8.2l0.8,4.3h4.4l-3.9-19.5H543.1z M539.9,226.9l4-6.3l1.2,6.3H539.9z"/>
<path class="st1" d="M543.1,215.5L530.5,235h4.3l2.7-4.3h8.2l0.8,4.3h4.4l-3.9-19.5H543.1z M539.9,226.9l4-6.3l1.2,6.3H539.9z"/>
<polygon class="st0" points="571.5,215.6 555.5,215.6 554.6,219.6 560.5,219.6 557.1,235 561.3,235 564.8,219.6 570.7,219.6 "/>
<polygon class="st1" points="571.5,215.6 555.5,215.6 554.6,219.6 560.5,219.6 557.1,235 561.3,235 564.8,219.6 570.7,219.6 "/>
<polygon class="st0" points="573.6,215.6 569.3,235 573.5,235 577.9,215.6 "/>
<polygon class="st1" points="573.6,215.6 569.3,235 573.5,235 577.9,215.6 "/>
<polygon class="st0" points="585.6,215.6 581.3,215.6 577,235 590.9,235 591.8,231.1 582.1,231.1 "/>
<polygon class="st1" points="585.6,215.6 581.3,215.6 577,235 590.9,235 591.8,231.1 582.1,231.1 "/>
<polygon class="st0" points="607.8,227.1 608.6,223.3 599.5,223.3 600.4,219.4 610.8,219.4 611.6,215.6 597,215.6 592.7,235 
	607.4,235 608.3,231.2 597.8,231.2 598.7,227.1 "/>
<polygon class="st1" points="607.8,227.1 608.6,223.3 599.5,223.3 600.4,219.4 610.8,219.4 611.6,215.6 597,215.6 592.7,235 
	607.4,235 608.3,231.2 597.8,231.2 598.7,227.1 "/>
<path class="st0" d="M616.7,220.8c0.1-0.5,0.4-0.9,0.9-1.2c0.5-0.3,1.1-0.5,2-0.5c0.8,0,1.6,0.2,2.4,0.5c0.8,0.3,1.5,0.8,2.2,1.4
	l2.9-3.2c-0.8-0.8-1.8-1.4-2.9-1.8c-1.1-0.4-2.4-0.6-3.8-0.6c-1,0-1.9,0.1-2.8,0.4c-0.9,0.3-1.7,0.7-2.4,1.2
	c-0.7,0.5-1.3,1.1-1.8,1.8c-0.5,0.7-0.8,1.5-1,2.4l0,0.1c-0.2,1-0.2,1.8-0.1,2.4c0.2,0.6,0.5,1.2,0.9,1.6c0.5,0.4,1.1,0.8,1.8,1.1
	c0.7,0.3,1.6,0.6,2.5,0.8c0.8,0.2,1.4,0.4,1.9,0.6c0.5,0.2,0.8,0.4,1.1,0.6c0.2,0.2,0.4,0.4,0.4,0.6c0.1,0.2,0.1,0.5,0,0.7l0,0.1
	c-0.1,0.6-0.5,1-1,1.3c-0.6,0.3-1.3,0.5-2.2,0.5c-1.1,0-2.1-0.2-2.9-0.6c-0.8-0.4-1.6-1-2.3-1.7l-3.2,3c0.9,1.1,2,1.8,3.3,2.3
	c1.3,0.5,2.7,0.8,4.2,0.8c1.1,0,2-0.1,3-0.4c0.9-0.3,1.8-0.7,2.5-1.2c0.7-0.5,1.4-1.1,1.9-1.9c0.5-0.7,0.9-1.6,1.1-2.6l0-0.1
	c0.2-0.8,0.2-1.6,0.1-2.2s-0.4-1.1-0.8-1.6s-1-0.8-1.7-1.2c-0.7-0.3-1.5-0.6-2.4-0.9c-0.8-0.2-1.4-0.4-1.9-0.6
	c-0.5-0.2-0.9-0.3-1.2-0.5c-0.3-0.2-0.4-0.4-0.5-0.6C616.6,221.4,616.6,221.2,616.7,220.8L616.7,220.8z"/>
<path class="st1" d="M616.7,220.8c0.1-0.5,0.4-0.9,0.9-1.2c0.5-0.3,1.1-0.5,2-0.5c0.8,0,1.6,0.2,2.4,0.5c0.8,0.3,1.5,0.8,2.2,1.4
	l2.9-3.2c-0.8-0.8-1.8-1.4-2.9-1.8c-1.1-0.4-2.4-0.6-3.8-0.6c-1,0-1.9,0.1-2.8,0.4c-0.9,0.3-1.7,0.7-2.4,1.2
	c-0.7,0.5-1.3,1.1-1.8,1.8c-0.5,0.7-0.8,1.5-1,2.4l0,0.1c-0.2,1-0.2,1.8-0.1,2.4c0.2,0.6,0.5,1.2,0.9,1.6c0.5,0.4,1.1,0.8,1.8,1.1
	c0.7,0.3,1.6,0.6,2.5,0.8c0.8,0.2,1.4,0.4,1.9,0.6c0.5,0.2,0.8,0.4,1.1,0.6c0.2,0.2,0.4,0.4,0.4,0.6c0.1,0.2,0.1,0.5,0,0.7l0,0.1
	c-0.1,0.6-0.5,1-1,1.3c-0.6,0.3-1.3,0.5-2.2,0.5c-1.1,0-2.1-0.2-2.9-0.6c-0.8-0.4-1.6-1-2.3-1.7l-3.2,3c0.9,1.1,2,1.8,3.3,2.3
	c1.3,0.5,2.7,0.8,4.2,0.8c1.1,0,2-0.1,3-0.4c0.9-0.3,1.8-0.7,2.5-1.2c0.7-0.5,1.4-1.1,1.9-1.9c0.5-0.7,0.9-1.6,1.1-2.6l0-0.1
	c0.2-0.8,0.2-1.6,0.1-2.2s-0.4-1.1-0.8-1.6s-1-0.8-1.7-1.2c-0.7-0.3-1.5-0.6-2.4-0.9c-0.8-0.2-1.4-0.4-1.9-0.6
	c-0.5-0.2-0.9-0.3-1.2-0.5c-0.3-0.2-0.4-0.4-0.5-0.6C616.6,221.4,616.6,221.2,616.7,220.8L616.7,220.8z"/>
<polygon class="st0" points="428.1,74.3 391,74.3 388.3,85.4 425.4,85.4 "/>
<polygon class="st1" points="428.1,74.3 391,74.3 388.3,85.4 425.4,85.4 "/>
<path class="st0" d="M245.9,171.9c6.2,0,12.1-0.6,17.7-1.8l-7,31.5h37.1l7.1-31.7h7.6h0.3l13.8,31.7h39.8h2.5h34.6l3-13.3
	c5.1,4.6,11.4,8.2,18.8,10.7c9.1,3.1,19.3,4.7,30.6,4.7c7.4,0,14.3-0.9,20.8-2.6c6.5-1.7,12.2-4.2,17.1-7.5
	c4.9-3.2,9.1-7.2,12.5-11.8c3.4-4.6,5.7-9.9,7-15.7l0.1-0.3c1.2-5.6,1.2-10.3-0.2-14.3c-1.4-3.9-3.9-7.3-7.4-10.1
	c-3.6-2.8-8-5.1-13.4-6.9c-5.4-1.8-11.5-3.3-18.3-4.6c-2.8-0.5-5.2-1.1-6.9-1.6c-1.8-0.5-3.2-1.1-4.1-1.7c-1-0.6-1.6-1.2-1.9-1.8
	c-0.3-0.6-0.3-1.3-0.2-2.1l0.1-0.3c0.3-1.4,1.2-2.5,2.7-3.3c1.5-0.8,3.6-1.3,6.4-1.3c5.2,0,10.5,0.9,16,2.6
	c5.5,1.7,10.4,4.5,14.9,8.3l23.7-25c-5.3-5.1-11.7-8.9-19.2-11.4c-7.5-2.5-16.7-3.8-27.5-3.8c-7.6,0-14.5,1-20.8,2.9
	c-6.3,1.9-11.8,4.5-16.5,7.9c-4.7,3.4-8.6,7.4-11.7,11.9c-3.1,4.5-5.2,9.5-6.4,14.7l-0.1,0.3c-1.3,5.9-1.2,10.9,0.5,14.8
	c1.7,4,4.3,7.3,8,9.9c3.7,2.6,8.2,4.8,13.5,6.5c5.3,1.7,10.9,3.2,16.8,4.4c5.7,1.2,9.5,2.3,11.4,3.3c1.9,1.1,2.7,2.4,2.4,4l-0.1,0.3
	c-0.3,1.5-1.3,2.7-3,3.5c-1.7,0.8-4.2,1.3-7.6,1.3c-6.5,0-12.9-1-19.1-3c-6.2-2-11.8-5.3-16.8-10L404.2,180l19.9-89.4h-37.1
	l-23.9,107.2l-15.7-34c7.5-3.3,13.8-7.7,19-13.3c5.2-5.6,8.6-12.5,10.5-20.6l0.1-0.3c1.3-5.7,1.5-10.7,0.8-14.9
	c-0.7-4.2-2.4-8-5.1-11.4c-3-3.9-7.5-7-13.4-9.3c-5.9-2.3-13.8-3.4-23.7-3.4h-54.2l-0.4,2c-4.9-1.1-10.2-1.6-16.2-1.6h-49.9
	L197,170.8c1.7-7.5,0.8-13.4-2.5-17.5c-3.3-4.1-8.4-7.2-15.1-9.4c6.5-2.1,12-5.2,16.5-9.3c4.5-4.1,7.5-9.4,9-16.1l0.1-0.3
	c0.8-3.8,1-7.1,0.3-10c-0.6-2.9-1.7-5.3-3.3-7.3c-2.5-3.3-6.1-5.8-10.8-7.4c-4.6-1.7-10.8-2.5-18.5-2.5h-62.1L85.7,202h61.6
	c7,0,13.3-0.8,19-2.3c5.7-1.5,10.6-3.7,14.8-6.4c4.2-2.7,7.6-6,10.3-9.7c2.6-3.7,4.4-7.9,5.4-12.3l0-0.1L190,202h37.1l6.7-30.1
	H245.9z M327.7,121.7c4.3,0,7.6,0.9,9.7,2.6c2.1,1.7,2.8,4.4,2,8l-0.1,0.3c-0.8,3.4-2.6,6-5.6,7.9c-3,1.9-6.7,2.8-11.1,2.8h-16
	l4.8-21.7H327.7z M245.3,120.7h10.1c5,0,8.6,1,10.9,3.1c2.3,2.1,3,5.1,2.1,9.1l-0.1,0.3c-0.9,4-3,7.1-6.4,9.1
	c-3.4,2.1-7.4,3.1-12.2,3.1h-10L245.3,120.7z M160.8,165.5l-0.1,0.3c-0.6,2.4-2,4.4-4.4,5.9c-2.4,1.5-5.6,2.2-9.6,2.2h-18.5
	l3.7-16.5h18.7c4,0,6.9,0.7,8.5,2.2C160.7,161.1,161.3,163.1,160.8,165.5 M166.6,126.7l-0.1,0.3c-1.1,5.1-5.6,7.6-13.4,7.6h-16.2
	l3.5-15.5h16C164.3,119.1,167.7,121.6,166.6,126.7"/>
<path class="st1" d="M245.9,171.9c6.2,0,12.1-0.6,17.7-1.8l-7,31.5h37.1l7.1-31.7h7.6h0.3l13.8,31.7h39.8h2.5h34.6l3-13.3
	c5.1,4.6,11.4,8.2,18.8,10.7c9.1,3.1,19.3,4.7,30.6,4.7c7.4,0,14.3-0.9,20.8-2.6c6.5-1.7,12.2-4.2,17.1-7.5
	c4.9-3.2,9.1-7.2,12.5-11.8c3.4-4.6,5.7-9.9,7-15.7l0.1-0.3c1.2-5.6,1.2-10.3-0.2-14.3c-1.4-3.9-3.9-7.3-7.4-10.1
	c-3.6-2.8-8-5.1-13.4-6.9c-5.4-1.8-11.5-3.3-18.3-4.6c-2.8-0.5-5.2-1.1-6.9-1.6c-1.8-0.5-3.2-1.1-4.1-1.7c-1-0.6-1.6-1.2-1.9-1.8
	c-0.3-0.6-0.3-1.3-0.2-2.1l0.1-0.3c0.3-1.4,1.2-2.5,2.7-3.3c1.5-0.8,3.6-1.3,6.4-1.3c5.2,0,10.5,0.9,16,2.6
	c5.5,1.7,10.4,4.5,14.9,8.3l23.7-25c-5.3-5.1-11.7-8.9-19.2-11.4c-7.5-2.5-16.7-3.8-27.5-3.8c-7.6,0-14.5,1-20.8,2.9
	c-6.3,1.9-11.8,4.5-16.5,7.9c-4.7,3.4-8.6,7.4-11.7,11.9c-3.1,4.5-5.2,9.5-6.4,14.7l-0.1,0.3c-1.3,5.9-1.2,10.9,0.5,14.8
	c1.7,4,4.3,7.3,8,9.9c3.7,2.6,8.2,4.8,13.5,6.5c5.3,1.7,10.9,3.2,16.8,4.4c5.7,1.2,9.5,2.3,11.4,3.3c1.9,1.1,2.7,2.4,2.4,4l-0.1,0.3
	c-0.3,1.5-1.3,2.7-3,3.5c-1.7,0.8-4.2,1.3-7.6,1.3c-6.5,0-12.9-1-19.1-3c-6.2-2-11.8-5.3-16.8-10L404.2,180l19.9-89.4h-37.1
	l-23.9,107.2l-15.7-34c7.5-3.3,13.8-7.7,19-13.3c5.2-5.6,8.6-12.5,10.5-20.6l0.1-0.3c1.3-5.7,1.5-10.7,0.8-14.9
	c-0.7-4.2-2.4-8-5.1-11.4c-3-3.9-7.5-7-13.4-9.3c-5.9-2.3-13.8-3.4-23.7-3.4h-54.2l-0.4,2c-4.9-1.1-10.2-1.6-16.2-1.6h-49.9
	L197,170.8c1.7-7.5,0.8-13.4-2.5-17.5c-3.3-4.1-8.4-7.2-15.1-9.4c6.5-2.1,12-5.2,16.5-9.3c4.5-4.1,7.5-9.4,9-16.1l0.1-0.3
	c0.8-3.8,1-7.1,0.3-10c-0.6-2.9-1.7-5.3-3.3-7.3c-2.5-3.3-6.1-5.8-10.8-7.4c-4.6-1.7-10.8-2.5-18.5-2.5h-62.1L85.7,202h61.6
	c7,0,13.3-0.8,19-2.3c5.7-1.5,10.6-3.7,14.8-6.4c4.2-2.7,7.6-6,10.3-9.7c2.6-3.7,4.4-7.9,5.4-12.3l0-0.1L190,202h37.1l6.7-30.1
	H245.9z M327.7,121.7c4.3,0,7.6,0.9,9.7,2.6c2.1,1.7,2.8,4.4,2,8l-0.1,0.3c-0.8,3.4-2.6,6-5.6,7.9c-3,1.9-6.7,2.8-11.1,2.8h-16
	l4.8-21.7H327.7z M245.3,120.7h10.1c5,0,8.6,1,10.9,3.1c2.3,2.1,3,5.1,2.1,9.1l-0.1,0.3c-0.9,4-3,7.1-6.4,9.1
	c-3.4,2.1-7.4,3.1-12.2,3.1h-10L245.3,120.7z M160.8,165.5l-0.1,0.3c-0.6,2.4-2,4.4-4.4,5.9c-2.4,1.5-5.6,2.2-9.6,2.2h-18.5
	l3.7-16.5h18.7c4,0,6.9,0.7,8.5,2.2C160.7,161.1,161.3,163.1,160.8,165.5z M166.6,126.7l-0.1,0.3c-1.1,5.1-5.6,7.6-13.4,7.6h-16.2
	l3.5-15.5h16C164.3,119.1,167.7,121.6,166.6,126.7z"/>
<path class="st0" d="M778.5,70.9h7.6c-35.6-18.9-96.6-18.9-136.3,0h7.6l-0.5,4.4c-9.9,43.6-17.6,114.3-17,157.9l-0.7,6.3h19.6
	l0.7-6.3h82l-0.7,6.3h19.6l0.7-6.3v0c10-43.6,17.6-114.3,17-157.9L778.5,70.9z"/>
<path class="st1" d="M778.5,70.9h7.6c-35.6-18.9-96.6-18.9-136.3,0h7.6l-0.5,4.4c-9.9,43.6-17.6,114.3-17,157.9l-0.7,6.3h19.6
	l0.7-6.3h82l-0.7,6.3h19.6l0.7-6.3v0c10-43.6,17.6-114.3,17-157.9L778.5,70.9z"/>
<polygon class="st0" points="83.8,211.7 77.9,239.5 148.4,239.5 154.3,211.7 "/>
<polygon class="st1" points="83.8,211.7 77.9,239.5 148.4,239.5 154.3,211.7 "/>
<path class="st0" d="M281.3,90.6h54.2c9.9,0,17.8,1.1,23.7,3.4c5.9,2.3,10.4,5.4,13.4,9.3c2.6,3.4,4.3,7.2,5.1,11.4
	c0.7,4.2,0.5,9.2-0.8,14.9l-0.1,0.3c-1.8,8.1-5.3,15-10.5,20.6c-5.2,5.6-11.5,10-19,13.3l17.4,37.7h-42.3l-13.8-31.7h-0.3h-7.6
	l-7.1,31.7h-37.1L281.3,90.6z M322.7,143.4c4.4,0,8.1-0.9,11.1-2.8c3-1.9,4.8-4.5,5.6-7.9l0.1-0.3c0.8-3.6,0.1-6.3-2-8
	c-2.2-1.7-5.4-2.6-9.7-2.6h-16.2l-4.8,21.7H322.7z"/>
<polygon class="st0" points="387.1,90.6 424.1,90.6 399.4,201.6 362.3,201.6 "/>
<path class="st0" d="M451.7,203.6c-11.3,0-21.5-1.5-30.6-4.7c-9.1-3.1-16.5-7.8-22.1-14l25.1-23.6c5,4.7,10.6,8,16.8,10
	c6.2,2,12.6,3,19.1,3c3.4,0,5.9-0.4,7.6-1.3c1.7-0.8,2.7-2,3-3.5l0.1-0.3c0.4-1.6-0.4-2.9-2.4-4c-1.9-1.1-5.7-2.2-11.4-3.3
	c-6-1.3-11.6-2.7-16.8-4.4c-5.3-1.7-9.8-3.9-13.5-6.5c-3.7-2.6-6.4-5.9-8-9.9c-1.6-4-1.8-8.9-0.5-14.8l0.1-0.3
	c1.2-5.3,3.3-10.2,6.4-14.7c3.1-4.5,7-8.5,11.7-11.9c4.7-3.4,10.2-6,16.5-7.9c6.3-1.9,13.2-2.9,20.8-2.9c10.8,0,19.9,1.3,27.5,3.8
	c7.5,2.5,13.9,6.3,19.2,11.4l-23.7,25c-4.4-3.8-9.4-6.6-14.9-8.3c-5.5-1.7-10.8-2.6-16-2.6c-2.7,0-4.9,0.4-6.4,1.3
	c-1.5,0.8-2.4,2-2.7,3.3l-0.1,0.3c-0.2,0.7-0.1,1.4,0.2,2.1c0.3,0.6,0.9,1.2,1.9,1.8c1,0.6,2.4,1.1,4.1,1.7c1.8,0.5,4.1,1.1,6.9,1.6
	c6.8,1.3,12.9,2.8,18.3,4.6c5.4,1.8,9.9,4.1,13.4,6.9c3.5,2.8,6,6.2,7.4,10.1c1.4,3.9,1.5,8.7,0.2,14.3l-0.1,0.3
	c-1.3,5.8-3.6,11-7,15.7c-3.4,4.7-7.5,8.6-12.5,11.8c-4.9,3.2-10.7,5.7-17.1,7.5C466,202.7,459.1,203.6,451.7,203.6"/>
<path class="st0" d="M565.4,89.8h36.8L624,201.6h-40.3l-2.5-14.9h-38.8l-9,14.9h-39.6L565.4,89.8z M577.8,160.4l-4.1-26.9
	l-16.2,26.9H577.8z"/>
<path class="st0" d="M158.5,215.6h7.5c1.5,0,2.8,0.2,4,0.7c1.2,0.5,2.1,1.2,2.8,2c0.7,0.9,1.2,1.9,1.4,3.1c0.2,1.2,0.2,2.4-0.1,3.8
	l0,0.1c-0.3,1.4-0.8,2.6-1.6,3.8c-0.8,1.2-1.7,2.2-2.8,3.1c-1.1,0.9-2.3,1.5-3.7,2c-1.4,0.5-2.8,0.7-4.3,0.7h-7.5L158.5,215.6z
	 M162.6,231.1c0.9,0,1.7-0.1,2.5-0.4c0.8-0.3,1.5-0.7,2.1-1.2c0.6-0.5,1.2-1.1,1.6-1.8c0.4-0.7,0.8-1.5,1-2.3l0-0.1
	c0.2-0.8,0.2-1.6,0.1-2.4c-0.1-0.7-0.4-1.3-0.8-1.9c-0.4-0.5-0.9-0.9-1.6-1.2c-0.7-0.3-1.4-0.4-2.3-0.4h-3.3l-2.6,11.7H162.6z"/>
<polygon class="st0" points="178.7,215.6 193.3,215.6 192.4,219.4 182.1,219.4 181.2,223.3 190.3,223.3 189.5,227.1 180.4,227.1 
	179.4,231.2 189.9,231.2 189.1,235 174.4,235 "/>
<path class="st0" d="M198.4,235.3c-1.5,0-2.9-0.3-4.2-0.8c-1.3-0.5-2.4-1.3-3.3-2.3l3.2-3c0.7,0.7,1.5,1.3,2.3,1.7
	c0.8,0.4,1.8,0.6,2.9,0.6c0.9,0,1.6-0.2,2.2-0.5c0.6-0.3,0.9-0.8,1-1.3l0-0.1c0.1-0.3,0.1-0.5,0-0.7c-0.1-0.2-0.2-0.4-0.4-0.6
	c-0.2-0.2-0.6-0.4-1.1-0.6c-0.5-0.2-1.1-0.4-1.9-0.6c-0.9-0.2-1.8-0.5-2.5-0.8c-0.7-0.3-1.3-0.7-1.8-1.1c-0.5-0.4-0.8-1-0.9-1.6
	c-0.2-0.6-0.1-1.4,0.1-2.4l0-0.1c0.2-0.9,0.5-1.7,1-2.4c0.5-0.7,1.1-1.3,1.8-1.8c0.7-0.5,1.5-0.9,2.4-1.2c0.9-0.3,1.8-0.4,2.8-0.4
	c1.4,0,2.7,0.2,3.8,0.6c1.1,0.4,2,1,2.9,1.8l-2.9,3.2c-0.7-0.6-1.5-1.1-2.2-1.4c-0.8-0.3-1.5-0.5-2.4-0.5c-0.8,0-1.5,0.2-2,0.5
	c-0.5,0.3-0.8,0.7-0.9,1.2l0,0.1c-0.1,0.3-0.1,0.6,0,0.8c0.1,0.2,0.2,0.4,0.5,0.6c0.3,0.2,0.7,0.4,1.2,0.5c0.5,0.2,1.2,0.4,1.9,0.6
	c0.9,0.3,1.7,0.5,2.4,0.9c0.7,0.3,1.3,0.7,1.7,1.2c0.4,0.5,0.7,1,0.8,1.6c0.1,0.6,0.1,1.3-0.1,2.2l0,0.1c-0.2,1-0.6,1.8-1.1,2.6
	c-0.5,0.7-1.1,1.4-1.9,1.9c-0.7,0.5-1.6,0.9-2.5,1.2C200.4,235.1,199.4,235.3,198.4,235.3"/>
<path class="st0" d="M218.8,215.5h3.9l3.9,19.5h-4.4l-0.8-4.3h-8.2l-2.7,4.3h-4.3L218.8,215.5z M220.8,226.9l-1.2-6.3l-4,6.3H220.8z
	"/>
<polygon class="st0" points="228.4,231.7 241.8,219.4 231.5,219.4 232.4,215.6 248.1,215.6 247.4,218.9 234,231.2 244.7,231.2 
	243.8,235 227.7,235 "/>
<path class="st0" d="M255.8,235.3c-1.5,0-2.8-0.3-3.9-0.8c-1.1-0.5-2.1-1.2-2.8-2.1c-0.7-0.9-1.2-1.9-1.4-3.1
	c-0.2-1.2-0.2-2.5,0.1-3.9l0-0.1c0.3-1.4,0.9-2.7,1.6-3.9c0.8-1.2,1.7-2.3,2.9-3.2c1.1-0.9,2.4-1.6,3.7-2.2c1.4-0.5,2.8-0.8,4.3-0.8
	c1.5,0,2.8,0.3,3.9,0.8c1.1,0.5,2.1,1.2,2.8,2.1c0.7,0.9,1.2,1.9,1.4,3.2c0.2,1.2,0.2,2.5-0.1,3.9l0,0.1c-0.3,1.4-0.9,2.7-1.6,3.9
	c-0.8,1.2-1.7,2.3-2.8,3.2c-1.1,0.9-2.4,1.6-3.7,2.2C258.7,235,257.3,235.3,255.8,235.3 M256.7,231.4c0.8,0,1.7-0.2,2.5-0.5
	c0.8-0.3,1.5-0.7,2.1-1.3c0.6-0.6,1.2-1.2,1.6-1.9c0.4-0.7,0.8-1.5,0.9-2.3l0-0.1c0.2-0.8,0.2-1.6,0.1-2.4c-0.1-0.7-0.4-1.4-0.8-1.9
	c-0.4-0.6-0.9-1-1.6-1.3c-0.6-0.3-1.4-0.5-2.2-0.5c-0.9,0-1.7,0.2-2.5,0.5c-0.8,0.3-1.5,0.7-2.1,1.3c-0.6,0.6-1.2,1.2-1.6,1.9
	c-0.4,0.7-0.8,1.5-0.9,2.3l0,0.1c-0.2,0.8-0.2,1.6-0.1,2.3c0.1,0.7,0.4,1.4,0.8,1.9c0.4,0.6,0.9,1,1.6,1.3
	C255.1,231.2,255.9,231.4,256.7,231.4"/>
<polygon class="st0" points="272.9,215.6 277.2,215.6 273.7,231.1 283.3,231.1 282.5,235 268.6,235 "/>
<polygon class="st0" points="287,215.6 291.7,215.6 293.7,229.3 301.8,215.6 306.4,215.6 294.2,235.1 290.4,235.1 "/>
<polygon class="st0" points="308,215.6 322.5,215.6 321.7,219.4 311.3,219.4 310.4,223.3 319.6,223.3 318.7,227.1 309.6,227.1 
	308.7,231.2 319.2,231.2 318.4,235 303.7,235 "/>
<polygon class="st0" points="334.8,227.3 330,215.6 335,215.6 337.9,223.4 344.3,215.6 349.1,215.6 339.1,227.3 337.4,235 
	333.1,235 "/>
<path class="st0" d="M357.3,215.6h9c2.2,0,3.8,0.6,4.7,1.7c0.7,0.9,0.9,2,0.6,3.3l0,0.1c-0.1,0.6-0.3,1-0.5,1.5
	c-0.2,0.4-0.5,0.8-0.8,1.1c-0.3,0.3-0.6,0.6-1,0.9c-0.4,0.3-0.7,0.5-1.1,0.7c1,0.4,1.8,1,2.3,1.7c0.5,0.7,0.6,1.7,0.3,3l0,0.1
	c-0.2,0.9-0.5,1.7-1,2.3c-0.5,0.7-1.1,1.2-1.8,1.7c-0.7,0.4-1.6,0.8-2.5,1c-0.9,0.2-2,0.3-3,0.3H353L357.3,215.6z M363,231.2
	c0.9,0,1.7-0.2,2.3-0.5c0.6-0.3,1-0.9,1.2-1.6l0-0.1c0.1-0.6,0-1.2-0.4-1.5c-0.4-0.4-1.2-0.6-2.3-0.6h-4.9l-0.9,4.3H363z
	 M363.6,223.5c0.9,0,1.7-0.2,2.3-0.5c0.6-0.3,1-0.8,1.2-1.6l0-0.1c0.1-0.6,0-1.1-0.4-1.5c-0.4-0.3-1.1-0.5-2-0.5h-4.2l-0.9,4.1
	H363.6z"/>
<path class="st0" d="M382.6,215.5h3.9l3.9,19.5H386l-0.8-4.3H377l-2.7,4.3h-4.3L382.6,215.5z M384.5,226.9l-1.2-6.3l-4,6.3H384.5z"
	/>
<path class="st0" d="M396.3,215.6h3.9l6.4,11.9l2.7-11.9h4.2l-4.3,19.3h-3.6l-6.6-12.3l-2.7,12.3H392L396.3,215.6z M399.7,213.7
	c0.3-0.6,0.6-1.1,0.9-1.6c0.3-0.5,0.6-0.9,1-1.2c0.3-0.3,0.7-0.6,1.1-0.8c0.4-0.2,0.8-0.3,1.3-0.3c0.4,0,0.8,0.1,1.2,0.2
	c0.4,0.1,0.7,0.2,1,0.4c0.3,0.1,0.6,0.3,0.9,0.4c0.3,0.1,0.5,0.2,0.8,0.2c0.4,0,0.8-0.1,1-0.3c0.3-0.2,0.5-0.6,0.8-1l2.1,0.7
	c-0.6,1.2-1.2,2.1-1.8,2.8c-0.7,0.7-1.5,1-2.4,1c-0.4,0-0.8-0.1-1.2-0.2c-0.4-0.1-0.7-0.2-1-0.4c-0.3-0.1-0.6-0.3-0.9-0.4
	c-0.3-0.1-0.5-0.2-0.8-0.2c-0.4,0-0.8,0.1-1,0.3c-0.3,0.2-0.5,0.6-0.8,1L399.7,213.7z"/>
<path class="st0" d="M421.8,235.3c-1.5,0-2.8-0.3-3.9-0.8c-1.1-0.5-2.1-1.2-2.8-2.1c-0.7-0.9-1.2-1.9-1.4-3.1
	c-0.2-1.2-0.2-2.5,0.1-3.9l0-0.1c0.3-1.4,0.9-2.7,1.6-3.9c0.8-1.2,1.7-2.3,2.9-3.2c1.1-0.9,2.4-1.6,3.7-2.2c1.4-0.5,2.8-0.8,4.3-0.8
	c1.5,0,2.8,0.3,3.9,0.8c1.1,0.5,2.1,1.2,2.8,2.1c0.7,0.9,1.2,1.9,1.4,3.2c0.2,1.2,0.2,2.5-0.1,3.9l0,0.1c-0.3,1.4-0.9,2.7-1.6,3.9
	c-0.8,1.2-1.7,2.3-2.8,3.2c-1.1,0.9-2.4,1.6-3.7,2.2C424.7,235,423.3,235.3,421.8,235.3 M422.7,231.4c0.8,0,1.7-0.2,2.5-0.5
	c0.8-0.3,1.5-0.7,2.1-1.3c0.6-0.6,1.2-1.2,1.6-1.9c0.4-0.7,0.8-1.5,0.9-2.3l0-0.1c0.2-0.8,0.2-1.6,0.1-2.4c-0.1-0.7-0.4-1.4-0.8-1.9
	c-0.4-0.6-0.9-1-1.6-1.3c-0.6-0.3-1.4-0.5-2.2-0.5c-0.9,0-1.7,0.2-2.5,0.5c-0.8,0.3-1.5,0.7-2.1,1.3c-0.6,0.6-1.2,1.2-1.6,1.9
	c-0.4,0.7-0.8,1.5-0.9,2.3l0,0.1c-0.2,0.8-0.2,1.6-0.1,2.3c0.1,0.7,0.4,1.4,0.8,1.9s0.9,1,1.6,1.3
	C421.1,231.2,421.9,231.4,422.7,231.4"/>
<path class="st0" d="M441.4,235.3c-1.5,0-2.9-0.3-4.2-0.8c-1.3-0.5-2.4-1.3-3.3-2.3l3.2-3c0.7,0.7,1.5,1.3,2.3,1.7
	c0.8,0.4,1.8,0.6,2.9,0.6c0.9,0,1.6-0.2,2.2-0.5c0.6-0.3,0.9-0.8,1-1.3l0-0.1c0.1-0.3,0.1-0.5,0-0.7c-0.1-0.2-0.2-0.4-0.4-0.6
	c-0.2-0.2-0.6-0.4-1.1-0.6c-0.5-0.2-1.1-0.4-1.9-0.6c-0.9-0.2-1.8-0.5-2.5-0.8c-0.7-0.3-1.3-0.7-1.8-1.1c-0.5-0.4-0.8-1-0.9-1.6
	c-0.2-0.6-0.1-1.4,0.1-2.4l0-0.1c0.2-0.9,0.5-1.7,1-2.4c0.5-0.7,1.1-1.3,1.8-1.8c0.7-0.5,1.5-0.9,2.4-1.2c0.9-0.3,1.8-0.4,2.8-0.4
	c1.4,0,2.7,0.2,3.8,0.6c1.1,0.4,2,1,2.9,1.8l-2.9,3.2c-0.7-0.6-1.5-1.1-2.2-1.4c-0.8-0.3-1.5-0.5-2.4-0.5c-0.8,0-1.5,0.2-2,0.5
	c-0.5,0.3-0.8,0.7-0.9,1.2l0,0.1c-0.1,0.3-0.1,0.6,0,0.8c0.1,0.2,0.2,0.4,0.5,0.6c0.3,0.2,0.7,0.4,1.2,0.5c0.5,0.2,1.2,0.4,1.9,0.6
	c0.9,0.3,1.7,0.5,2.4,0.9c0.7,0.3,1.3,0.7,1.7,1.2c0.4,0.5,0.7,1,0.8,1.6s0.1,1.3-0.1,2.2l0,0.1c-0.2,1-0.6,1.8-1.1,2.6
	c-0.5,0.7-1.1,1.4-1.9,1.9c-0.7,0.5-1.6,0.9-2.5,1.2C443.5,235.1,442.5,235.3,441.4,235.3"/>
<path class="st0" d="M462.1,215.6h7.9c1.2,0,2.2,0.2,3,0.5c0.8,0.3,1.5,0.8,2,1.4c0.5,0.6,0.8,1.3,1,2.1c0.2,0.8,0.1,1.7-0.1,2.7
	l0,0.1c-0.3,1.1-0.7,2.1-1.3,3c-0.6,0.8-1.3,1.6-2.1,2.1c-0.8,0.6-1.8,1-2.8,1.3c-1,0.3-2.1,0.4-3.1,0.4h-3.2l-1.3,5.8h-4.3
	L462.1,215.6z M467.6,225.4c1.1,0,2-0.3,2.7-0.8c0.7-0.6,1.2-1.3,1.4-2.1l0-0.1c0.2-1,0.1-1.7-0.4-2.2c-0.5-0.5-1.3-0.7-2.4-0.7
	h-3.3l-1.3,5.9H467.6z"/>
<path class="st0" d="M484.2,235.3c-1.5,0-2.8-0.3-3.9-0.8c-1.1-0.5-2.1-1.2-2.8-2.1c-0.7-0.9-1.2-1.9-1.4-3.1
	c-0.2-1.2-0.2-2.5,0.1-3.9l0-0.1c0.3-1.4,0.9-2.7,1.6-3.9c0.8-1.2,1.7-2.3,2.9-3.2c1.1-0.9,2.4-1.6,3.7-2.2c1.4-0.5,2.8-0.8,4.3-0.8
	c1.5,0,2.8,0.3,3.9,0.8c1.1,0.5,2.1,1.2,2.8,2.1c0.7,0.9,1.2,1.9,1.4,3.2c0.2,1.2,0.2,2.5-0.1,3.9l0,0.1c-0.3,1.4-0.9,2.7-1.6,3.9
	c-0.8,1.2-1.7,2.3-2.8,3.2c-1.1,0.9-2.4,1.6-3.7,2.2C487.1,235,485.7,235.3,484.2,235.3 M485.1,231.4c0.8,0,1.7-0.2,2.5-0.5
	c0.8-0.3,1.5-0.7,2.1-1.3c0.6-0.6,1.2-1.2,1.6-1.9c0.4-0.7,0.8-1.5,0.9-2.3l0-0.1c0.2-0.8,0.2-1.6,0.1-2.4c-0.1-0.7-0.4-1.4-0.8-1.9
	c-0.4-0.6-0.9-1-1.6-1.3c-0.6-0.3-1.4-0.5-2.2-0.5c-0.9,0-1.7,0.2-2.5,0.5c-0.8,0.3-1.5,0.7-2.1,1.3c-0.6,0.6-1.2,1.2-1.6,1.9
	c-0.4,0.7-0.8,1.5-0.9,2.3l0,0.1c-0.2,0.8-0.2,1.6-0.1,2.3c0.1,0.7,0.4,1.4,0.8,1.9s0.9,1,1.6,1.3
	C483.5,231.2,484.3,231.4,485.1,231.4"/>
<path class="st0" d="M501.3,215.6h8.8c2.5,0,4.2,0.7,5.2,2c0.9,1.1,1.1,2.6,0.7,4.4l0,0.1c-0.3,1.6-1,2.8-2,3.8
	c-1,1-2.1,1.7-3.5,2.2l3.2,6.9h-5l-2.8-6.2h-0.1h-3.3l-1.4,6.2H497L501.3,215.6z M507.8,225c1,0,1.9-0.2,2.6-0.7
	c0.7-0.5,1.1-1.2,1.3-2l0-0.1c0.2-0.9,0.1-1.6-0.4-2.1c-0.5-0.5-1.3-0.7-2.3-0.7h-4.2l-1.2,5.6H507.8z"/>
<polygon class="st0" points="523.5,219.6 517.6,219.6 518.5,215.6 534.6,215.6 533.7,219.6 527.8,219.6 524.3,235 520.1,235 "/>
<path class="st0" d="M543.1,215.5h3.9L551,235h-4.4l-0.8-4.3h-8.2l-2.7,4.3h-4.3L543.1,215.5z M545,226.9l-1.2-6.3l-4,6.3H545z"/>
<polygon class="st0" points="560.5,219.6 554.6,219.6 555.5,215.6 571.5,215.6 570.7,219.6 564.8,219.6 561.3,235 557.1,235 "/>
<polygon class="st0" points="573.6,215.6 577.9,215.6 573.5,235 569.3,235 "/>
<polygon class="st0" points="581.3,215.6 585.6,215.6 582.1,231.1 591.8,231.1 590.9,235 577,235 "/>
<polygon class="st0" points="597,215.6 611.6,215.6 610.8,219.4 600.4,219.4 599.5,223.3 608.6,223.3 607.8,227.1 598.7,227.1 
	597.8,231.2 608.3,231.2 607.4,235 592.7,235 "/>
<path class="st0" d="M616.7,235.3c-1.5,0-2.9-0.3-4.2-0.8c-1.3-0.5-2.4-1.3-3.3-2.3l3.2-3c0.7,0.7,1.5,1.3,2.3,1.7
	c0.8,0.4,1.8,0.6,2.9,0.6c0.9,0,1.6-0.2,2.2-0.5c0.6-0.3,0.9-0.8,1-1.3l0-0.1c0.1-0.3,0.1-0.5,0-0.7c-0.1-0.2-0.2-0.4-0.4-0.6
	c-0.2-0.2-0.6-0.4-1.1-0.6c-0.5-0.2-1.1-0.4-1.9-0.6c-0.9-0.2-1.8-0.5-2.5-0.8c-0.7-0.3-1.3-0.7-1.8-1.1c-0.5-0.4-0.8-1-0.9-1.6
	c-0.2-0.6-0.1-1.4,0.1-2.4l0-0.1c0.2-0.9,0.5-1.7,1-2.4c0.5-0.7,1.1-1.3,1.8-1.8c0.7-0.5,1.5-0.9,2.4-1.2c0.9-0.3,1.8-0.4,2.8-0.4
	c1.4,0,2.7,0.2,3.8,0.6c1.1,0.4,2,1,2.9,1.8l-2.9,3.2c-0.7-0.6-1.5-1.1-2.2-1.4c-0.8-0.3-1.5-0.5-2.4-0.5c-0.8,0-1.5,0.2-2,0.5
	c-0.5,0.3-0.8,0.7-0.9,1.2l0,0.1c-0.1,0.3-0.1,0.6,0,0.8c0.1,0.2,0.2,0.4,0.5,0.6c0.3,0.2,0.7,0.4,1.2,0.5c0.5,0.2,1.2,0.4,1.9,0.6
	c0.9,0.3,1.7,0.5,2.4,0.9c0.7,0.3,1.3,0.7,1.7,1.2c0.4,0.5,0.7,1,0.8,1.6c0.1,0.6,0.1,1.3-0.1,2.2l0,0.1c-0.2,1-0.6,1.8-1.1,2.6
	c-0.5,0.7-1.1,1.4-1.9,1.9c-0.7,0.5-1.6,0.9-2.5,1.2C618.7,235.1,617.8,235.3,616.7,235.3"/>
<polygon class="st0" points="425.4,85.4 428.1,74.3 391,74.3 388.3,85.4 "/>
<path class="st2" d="M110.5,91h62.1c7.7,0,13.9,0.9,18.5,2.5c4.6,1.7,8.2,4.2,10.8,7.4c1.6,2,2.7,4.4,3.3,7.3
	c0.6,2.9,0.5,6.2-0.3,10l-0.1,0.3c-1.5,6.7-4.5,12-9,16.1c-4.5,4.1-10,7.2-16.5,9.3c6.8,2.1,11.8,5.2,15.1,9.4
	c3.3,4.1,4.2,10,2.5,17.6l-0.1,0.3c-1,4.4-2.8,8.5-5.4,12.3c-2.6,3.7-6.1,7-10.3,9.7c-4.2,2.7-9.2,4.9-14.8,6.4
	c-5.7,1.5-12,2.3-19,2.3H85.7L110.5,91z M146.7,173.9c4,0,7.2-0.7,9.6-2.2c2.4-1.5,3.8-3.4,4.4-5.9l0.1-0.3c0.5-2.4,0-4.4-1.7-5.9
	c-1.7-1.5-4.5-2.2-8.5-2.2h-18.7l-3.7,16.5H146.7z M153.1,134.6c7.8,0,12.3-2.5,13.4-7.6l0.1-0.3c1.1-5.1-2.3-7.6-10.2-7.6h-16
	l-3.5,15.5H153.1z"/>
<path class="st2" d="M214.8,91h49.9c7.4,0,13.9,0.8,19.6,2.5c5.7,1.6,10.4,4.1,14,7.4c3.6,3.3,6.1,7.4,7.4,12.4
	c1.3,5,1.2,10.7-0.2,17.3l-0.1,0.3c-1.5,6.7-4,12.5-7.6,17.7c-3.6,5.1-8,9.4-13.2,12.9c-5.2,3.5-11.1,6.1-17.7,7.8
	c-6.6,1.7-13.6,2.6-21.1,2.6h-12l-6.7,30.1H190L214.8,91z M249.7,145.4c4.8,0,8.8-1,12.2-3.1c3.4-2.1,5.5-5.1,6.4-9.1l0.1-0.3
	c0.9-4,0.2-7.1-2.1-9.1c-2.3-2.1-5.9-3.1-10.9-3.1h-10.1l-5.5,24.7H249.7z"/>
<path class="st2" d="M778.1,75.3l0.7-6.1H657.6l-0.7,6.1c-9.9,43.6-17.6,114.3-17,157.9l-0.7,6.3h19.6l0.7-6.3h82l-0.7,6.3h19.6
	l0.7-6.3v0C771,189.6,778.6,118.9,778.1,75.3"/>
<path class="st2" d="M649.8,70.9h136.3C750.5,52,689.5,52,649.8,70.9"/>
<path class="st3" d="M757.6,83.5l0.1-0.9h-0.5c-21.8-5.9-57.9-5.9-81,0h-0.5l-0.1,1.4c-10,38.5-16.6,100.5-14.9,139l-0.1,0.4h82
	C752.7,184.7,759.4,122.1,757.6,83.5"/>
<path class="st2" d="M711.6,152.9l47.8-69.3c0.7-1,0.5-2.4-0.5-3c-1-0.6-2.3-0.2-3,0.8l-46.3,67.2l-31.9-67.2
	c-0.5-1-1.8-1.4-2.9-0.8c-1.1,0.6-1.6,1.9-1.1,3l32.9,69.3l-47.8,69.3c-0.7,1-0.5,2.4,0.5,3c0.3,0.2,0.7,0.3,1.1,0.3
	c0.8,0,1.5-0.4,2-1.1l46.3-67.2l31.9,67.2c0.3,0.7,1,1.1,1.8,1.1c0.4,0,0.8-0.1,1.1-0.3c1.1-0.6,1.6-1.9,1.1-3L711.6,152.9z"/>
<path class="st2" d="M673.4,141.7c-1.9,0-3.6,1.5-3.8,3.4c-0.2,1.9,1.2,3.4,3.1,3.4c1.9,0,3.6-1.5,3.8-3.4
	C676.7,143.3,675.3,141.7,673.4,141.7"/>
<path class="st2" d="M672.3,152.5c-1,0-1.9,0.8-2,1.8l-1.7,15.5c-0.1,1,0.6,1.8,1.6,1.8c1,0,1.9-0.8,2-1.8l1.7-15.5
	C674,153.3,673.3,152.5,672.3,152.5"/>
<polygon class="st0" points="83.8,211.7 154.3,211.7 148.4,239.5 77.9,239.5 "/>
</svg>
