<svg xmlns="http://www.w3.org/2000/svg" viewBox="0 0 136.4 136.4"><defs><style>.cls-1{opacity:0.5;}.cls-2{fill:#fbc326;}.cls-3{fill:#eee;isolation:isolate;opacity:0.1;}.cls-4{fill:#fff;}</style></defs><g id="Layer_2" data-name="Layer 2"><g id="Layer_1-2" data-name="Layer 1"><g id="OBJECTS"><path class="cls-2" d="M163.48,168.4H37.08a5,5,0,0,1-5-5V37a5,5,0,0,1,5-5h126.4a5,5,0,0,1,5,5V163.4A5,5,0,0,1,163.48,168.4Z" transform="translate(-32.08 -32)"/><path class="cls-3" d="M163.48,32A131.45,131.45,0,0,0,32.08,163.4V37a5,5,0,0,1,5-5Z" transform="translate(-32.08 -32)"/><path class="cls-4" d="M71.48,125c-.9-1.7-.9-3.5.1-3.9l5.1-2.4c.9-.4,2.2.4,2.9,1.8s.8,2.9-.1,3.4l-4.6,3.2C74,127.6,72.38,126.7,71.48,125Z" transform="translate(-32.08 -32)"/><path class="cls-4" d="M68.08,117.4c-.7-1.9-.2-3.7.8-3.9l5.5-1.2c1-.2,2,.8,2.5,2.2s.3,2.9-.7,3.3L71,120C70.18,120.5,68.78,119.4,68.08,117.4Z" transform="translate(-32.08 -32)"/><path class="cls-4" d="M66.48,108.8c0-2.3,1.2-4.1,2.2-3.8l5.5,1.1a2.38,2.38,0,0,1,1.6,2.5c0,1.3-.6,2.6-1.6,2.8l-5.5,1C67.68,112.5,66.48,111,66.48,108.8Z" transform="translate(-32.08 -32)"/><path class="cls-4" d="M69.08,99.1a5.15,5.15,0,0,1,2.4-2.1c.8-.3,1.4-.3,1.8.1l3.7,4.2a2.58,2.58,0,0,1,0,2.8,2.5,2.5,0,0,1-2.5,1.2l-5.4-1.6c-.5-.1-.8-.7-.8-1.6A4.14,4.14,0,0,1,69.08,99.1Z" transform="translate(-32.08 -32)"/><path class="cls-4" d="M76.68,92.7a4.74,4.74,0,0,1,2.7-.5,1.66,1.66,0,0,1,1.5.9l1.4,5.4a1.74,1.74,0,0,1-.3,1.4,3,3,0,0,1-1.4,1.1,2.62,2.62,0,0,1-3-.3l-3.4-4.5C73.48,95.5,74.58,93.7,76.68,92.7Z" transform="translate(-32.08 -32)"/><path class="cls-4" d="M86.08,90.8c2.5.2,4.1,1.7,3.7,2.6L88,98.7a2.68,2.68,0,0,1-4.8-.4l-1-5.5C81.88,91.9,83.58,90.6,86.08,90.8Z" transform="translate(-32.08 -32)"/><path class="cls-4" d="M95.28,94.2c1.8,1.3,2.4,3.1,1.7,3.8l-3.9,4.1c-.7.7-2.1.5-3.2-.3a2.34,2.34,0,0,1-1.2-2.8l2.2-5.2C91.38,92.9,93.48,92.9,95.28,94.2Z" transform="translate(-32.08 -32)"/><path class="cls-4" d="M101.58,100.3c1.2,1.5,1.4,3.3.6,3.9l-4.6,3.2c-.8.6-2.2-.1-3.2-1.3s-1.2-2.6-.5-3.3l4-3.9C98.58,98.1,100.28,98.7,101.58,100.3Z" transform="translate(-32.08 -32)"/><path class="cls-4" d="M106.08,106.9c1,1.6,1,3.3.1,3.8l-4.9,2.7c-.9.5-2.3-.3-3.1-1.7s-.9-3-.1-3.5l4.7-3.1C103.58,104.5,105.18,105.3,106.08,106.9Z" transform="translate(-32.08 -32)"/><path class="cls-4" d="M109.88,113.6c.8,1.6.7,3.2-.1,3.7l-5,2.6c-.9.5-2.3-.4-3.1-2s-.7-3.1.1-3.6l4.9-2.7C107.58,111.1,109.08,112,109.88,113.6Z" transform="translate(-32.08 -32)"/><path class="cls-4" d="M113.28,120.2c.8,1.5.7,3-.1,3.5l-4.9,2.8c-.9.5-2.4-.4-3.2-2.1s-.8-3.3.1-3.7l5-2.6C111.08,117.8,112.48,118.7,113.28,120.2Z" transform="translate(-32.08 -32)"/><path class="cls-4" d="M116.68,125.7a2.68,2.68,0,0,1,.5,3.2l-3.8,4.2c-.7.8-2.5.2-3.9-1.5s-1.5-3.5-.6-4l4.8-3C114.48,124.1,115.78,124.7,116.68,125.7Z" transform="translate(-32.08 -32)"/><path class="cls-4" d="M120.88,129.4c1.1.6,1.8,1.7,1.5,2.6l-1.7,5.4c-.3,1-2.3,1.2-4.3.1s-2.8-2.9-2.2-3.7l3.6-4.4A2.69,2.69,0,0,1,120.88,129.4Z" transform="translate(-32.08 -32)"/><path class="cls-4" d="M125.78,130.7a2.47,2.47,0,0,1,2.5,1.5l1.4,5.5c.3,1-1.4,2.3-3.9,2.3s-4.1-1.3-3.8-2.3l1.3-5.5A2.51,2.51,0,0,1,125.78,130.7Z" transform="translate(-32.08 -32)"/><path class="cls-4" d="M130.08,129.4a2.41,2.41,0,0,1,2.8-.1l4.4,3.5c.8.6.2,2.7-1.8,4.2s-4.3,1.3-4.6.3L129,132A2.49,2.49,0,0,1,130.08,129.4Z" transform="translate(-32.08 -32)"/><path class="cls-4" d="M132.68,125.9c.3-1,1.2-2,2.2-1.9l5.6.5c1,0,1.7,2,1,4.3s-2.6,3.6-3.4,3l-4.7-3.1A2.48,2.48,0,0,1,132.68,125.9Z" transform="translate(-32.08 -32)"/><path class="cls-4" d="M132.88,120.8c-.2-1.3.2-2.7,1.1-3l5.4-1.8c.9-.3,2.3,1,2.7,3.2s-.5,4-1.5,4l-5.6-.1C133.88,123.1,133.18,122.1,132.88,120.8Z" transform="translate(-32.08 -32)"/><path class="cls-4" d="M131,115.1c-.7-1.3-.7-2.8.2-3.4l4.8-3c.8-.5,2.4.4,3.3,2.2s.7,3.7-.2,4l-5.3,2C132.78,117.2,131.58,116.4,131,115.1Z" transform="translate(-32.08 -32)"/><path class="cls-4" d="M127.38,109.6c-1-1.3-1.2-2.8-.5-3.4l4.2-3.7c.7-.7,2.4-.1,3.6,1.5s1.4,3.3.5,3.9l-4.7,3.1C129.78,111.5,128.38,110.9,127.38,109.6Z" transform="translate(-32.08 -32)"/><path class="cls-4" d="M122.88,104.5c-1.2-1.2-1.6-2.7-.9-3.4l3.8-4.2c.7-.7,2.3-.3,3.7,1s1.8,3,1,3.7l-4.2,3.8C125.48,106.1,124.08,105.7,122.88,104.5Z" transform="translate(-32.08 -32)"/><path class="cls-4" d="M117.68,99.8c-1.3-1.1-1.9-2.5-1.3-3.3l3.4-4.5c.6-.8,2.3-.5,3.7.6s2,2.8,1.3,3.5l-3.7,4.2C120.48,101.2,119,100.9,117.68,99.8Z" transform="translate(-32.08 -32)"/><path class="cls-4" d="M82.58,65.9C62,64.3,69.48,55.8,69.48,55.8S75.78,46.4,82.58,65.9Z" transform="translate(-32.08 -32)"/><path class="cls-4" d="M87.58,65.6c-9.7-9.8-2.2-10.8-2.2-10.8S92.68,52.8,87.58,65.6Z" transform="translate(-32.08 -32)"/><path class="cls-4" d="M83.48,70.9c-12-6.8-11,.6-11,.6S72.48,79,83.48,70.9Z" transform="translate(-32.08 -32)"/><polygon class="cls-4" points="81.6 57.2 76.5 63.9 56.5 43.3 59.2 39.9 61.8 36.5 86.7 50.6 81.6 57.2"/><path class="cls-4" d="M125.88,86.1a6.22,6.22,0,0,0-11.3-2.9l-6.5,8.5a6.44,6.44,0,0,0,1,9h0a6.44,6.44,0,0,0,9-1.4l6.5-8.5A6.51,6.51,0,0,0,125.88,86.1Z" transform="translate(-32.08 -32)"/><path class="cls-4" d="M93.28,66.4c-1.2-.9-3-.5-4.2.9l-2.8,3.6a3.66,3.66,0,0,0-.8,2.6,2.59,2.59,0,0,0,.9,1.7h0c1.2.9,3,.5,4.2-1l2.8-3.6A3,3,0,0,0,93.28,66.4Z" transform="translate(-32.08 -32)"/><path class="cls-4" d="M71.38,56.7s3.4-5.3,8,4.9C79.38,61.6,75.08,55.5,71.38,56.7Z" transform="translate(-32.08 -32)"/><path class="cls-4" d="M85.48,55.8s4.6-1.5,2.3,6.8C87.78,62.6,88.28,56.9,85.48,55.8Z" transform="translate(-32.08 -32)"/><path class="cls-4" d="M73.68,71.1s-.5-4.8,7.1-.9C80.78,70.3,75.38,68.6,73.68,71.1Z" transform="translate(-32.08 -32)"/></g></g></g></svg>