<svg xmlns="http://www.w3.org/2000/svg" viewBox="0 0 136.5 136.4"><defs><style>.cls-1{opacity:0.5;}.cls-2{fill:#fbc326;}.cls-3,.cls-4{fill:#fafafa;}.cls-3{fill-rule:evenodd;}.cls-5{fill:#eee;isolation:isolate;opacity:0.1;}</style></defs><g id="Layer_2" data-name="Layer 2"><g id="Layer_2-2" data-name="Layer 2"><path class="cls-2" d="M163.44,168.4H37.14a5,5,0,0,1-5-5V37a5,5,0,0,1,5-5h126.4a5,5,0,0,1,5,5V163.4A5.17,5.17,0,0,1,163.44,168.4Z" transform="translate(-32.04 -32)"/><path class="cls-3" d="M121,73.7a6.2,6.2,0,1,0-6.2-6.2A6.23,6.23,0,0,0,121,73.7Z" transform="translate(-32.04 -32)"/><path class="cls-4" d="M120.24,135c0,2.3-1.5,4.1-3.4,4.1s-3.4-1.9-3.4-4.1V100c0-2.3,1.5-4.1,3.4-4.1s3.4,1.9,3.4,4.1Z" transform="translate(-32.04 -32)"/><path class="cls-4" d="M128.64,135c0,2.3-1.5,4.1-3.4,4.1s-3.4-1.9-3.4-4.1V100c0-2.3,1.5-4.1,3.4-4.1s3.4,1.9,3.4,4.1Z" transform="translate(-32.04 -32)"/><polygon class="cls-3" points="78.8 79.1 99.3 79.1 94.2 47 83.8 47 78.8 79.1"/><path class="cls-3" d="M113.44,75.6h15.2a4.78,4.78,0,0,1,4.7,4.8v4.4h-24.6V80.4A4.78,4.78,0,0,1,113.44,75.6Z" transform="translate(-32.04 -32)"/><path class="cls-4" d="M110.34,103.6a2.69,2.69,0,0,1-5.3-.9l3.7-22.4a2.69,2.69,0,1,1,5.3.9Z" transform="translate(-32.04 -32)"/><path class="cls-4" d="M131.74,103.6a2.69,2.69,0,1,0,5.3-.9l-3.7-22.4a2.69,2.69,0,0,0-5.3.9Z" transform="translate(-32.04 -32)"/><path class="cls-3" d="M78.24,73.7A6.2,6.2,0,1,0,72,67.5,6.1,6.1,0,0,0,78.24,73.7Z" transform="translate(-32.04 -32)"/><path class="cls-4" d="M68.84,103.1a2.7,2.7,0,0,1-5.4,0V80.4a2.7,2.7,0,0,1,5.4,0Z" transform="translate(-32.04 -32)"/><path class="cls-4" d="M92.34,103.1a2.7,2.7,0,0,1-5.4,0V80.4a2.7,2.7,0,0,1,5.4,0Z" transform="translate(-32.04 -32)"/><path class="cls-4" d="M77,135c0,2.3-1.5,4.1-3.4,4.1s-3.4-1.9-3.4-4.1V100c0-2.3,1.5-4.1,3.4-4.1S77,97.8,77,100Z" transform="translate(-32.04 -32)"/><path class="cls-4" d="M85.44,135c0,2.3-1.5,4.1-3.4,4.1s-3.4-1.9-3.4-4.1V100c0-2.3,1.5-4.1,3.4-4.1s3.4,1.9,3.4,4.1Z" transform="translate(-32.04 -32)"/><rect class="cls-4" x="38.3" y="50.8" width="15.1" height="22.5"/><path class="cls-3" d="M68.14,75.6h19.5a4.78,4.78,0,0,1,4.7,4.8v4.4H63.44V80.4A4.78,4.78,0,0,1,68.14,75.6Z" transform="translate(-32.04 -32)"/><rect class="cls-4" x="67.1" y="29.2" width="2.3" height="77.9"/><path class="cls-5" d="M163.44,32A131.45,131.45,0,0,0,32,163.4V37a5,5,0,0,1,5-5Z" transform="translate(-32.04 -32)"/></g></g></svg>