<svg xmlns="http://www.w3.org/2000/svg" viewBox="0 0 136.4 136.4"><defs><style>.cls-1{opacity:0.5;}.cls-2{fill:#fbc326;}.cls-3{fill:#eee;isolation:isolate;opacity:0.1;}.cls-4{fill:#fafafa;}</style></defs><g id="Layer_2" data-name="Layer 2"><g id="Layer_3" data-name="Layer 3"><path class="cls-2" d="M163.52,168.4H37.12a5,5,0,0,1-5-5V37a5,5,0,0,1,5-5h126.4a5,5,0,0,1,5,5V163.4A5,5,0,0,1,163.52,168.4Z" transform="translate(-32.12 -32)"/><path class="cls-3" d="M163.52,32A131.45,131.45,0,0,0,32.12,163.4V37a5,5,0,0,1,5-5Z" transform="translate(-32.12 -32)"/><path class="cls-4" d="M99.22,79.5h-1v-3h11.2v3h-1.1v3h10.6s5,2.5,4.5,16.2-4.1,17-4.1,17H51.72s-4.6-1.1-4.6-16.1,3.6-17,3.6-17h10V79.9h-1V76.5h7.2v3h-1.2v3h33.7" transform="translate(-32.12 -32)"/><path class="cls-2" d="M132.22,89.8c-.2,4.3-.1,8.5,0,12.8h12.2c-1.1-4.3-2.5-8.4-3.6-12.6A81.66,81.66,0,0,0,132.22,89.8Z" transform="translate(-32.12 -32)"/><path class="cls-2" d="M135.72,123.5a2.81,2.81,0,0,0-2.8,2.3v.5a3.12,3.12,0,0,0,.9,2.1,2.8,2.8,0,0,0,4.7-2.1v-.5A2.81,2.81,0,0,0,135.72,123.5Z" transform="translate(-32.12 -32)"/><path class="cls-2" d="M62.42,124.7a2.94,2.94,0,0,0-2.3-1.2,2.79,2.79,0,0,0-2.3,1.2,3.7,3.7,0,0,0-.5,1.1v.5a3.12,3.12,0,0,0,.9,2.1,2.8,2.8,0,0,0,4.7-2.1v-.5A3.7,3.7,0,0,0,62.42,124.7Z" transform="translate(-32.12 -32)"/><path class="cls-2" d="M147.62,115.6V120h7.5v-4.4Z" transform="translate(-32.12 -32)"/><path class="cls-4" d="M135.72,116.7a9.6,9.6,0,1,0,9.6,9.6A9.6,9.6,0,0,0,135.72,116.7Zm1.9,11.7a2.8,2.8,0,0,1-4.7-2.1v-.5a2.85,2.85,0,0,1,5.6,0v.5A2.32,2.32,0,0,1,137.62,128.4Z" transform="translate(-32.12 -32)"/><path class="cls-4" d="M60,116.7h0a9.58,9.58,0,0,0-9.5,8,8.6,8.6,0,0,0-.1,1.6,9.6,9.6,0,0,0,19.2,0c0-.6-.1-1.1-.1-1.6A9.77,9.77,0,0,0,60,116.7Zm2,11.7a2.8,2.8,0,0,1-4.7-2.1v-.5a2.22,2.22,0,0,1,.5-1.1,2.94,2.94,0,0,1,2.3-1.2,2.79,2.79,0,0,1,2.3,1.2,3.7,3.7,0,0,1,.5,1.1v.5A2.93,2.93,0,0,1,62,128.4Z" transform="translate(-32.12 -32)"/><path class="cls-4" d="M56.62,116.7h-8.1v8H50v-.1A10.12,10.12,0,0,1,56.62,116.7Z" transform="translate(-32.12 -32)"/><path class="cls-4" d="M155.52,119.7c0-4.4.1-8.7-.1-13.1-1.4-.6-2.8-1.3-4.2-1.9-1-.5-2-.9-2.9-1.4-.1-.1-.3-.1-.4-.2-2-1.1-1.9-3.7-2.7-5.6-.8-3.2-2.1-6.3-2.9-9.6a18.78,18.78,0,0,1-.6-6.3c-5.7-.1-11.4,0-17.1,0h-.1v7h0c0,9.3-.1,18.7,0,28H63.32a10,10,0,0,1,6.6,7.9v.1h54.7c1.4-4.5,4.9-8.7,9.9-9,5.5-.8,10.7,3.5,11.9,8.7h11v-4.6A6,6,0,0,1,155.52,119.7Zm-23.3-17.2c0-4.3-.1-8.5,0-12.8,2.8,0,5.7,0,8.6.1,1.1,4.2,2.5,8.4,3.6,12.6C140.32,102.6,136.32,102.5,132.22,102.5Zm22.9,17.5q-3.75.15-7.5,0v-4.4H155C155.12,117.1,155.12,118.6,155.12,120Z" transform="translate(-32.12 -32)"/></g></g></svg>