<svg xmlns="http://www.w3.org/2000/svg" viewBox="0 0 172.3 205.24"><defs><style>.cls-1{fill:#d68119;}.cls-1,.cls-10,.cls-2,.cls-3,.cls-4,.cls-5,.cls-6,.cls-7,.cls-8,.cls-9{fill-rule:evenodd;}.cls-2{fill:#e4ae7c;}.cls-3{fill:#d67f54;}.cls-4{fill:#575756;}.cls-5{fill:#383546;}.cls-6{fill:#784928;}.cls-7{fill:#20201e;}.cls-8{fill:#da9077;}.cls-9{fill:#3f2716;}.cls-10{fill:#fff;}.cls-11{isolation:isolate;font-size:12px;font-family:MyriadPro-Regular, Myriad Pro;}.cls-12{letter-spacing:0.01em;}.cls-13{letter-spacing:0em;}.cls-14{letter-spacing:0em;}.cls-15{letter-spacing:-0.01em;}</style></defs><g id="Layer_2" data-name="Layer 2"><g id="Icon"><path class="cls-1" d="M29.3,24.84H143a29.41,29.41,0,0,1,29.3,29.3v113.8a29.41,29.41,0,0,1-29.3,29.3H29.3A29.41,29.41,0,0,1,0,167.94V54.24A29.3,29.3,0,0,1,29.3,24.84Z"/><path class="cls-2" d="M86.2,204.54h-71c-.8-36.3,27.1-57.4,51.1-65.2,1.9-10.1,1.4-23.3,1.4-23.3h36.8s-.5,13.1,1.4,23.3c24,7.9,51.9,28.9,51.1,65.2Z"/><path class="cls-3" d="M104.9,129c-2.3,4.4-10.4,8.6-18.7,8.7-8.1.1-16.4-3.9-18.7-8.1.2-3.3.3-6.5.3-8.9h36.8C104.6,123,104.6,125.94,104.9,129Z"/><path class="cls-2" d="M47.1,86.94c-.2-1.9-7.9-4.1-10.5,2.1s2.1,15,10.9,15.7,6.2-.9,6.2-.9Z"/><path class="cls-4" d="M86.2,204.54H15.3c-.7-29.4,17.6-48.8,37.2-59.3.9-.5,1.8-.9,2.6-1.3a88.13,88.13,0,0,1,11.2-4.6l.3-1.5c8,3.5,23,7.5,39.3.5.1.4.1.7.2,1.1a92.29,92.29,0,0,1,11.1,4.5c.9.5,1.9,1,2.9,1.5,19.6,10.5,37.8,29.9,37.1,59.3h-71Z"/><path class="cls-2" d="M125.4,86.94c.2-1.9,7.9-4.1,10.5,2.1s-2.1,15-10.9,15.7-6.2-.9-6.2-.9Z"/><path class="cls-2" d="M86.2,128.74c-45.8,1.1-68.9-111.8,0-108.9C155,16.94,131.9,129.84,86.2,128.74Z"/><path class="cls-3" d="M133.1,93.94a.5.5,0,0,1-1,0,5,5,0,0,0-.7-3,1.38,1.38,0,0,0-.9-.5,2.73,2.73,0,0,0-1.4.4,8.5,8.5,0,0,0-3.4,4,9.05,9.05,0,0,0-.8,2.3,4.35,4.35,0,0,1,2.3-.7,2.1,2.1,0,0,1,1.1.4,2.18,2.18,0,0,1,.7.9,3.43,3.43,0,0,1-.7,2.7.5.5,0,0,1-.8-.6,2.76,2.76,0,0,0,.6-1.9,1.38,1.38,0,0,0-.3-.4,1.42,1.42,0,0,0-.6-.2,2.59,2.59,0,0,0-2.1.9c-.2.2-.3.3-.5.3-.4.1-.6-.1-.7-.5h0v-.6a10.59,10.59,0,0,1,1.1-3.1,10,10,0,0,1,3.8-4.5,2.75,2.75,0,0,1,1.9-.5,2.46,2.46,0,0,1,1.7.8A8.83,8.83,0,0,1,133.1,93.94Z"/><path class="cls-3" d="M40.2,93.94a.5.5,0,0,1-1,0,5.39,5.39,0,0,1,.9-3.6,2,2,0,0,1,1.7-.8,4.89,4.89,0,0,1,1.9.5,9.5,9.5,0,0,1,3.8,4.5,30.71,30.71,0,0,1,1.1,3.1v.6h0c-.1.4-.3.6-.7.5-.2,0-.3-.1-.5-.3a2.59,2.59,0,0,0-2.1-.9,1.42,1.42,0,0,0-.6.2,1.38,1.38,0,0,0-.3.4A2.5,2.5,0,0,0,45,100a.5.5,0,1,1-.8.6,3.43,3.43,0,0,1-.7-2.7,1.6,1.6,0,0,1,.7-.9,3.58,3.58,0,0,1,1.1-.4,3,3,0,0,1,2.3.7c-.2-.6-.5-1.5-.8-2.3a8.5,8.5,0,0,0-3.4-4,2.5,2.5,0,0,0-1.4-.4,1.05,1.05,0,0,0-.9.5C40.4,91.44,40.2,92.44,40.2,93.94Z"/><path class="cls-5" d="M34.4,184a.7.7,0,0,1,1.4,0l-.2,20.5a.7.7,0,0,1-1.4,0Z"/><path class="cls-5" d="M136.6,184a.7.7,0,0,1,1.4,0l-.2,20.5a.7.7,0,1,1-1.4,0Z"/><path class="cls-6" d="M45.4,86.24c.6-1.6.9-5,.8-9.4-.1-6.1,8.4-9.1,7.3-17.8-3-25.6,16.9-16.9,32.5-16.9V19.84h0C46.5,18.24,37.3,54.94,45.4,86.24Z"/><path class="cls-6" d="M127,85.64a45.29,45.29,0,0,1-1-8.8c-.2-6.1-8.4-9.1-7.3-17.8,3-25.6-16.9-16.9-32.5-16.9V19.84C125.6,18.24,134.9,54.54,127,85.64Z"/><path class="cls-7" d="M70.8,76.34a4,4,0,0,1,.9,5.7,4.12,4.12,0,0,1-5.7.9,4,4,0,0,1-.9-5.7A4.11,4.11,0,0,1,70.8,76.34Z"/><path class="cls-7" d="M101.8,76.34a4.08,4.08,0,1,0,5.7.9A4.12,4.12,0,0,0,101.8,76.34Z"/><path class="cls-8" d="M65.7,91.24c2.3,1.8,2.4,4.4.2,5.9a7.67,7.67,0,0,1-8.2-.6c-2.3-1.8-2.4-4.4-.2-5.9S63.4,89.44,65.7,91.24Z"/><path class="cls-8" d="M106.8,91.24c-2.3,1.8-2.4,4.4-.2,5.9a7.67,7.67,0,0,0,8.2-.6c2.3-1.8,2.4-4.4.2-5.9S109.2,89.44,106.8,91.24Z"/><path class="cls-9" d="M72.6,65.24c-.2-.1-.3-.1-.5-.2a13.11,13.11,0,0,0-5.2-.7,11.7,11.7,0,0,0-4.9,1.5c-.7.5-3.6,2.8-2.8,3.7.3.1,3.2-1.4,4.1-1.7a12,12,0,0,1,3.8-.5,10.39,10.39,0,0,1,3.5.7,1,1,0,0,0,.3.1c2.4,1.2,2.2,1.9,3.8.8C77.1,67.74,74.5,66.24,72.6,65.24Z"/><path class="cls-9" d="M99.7,65.24c.2-.1.3-.1.5-.2a13.11,13.11,0,0,1,5.2-.7,11.7,11.7,0,0,1,4.9,1.5c.7.5,3.6,2.8,2.8,3.7-.3.1-3.2-1.4-4.1-1.7a12,12,0,0,0-3.8-.5,10.39,10.39,0,0,0-3.5.7,1,1,0,0,1-.3.1c-2.4,1.2-2.2,1.9-3.8.8C95.2,67.74,97.8,66.24,99.7,65.24Z"/><path class="cls-3" d="M85.8,95.74a.5.5,0,0,1,0-1,22.34,22.34,0,0,0,3.7-.2c.9-.2,1.6-.4,1.6-.8,0-1.4-1.4-10.3-1.5-10.3a.51.51,0,1,1,1-.2s1.5,9,1.5,10.5c0,1-1,1.6-2.4,1.8A25.49,25.49,0,0,1,85.8,95.74Z"/><path class="cls-6" d="M43.8,78.64c.6-2.4,1.6-9.2,1.7-8.2,1.1,20.9,9.2,34.5,16.8,40.5,7.4,5.9-4.1-14.7,23.1-14.4H87c27.3-.3,15.7,20.3,23.1,14.4s15.7-19.7,16.8-40.5c.1-1.1,1.1,5.8,1.7,8.2-4.3,26-20.8,50.7-42.3,50.1C64.6,129.24,48.1,104.64,43.8,78.64Z"/><path class="cls-3" d="M84,113.74a.51.51,0,1,1,.5-.9,5,5,0,0,0,2.4.6,4.75,4.75,0,0,0,2.4-.6.51.51,0,1,1,.5.9,6.36,6.36,0,0,1-5.8,0Z"/><path class="cls-10" d="M101.7,100.44c-6.2,2.3-25.2,2.3-31.1.3C73.9,112.64,98.5,112.44,101.7,100.44Z"/><path class="cls-6" d="M47,42.74c3,.5,8.8.6,11.8-.5,6.5-3.4,13.7,1,27.4.9,6.3,0,22.9-1.4,28.6-8.1,2.9-3.4,1.4,2.5-4.2,6.3,3.3,1.2,10.8,2.6,14.8,1.7-5.9-14.1-18.3-23.9-39.3-23h0C65.3,19,52.9,28.74,47,42.74Z"/><text class="cls-11" transform="translate(66.89 10.04)"><tspan class="cls-12">G</tspan><tspan x="7.81" y="0">e</tspan><tspan class="cls-13" x="13.82" y="0">r</tspan><tspan class="cls-14" x="17.69" y="0">a</tspan><tspan class="cls-15" x="23.47" y="0">r</tspan><tspan x="27.28" y="0">do</tspan></text></g></g></svg>