<svg xmlns="http://www.w3.org/2000/svg" viewBox="0 0 172.4 203.58"><defs><style>.cls-1{fill:#9976ae;}.cls-1,.cls-10,.cls-11,.cls-12,.cls-13,.cls-2,.cls-3,.cls-4,.cls-5,.cls-6,.cls-7,.cls-8,.cls-9{fill-rule:evenodd;}.cls-2{fill:#623a1c;}.cls-3{fill:#e4ae7c;}.cls-4{fill:#d67f54;}.cls-5{fill:#39271f;}.cls-6{fill:#da9077;}.cls-7{fill:#3f2716;}.cls-8{fill:#fff;}.cls-9{fill:#462917;}.cls-10{fill:#2e1e11;}.cls-11{fill:#774d30;}.cls-12{fill:#ed6e26;}.cls-13{fill:#27170c;}</style></defs><g id="Layer_2" data-name="Layer 2"><g id="Icon"><path class="cls-1" d="M29.3,23.08H143.1a29.41,29.41,0,0,1,29.3,29.3v113.8a29.41,29.41,0,0,1-29.3,29.3H29.3A29.41,29.41,0,0,1,0,166.18V52.48A29.43,29.43,0,0,1,29.3,23.08Z"/><path class="cls-2" d="M87.1,144.28c6.5,20.8,19.1,32.5,41.4,38.1-5.7-8.3-3.7-20.7,5.9-26s20.2-10.5,20.1-21.2c0-16.6-12.7-14.7-5.4-25.5s7.8-29-5.4-37.8a1,1,0,0,1-.5-.4c-2.5-2.4-4.3-3-1.4-7.8C160.4,32.28,104,1.48,87.5,27c-3.6-5.1-10.1-10.4-21.4-9.1-7,.8-24.9,8.1-32.8,21.2-13.2,21.7,6.5,21.3-3.1,32.6a14.85,14.85,0,0,0-2.8,2.8l-.3.3c-12.5,9.8-9.4,24.2-2.1,35s-6.9,10.9-7.1,25c-.3,14.4,14.8,17.2,24.4,22.5s9.1,16.9,3.4,25.2C67.9,176.78,80.6,165.08,87.1,144.28Z"/><path class="cls-3" d="M86.2,202.78h71.4c0-67.2-53.3-30.9-53.3-86.9H67.7c0,56-53,19.7-53,86.9Z"/><path class="cls-3" d="M47.1,81.78c-.2-1.9-7.9-4.1-10.5,2.1s2.1,15,10.9,15.7,6.2-.9,6.2-.9Z"/><path class="cls-3" d="M125.4,81.78c.2-1.9,7.9-4.1,10.5,2.1s-2.1,15-10.9,15.7-6.2-.9-6.2-.9Z"/><path class="cls-4" d="M104.6,114.28s-.1,2.6,0,6.4c-7,17.6-28.8,19.6-36.8.7.1-4.2,0-7.1,0-7.1Z"/><path class="cls-3" d="M86.2,123.58c-45.8,1.1-68.9-111.8,0-108.9C155.1,11.88,132,124.68,86.2,123.58Z"/><path class="cls-5" d="M65.5,74.08a1.26,1.26,0,0,1-2.5.3,4.13,4.13,0,0,1,.2-1.9,5.31,5.31,0,0,1,.8-1.7,5.19,5.19,0,0,1,3.5-2.1,5.8,5.8,0,0,1,4,.9,5.65,5.65,0,0,1,1.7,2.1,4.68,4.68,0,0,1,.5,2.6,1.25,1.25,0,0,1-2.5-.1,3.19,3.19,0,0,0-.3-1.4,3.13,3.13,0,0,0-.9-1.1,2.67,2.67,0,0,0-2.1-.5,2.85,2.85,0,0,0-1.9,1.2,1.8,1.8,0,0,0-.4.9C65.5,73.38,65.5,73.68,65.5,74.08Z"/><path class="cls-6" d="M65.8,84c2.3,1.8,2.4,4.4.2,5.9a7.67,7.67,0,0,1-8.2-.6c-2.3-1.8-2.4-4.4-.2-5.9S63.4,82.28,65.8,84Z"/><path class="cls-6" d="M106.9,84c-2.3,1.8-2.4,4.4-.2,5.9a7.67,7.67,0,0,0,8.2-.6c2.3-1.8,2.4-4.4.2-5.9S109.2,82.28,106.9,84Z"/><path class="cls-7" d="M72.6,58c-.2-.1-.3-.1-.5-.2a13.11,13.11,0,0,0-5.2-.7,11.7,11.7,0,0,0-4.9,1.5c-.7.5-3.6,2.8-2.8,3.7.3.1,3.2-1.4,4.1-1.7a12,12,0,0,1,3.8-.5,10.39,10.39,0,0,1,3.5.7,1,1,0,0,0,.3.1c2.4,1.2,2.2,1.9,3.8.8C77.2,60.48,74.6,59,72.6,58Z"/><path class="cls-7" d="M99.8,58c.2-.1.3-.1.5-.2a13.11,13.11,0,0,1,5.2-.7,11.7,11.7,0,0,1,4.9,1.5c.7.5,3.6,2.8,2.8,3.7-.3.1-3.2-1.4-4.1-1.7a12,12,0,0,0-3.8-.5,10.39,10.39,0,0,0-3.5.7,1,1,0,0,1-.3.1c-2.4,1.2-2.2,1.9-3.8.8C95.2,60.48,97.8,59,99.8,58Z"/><path class="cls-8" d="M74.3,93.58c4.2-.1,8.4-.1,12.6-.1s8.4,0,12.6.1c0,6.6-6.5,9-12.6,9h0C80.8,102.58,74.3,100.18,74.3,93.58Z"/><path class="cls-4" d="M84,106.58a.51.51,0,0,1,.5-.9,5,5,0,0,0,2.4.6,4.75,4.75,0,0,0,2.4-.6.51.51,0,0,1,.5.9,5.66,5.66,0,0,1-2.9.7A7.27,7.27,0,0,1,84,106.58Z"/><path class="cls-4" d="M85.8,84.48a.5.5,0,0,1,0-1,22.34,22.34,0,0,0,3.7-.2c.9-.2,1.6-.4,1.6-.8,0-1.4-1.4-10.3-1.5-10.3a.51.51,0,1,1,1-.2s1.5,9,1.5,10.5c0,1-1,1.6-2.4,1.8A25.49,25.49,0,0,1,85.8,84.48Z"/><path class="cls-4" d="M133.2,88.78a.5.5,0,0,1-1,0,5,5,0,0,0-.7-3,1.38,1.38,0,0,0-.9-.5,2.73,2.73,0,0,0-1.4.4,8.5,8.5,0,0,0-3.4,4A9.05,9.05,0,0,0,125,92a4.35,4.35,0,0,1,2.3-.7,2.1,2.1,0,0,1,1.1.4,2.18,2.18,0,0,1,.7.9,3.43,3.43,0,0,1-.7,2.7.5.5,0,1,1-.8-.6,2.76,2.76,0,0,0,.6-1.9,1.38,1.38,0,0,0-.3-.4,1.42,1.42,0,0,0-.6-.2,2.59,2.59,0,0,0-2.1.9c-.2.2-.3.3-.5.3-.4.1-.6-.1-.7-.5h0v-.6a10.59,10.59,0,0,1,1.1-3.1,10,10,0,0,1,3.8-4.5,2.75,2.75,0,0,1,1.9-.5,2.46,2.46,0,0,1,1.7.8A10.67,10.67,0,0,1,133.2,88.78Z"/><path class="cls-4" d="M40.2,88.78a.5.5,0,0,1-1,0,5.39,5.39,0,0,1,.9-3.6,2,2,0,0,1,1.7-.8,4.89,4.89,0,0,1,1.9.5,9.5,9.5,0,0,1,3.8,4.5,30.71,30.71,0,0,1,1.1,3.1v.6h0c-.1.4-.3.6-.7.5-.2,0-.3-.1-.5-.3a2.59,2.59,0,0,0-2.1-.9,1.42,1.42,0,0,0-.6.2,1.38,1.38,0,0,0-.3.4,2.5,2.5,0,0,0,.6,1.9.5.5,0,0,1-.8.6,3.43,3.43,0,0,1-.7-2.7,1.6,1.6,0,0,1,.7-.9,3.58,3.58,0,0,1,1.1-.4,3.1,3.1,0,0,1,2.3.7c-.2-.6-.5-1.5-.8-2.3a8.5,8.5,0,0,0-3.4-4,2.5,2.5,0,0,0-1.4-.4,1.05,1.05,0,0,0-.9.5C40.5,86.28,40.2,87.28,40.2,88.78Z"/><path class="cls-2" d="M47.8,88.88c-4.6-9-4.5-19.1-5-22.9-4.3-37.9,19.4-55.9,42.7-55.2h.7v14.9c-4.3-1.4-7.9-2.3-9.9-2.3H74.9c-5.4,0-8,9-14.2,11.4-3.5,1.4-.2,17.8-3.8,26-.9,2-5.6,6.7-6.7,7.2C47,71.08,46.7,74.78,47.8,88.88Z"/><path class="cls-9" d="M124.6,88.88c4.6-9,4.5-19.1,5-22.9,4.3-37.9-19.4-55.9-42.7-55.2h-.7v14.9c4.3-1.4,7.9-2.3,9.9-2.3h1.4c5.4,0,8,11.5,14.2,13.9,3.5,1.4.2,15.3,3.8,23.5.9,2,5.6,6.7,6.7,7.2C125.4,71.08,125.7,74.78,124.6,88.88Z"/><polygon class="cls-10" points="86.2 202.78 140.7 202.78 137.6 184.08 34.7 184.08 31.7 202.78 86.2 202.78"/><path class="cls-10" d="M38.7,185.68a2.1,2.1,0,0,1-4.2-.2l4.2-30.6a2.1,2.1,0,1,1,4.2.2Z"/><path class="cls-10" d="M133.7,185.68a2.1,2.1,0,0,0,4.2-.2l-4.2-30.6a2.1,2.1,0,1,0-4.2.2Z"/><path class="cls-5" d="M101.4,74.08a1.26,1.26,0,1,1-2.5.3,4.13,4.13,0,0,1,.2-1.9,5.31,5.31,0,0,1,.8-1.7,5.19,5.19,0,0,1,3.5-2.1,5.8,5.8,0,0,1,4,.9,5.65,5.65,0,0,1,1.7,2.1,4.68,4.68,0,0,1,.5,2.6,1.25,1.25,0,0,1-2.5-.1,3.19,3.19,0,0,0-.3-1.4,3.13,3.13,0,0,0-.9-1.1,2.67,2.67,0,0,0-2.1-.5,2.85,2.85,0,0,0-1.9,1.2,1.8,1.8,0,0,0-.4.9A.91.91,0,0,0,101.4,74.08Z"/><path class="cls-2" d="M59,37c20.7-14.4,11.8,11.2,29.3,11.2,8.7,0,16.7,3.5,16.5,10.9s-.2,10.7,7.8,14.5c15.5,7.4-14.1,33,24.7,34.5-4.1-18.7,15.2-24.8,8.7-41s-19.1-11.5-16.3-21.6c2.2-7.9,3.1-16.5-2.6-22.6-8.2-8.8-16.4.2-21.6-8.3-4.4-7.1-7-17.7-25.7-13.7C55.9,5.88,54.9,24.88,59,37Z"/><path class="cls-11" d="M61.7,28.08a.5.5,0,1,1-.8-.6,11.18,11.18,0,0,1,4.9-3.1,15,15,0,0,1,5.2-.9A8.67,8.67,0,0,1,76,25a8.45,8.45,0,0,1,3.1,4.3c1.5,4.4,3,6.9,4.9,8.3s4.6,1.7,8.4,1.9c4,.2,8.8.8,12.6,3s6.8,5.8,7,12.1c.2,5.9.9,9.2,2.2,11.3,1.2,1.9,3.1,2.7,5.6,3.5.2.1.4.1.5.2a8.29,8.29,0,0,1,5.2,4.8c.9,2.3.9,5.2-.3,8.9a4.87,4.87,0,0,1-.4,1.1c-1.4,3.9-1.8,7.4-1.2,10.2a8.11,8.11,0,0,0,4.2,5.9.47.47,0,1,1-.3.9,8.51,8.51,0,0,1-4.8-6.6,19.94,19.94,0,0,1,1.3-10.7,10.37,10.37,0,0,1,.4-1c1.1-3.5,1.2-6.2.4-8.3a7.34,7.34,0,0,0-4.7-4.2c-.2-.1-.3-.1-.5-.2-2.7-.9-4.7-1.7-6.2-3.9s-2.1-5.6-2.3-11.8c-.2-5.8-2.9-9.2-6.5-11.3s-8.3-2.6-12.2-2.8-6.8-.6-8.9-2.1-3.7-4.1-5.3-8.7A7.93,7.93,0,0,0,75.5,26a8.84,8.84,0,0,0-4.5-1.4,15.58,15.58,0,0,0-4.8.8A9.12,9.12,0,0,0,61.7,28.08Z"/><path class="cls-11" d="M66.7,13.88a.66.66,0,0,1-.7-.2.66.66,0,0,1,.2-.7,12.67,12.67,0,0,1,3.3-1.2,19.06,19.06,0,0,1,8.9-.5,9.67,9.67,0,0,1,7.1,5,4.92,4.92,0,0,1,.6,1.7,13.52,13.52,0,0,0,5.7,8.1,15.83,15.83,0,0,0,10.3,1.8,19.48,19.48,0,0,1,2.5-.2,20.4,20.4,0,0,1,10.1,2.7c3.1,1.8,5.6,4.5,6.1,8.2a8.6,8.6,0,0,1,.1,1.6c0,1.6,0,3.2-.1,4.7-.2,5.9-.3,9.4,3.1,11.4.3.2.5.3.8.5h0c5.3,3,18.2,10.5,13.6,22.6-4.8,12.4-5.8,13.8-5.8,13.8a.5.5,0,1,1-.8-.6s1-1.3,5.7-13.5c4.3-11.3-8.1-18.5-13.2-21.4h0a5.58,5.58,0,0,1-.8-.5c-3.9-2.3-3.8-6-3.6-12.3,0-1.4.1-2.9.1-4.7a7.57,7.57,0,0,0-.1-1.5c-.5-3.4-2.7-5.8-5.6-7.5a19.66,19.66,0,0,0-9.6-2.5,16.41,16.41,0,0,0-2.3.2A16.38,16.38,0,0,1,91.4,27a14.25,14.25,0,0,1-6.2-8.7,6.71,6.71,0,0,0-.6-1.5,8.27,8.27,0,0,0-6.3-4.4,20.2,20.2,0,0,0-8.5.5A8.08,8.08,0,0,0,66.7,13.88Z"/><path class="cls-12" d="M159.4,202.78c.8-35.8-27.3-56.8-51.9-64.9-4.9,10.9-37.9,10.9-42.8-.1-24.6,8-52.9,29.1-52.1,65Z"/><path class="cls-13" d="M34.5,182.38a.7.7,0,0,1,1.4,0l-.2,20.5a.7.7,0,1,1-1.4,0Z"/><path class="cls-13" d="M136.7,182.38a.7.7,0,0,1,1.4,0l-.2,20.5a.7.7,0,1,1-1.4,0Z"/></g></g></svg>