<svg xmlns="http://www.w3.org/2000/svg" viewBox="0 0 172.4 224.33"><defs><style>.cls-1{fill:#e1a21f;}.cls-1,.cls-10,.cls-11,.cls-2,.cls-3,.cls-4,.cls-5,.cls-6,.cls-7,.cls-8,.cls-9{fill-rule:evenodd;}.cls-2{fill:#ddba8a;}.cls-3{fill:#e4ae7c;}.cls-4{fill:#d67f54;}.cls-5{fill:#1c7432;}.cls-6{fill:#20201e;}.cls-7{fill:#da9077;}.cls-8{fill:#3f2716;}.cls-9{fill:#fff;}.cls-10{fill:#27170c;}.cls-11{fill:#f1d3a4;}.cls-12{isolation:isolate;font-size:12px;font-family:MyriadPro-Regular, Myriad Pro;}.cls-13{letter-spacing:0em;}</style></defs><g id="Layer_2" data-name="Layer 2"><g id="Icon"><path class="cls-1" d="M29.3,44H143.1a29.41,29.41,0,0,1,29.3,29.3v113.8a29.41,29.41,0,0,1-29.3,29.3H29.3A29.41,29.41,0,0,1,0,187.13V73.33A29.28,29.28,0,0,1,29.3,44Z"/><path class="cls-2" d="M31.2,94.13c2.1,11,4.9,16.2,5.2,22.3.3,6.4-9.2,12.7-13.7,14.7,5.6,16.8,17.4,14.9,25,15.7s3.9,12.2,24.2,11.3l9.7-69.5-50.4,5.5ZM93,95.73l7.3,62.4c20.3.9,16.6-10.6,24.2-11.3s19.4,1.1,25-15.7c-4.6-2-14-8.3-13.7-14.7.3-6.1,2.8-10.8,5-20.6l-12-4.9Z"/><path class="cls-3" d="M47.1,102.73c-.2-1.9-7.9-4.1-10.5,2.1s2.1,15,10.9,15.7,6.2-.9,6.2-.9Z"/><path class="cls-3" d="M125.4,102.73c.2-1.9,7.9-4.1,10.5,2.1s-2.1,15-10.9,15.7-6.2-.9-6.2-.9Z"/><path class="cls-3" d="M86.2,223.63h-71c-.8-36.3,27.1-57.4,51.1-65.2,1.9-10.1,1.4-23.3,1.4-23.3h36.9s-.5,13.1,1.4,23.3c24,7.9,51.9,28.9,51.1,65.2Z"/><path class="cls-4" d="M104.6,135.23s-.1,2.6,0,6.4c-7,17.6-28.8,19.6-36.8.7.1-4.2,0-7.1,0-7.1Z"/><path class="cls-5" d="M159.6,223.63c.8-35.8-27.3-56.8-51.9-64.9-4.9,10.9-37.9,10.9-42.8-.1-24.6,8-52.9,29.1-52.1,65Z"/><path class="cls-3" d="M86.2,144.53c-45.8,1.1-68.9-111.8,0-108.9C155,32.73,131.9,145.63,86.2,144.53Z"/><path class="cls-6" d="M70.8,90a4,4,0,0,1,.9,5.7,4.12,4.12,0,0,1-5.7.9,4,4,0,0,1-.9-5.7A4.11,4.11,0,0,1,70.8,90Z"/><path class="cls-6" d="M101.8,90a4,4,0,0,0-.9,5.7,4.12,4.12,0,0,0,5.7.9,4,4,0,0,0,.9-5.7A4.12,4.12,0,0,0,101.8,90Z"/><path class="cls-7" d="M65.7,104.93c2.3,1.8,2.4,4.4.2,5.9a7.67,7.67,0,0,1-8.2-.6c-2.3-1.8-2.4-4.4-.2-5.9S63.4,103.13,65.7,104.93Z"/><path class="cls-7" d="M106.8,104.93c-2.3,1.8-2.4,4.4-.2,5.9a7.67,7.67,0,0,0,8.2-.6c2.3-1.8,2.4-4.4.2-5.9S109.2,103.13,106.8,104.93Z"/><path class="cls-8" d="M72.6,78.93c-.2-.1-.3-.1-.5-.2a13.11,13.11,0,0,0-5.2-.7,11.7,11.7,0,0,0-4.9,1.5c-.7.5-3.6,2.8-2.8,3.7.3.1,3.2-1.4,4.1-1.7a12,12,0,0,1,3.8-.5,10.39,10.39,0,0,1,3.5.7,1,1,0,0,0,.3.1c2.4,1.2,2.2,1.9,3.8.8C77.1,81.43,74.5,79.93,72.6,78.93Z"/><path class="cls-8" d="M99.7,78.93c.2-.1.3-.1.5-.2a13.11,13.11,0,0,1,5.2-.7,11.7,11.7,0,0,1,4.9,1.5c.7.5,3.6,2.8,2.8,3.7-.3.1-3.2-1.4-4.1-1.7a12,12,0,0,0-3.8-.5,10.39,10.39,0,0,0-3.5.7,1,1,0,0,1-.3.1c-2.4,1.2-2.2,1.9-3.8.8C95.2,81.43,97.8,79.93,99.7,78.93Z"/><path class="cls-9" d="M74.3,114.53c4.2-.1,8.4-.1,12.6-.1s8.4,0,12.6.1c0,6.6-6.5,9-12.6,9h0C80.8,123.53,74.3,121.13,74.3,114.53Z"/><path class="cls-4" d="M84,127.43a.51.51,0,0,1,.5-.9,5,5,0,0,0,2.4.6,4.75,4.75,0,0,0,2.4-.6.51.51,0,1,1,.5.9,5.66,5.66,0,0,1-2.9.7A4.83,4.83,0,0,1,84,127.43Z"/><path class="cls-4" d="M85.8,105.43a.5.5,0,0,1,0-1,22.34,22.34,0,0,0,3.7-.2c.9-.2,1.6-.4,1.6-.8,0-1.4-1.4-10.3-1.5-10.3a.51.51,0,1,1,1-.2s1.5,9,1.5,10.5c0,1-1,1.6-2.4,1.8A25.49,25.49,0,0,1,85.8,105.43Z"/><path class="cls-4" d="M133.1,109.63a.5.5,0,0,1-1,0,5,5,0,0,0-.7-3,1.38,1.38,0,0,0-.9-.5,2.73,2.73,0,0,0-1.4.4,8.5,8.5,0,0,0-3.4,4,9.05,9.05,0,0,0-.8,2.3,4.35,4.35,0,0,1,2.3-.7,2.1,2.1,0,0,1,1.1.4,2.18,2.18,0,0,1,.7.9,3.43,3.43,0,0,1-.7,2.7.5.5,0,0,1-.8-.6,2.76,2.76,0,0,0,.6-1.9,1.38,1.38,0,0,0-.3-.4,1.42,1.42,0,0,0-.6-.2,2.59,2.59,0,0,0-2.1.9c-.2.2-.3.3-.5.3-.4.1-.6-.1-.7-.5h0v-.6A10.59,10.59,0,0,1,125,110a10,10,0,0,1,3.8-4.5,2.75,2.75,0,0,1,1.9-.5,2.46,2.46,0,0,1,1.7.8A9.17,9.17,0,0,1,133.1,109.63Z"/><path class="cls-4" d="M40.2,109.63a.5.5,0,0,1-1,0,5.39,5.39,0,0,1,.9-3.6,2,2,0,0,1,1.7-.8,4.89,4.89,0,0,1,1.9.5,9.5,9.5,0,0,1,3.8,4.5,30.71,30.71,0,0,1,1.1,3.1v.6h0c-.1.4-.3.6-.7.5-.2,0-.3-.1-.5-.3a2.59,2.59,0,0,0-2.1-.9,1.42,1.42,0,0,0-.6.2,1.38,1.38,0,0,0-.3.4,2.5,2.5,0,0,0,.6,1.9.5.5,0,0,1-.8.6,3.43,3.43,0,0,1-.7-2.7,1.6,1.6,0,0,1,.7-.9,3.58,3.58,0,0,1,1.1-.4,3,3,0,0,1,2.3.7c-.2-.6-.5-1.5-.8-2.3a8.5,8.5,0,0,0-3.4-4,2.5,2.5,0,0,0-1.4-.4,1.05,1.05,0,0,0-.9.5C40.4,107.23,40.2,108.13,40.2,109.63Z"/><path class="cls-10" d="M34.4,203.13a.7.7,0,0,1,1.4,0l-.2,20.5a.7.7,0,1,1-1.4,0Z"/><path class="cls-10" d="M136.6,203.13a.7.7,0,0,1,1.4,0l-.2,20.5a.7.7,0,1,1-1.4,0Z"/><path class="cls-11" d="M42.6,92.33c.7,6.6,6.4,16.5,7.6,19.4s.1-9.3.1-24.9S42.6,92.33,42.6,92.33Z"/><path class="cls-11" d="M129.9,92.33c-.7,6.6-6.4,16.5-7.6,19.4s-.1-9.3-.1-24.9S129.9,92.33,129.9,92.33Z"/><path class="cls-11" d="M79.8,48.63c-5.5,0-10.7,10.3-11.2,18.9-1.7,30.6-31,20.1-34.3,39-1.2-3.5-4.2-15.5-4.5-17-2.4-11.2,12.4-24.1,15.2-36.1,2.8-12.2,9.8-21.7,18.5-26,7.6-3.7,16.1-3.6,20.2,1a29.58,29.58,0,0,1,2.5,2.2s1-1,2.2-2c4-5,12.8-5.2,20.7-1.2,8.5,4.4,15.5,14,18.3,26s17.6,24.9,15.2,36.1c-.3,1.5-3.3,13.4-4.5,17-3.3-19-29.6-9.5-32.8-40-1.1-10.6-5.9-15.7-10.6-16.6-.5-.1-4.4-1.3-8,4.3C85.7,55.73,85.1,48.63,79.8,48.63Z"/><path class="cls-2" d="M35.5,97.73a.5.5,0,0,1-.8-.6c.4-.5.7-1.1,1.1-1.7,2.8-4.3,5.2-8,15.2-10.6,9.4-2.5,11.1-14.4,12.7-24.8l.6-4.2a20,20,0,0,1,1.7-5.7,18.09,18.09,0,0,1,5.9-7.4,9.88,9.88,0,0,1,6.9-1.9,5.73,5.73,0,0,1,1.4.4l4.7,2.1a.54.54,0,1,1-.4,1l-4.7-2.1a5.64,5.64,0,0,0-1.2-.4,8.81,8.81,0,0,0-6.1,1.7,16.12,16.12,0,0,0-5.6,7A20.93,20.93,0,0,0,65.3,56q-.3,1.95-.6,4.2c-1.6,10.7-3.4,23-13.4,25.7-9.6,2.5-11.9,6-14.6,10.2C36.3,96.63,36,97.13,35.5,97.73Z"/><path class="cls-2" d="M34.8,84.33a.54.54,0,0,1-1-.4,12.79,12.79,0,0,1,4.3-5.5h0a20.29,20.29,0,0,1,6.3-2.7c9.4-2.5,11.1-14.4,12.7-24.8l.6-4.2a21.83,21.83,0,0,1,1.6-5.3,15,15,0,0,1,6.5-7.1,15.48,15.48,0,0,1,9.6-1.5,19.17,19.17,0,0,1,5.3,1.7.51.51,0,0,1-.5.9,20,20,0,0,0-5.1-1.6A13.66,13.66,0,0,0,60,41.93a19.43,19.43,0,0,0-1.5,5q-.3,1.95-.6,4.2c-1.6,10.7-3.4,23-13.4,25.7a18.75,18.75,0,0,0-5.9,2.5h0A12.16,12.16,0,0,0,34.8,84.33Z"/><path class="cls-2" d="M139.3,97.13a.5.5,0,1,1-.8.6,16.29,16.29,0,0,1-1.1-1.7c-2.7-4.2-5-7.7-14.6-10.2-10-2.6-11.8-14.9-13.4-25.7l-.6-4.2a23.45,23.45,0,0,0-1.6-5.5,16.12,16.12,0,0,0-5.6-7,8.81,8.81,0,0,0-6.1-1.7,5.64,5.64,0,0,0-1.2.4l-4.7,2.1a.54.54,0,0,1-.4-1l4.7-2.1a7.37,7.37,0,0,1,1.4-.4,10,10,0,0,1,6.9,1.9,17.33,17.33,0,0,1,5.9,7.4,29.38,29.38,0,0,1,1.7,5.7l.6,4.2c1.5,10.4,3.3,22.4,12.7,24.8,10,2.6,12.4,6.3,15.2,10.6A5.24,5.24,0,0,0,139.3,97.13Z"/><path class="cls-2" d="M140.1,83.93a.59.59,0,0,1-.3.7c-.3.1-.5,0-.7-.3a11.59,11.59,0,0,0-4-5.1h0a16.7,16.7,0,0,0-5.9-2.5c-10-2.6-11.8-14.9-13.4-25.7l-.6-4.2a19.43,19.43,0,0,0-1.5-5,13.66,13.66,0,0,0-15.1-8.1,22.85,22.85,0,0,0-5.1,1.6.51.51,0,1,1-.5-.9,23.23,23.23,0,0,1,5.3-1.7,14.82,14.82,0,0,1,9.6,1.5,15,15,0,0,1,6.5,7.1,20.56,20.56,0,0,1,1.6,5.3l.6,4.2c1.5,10.4,3.3,22.4,12.7,24.8a16.69,16.69,0,0,1,6.2,2.7h0A11.24,11.24,0,0,1,140.1,83.93Z"/><text class="cls-12" transform="translate(74.28 10.04)">N<tspan class="cls-13" x="7.9" y="0">a</tspan><tspan x="13.63" y="0">talia</tspan></text></g></g></svg>