<svg xmlns="http://www.w3.org/2000/svg" viewBox="0 0 172.4 217.56"><defs><style>.cls-1{fill:#d68119;}.cls-1,.cls-10,.cls-11,.cls-12,.cls-2,.cls-3,.cls-4,.cls-5,.cls-6,.cls-7,.cls-8,.cls-9{fill-rule:evenodd;}.cls-2{fill:#58556c;}.cls-3{fill:#e4ae7c;}.cls-4{fill:#d67f54;}.cls-5{fill:#20201e;}.cls-6{fill:#da9077;}.cls-7{fill:#3f2716;}.cls-8{fill:#784928;}.cls-9{fill:#fff;}.cls-10{fill:#67627e;}.cls-11{fill:#383546;}.cls-12{fill:#432d4c;}.cls-13{isolation:isolate;font-size:12px;font-family:MyriadPro-Regular, Myriad Pro;}</style></defs><g id="Layer_2" data-name="Layer 2"><g id="Icon"><path class="cls-1" d="M29.3,37.26H143.1a29.41,29.41,0,0,1,29.3,29.3v113.8a29.41,29.41,0,0,1-29.3,29.3H29.3A29.41,29.41,0,0,1,0,180.36V66.66A29.43,29.43,0,0,1,29.3,37.26Z"/><path class="cls-2" d="M86.2,217h-71c-.8-36.3,27.1-57.4,51.1-65.2,1.9-10.1,1.4-23.3,1.4-23.3h36.8s-.5,13.1,1.4,23.3c24,7.9,51.9,28.9,51.1,65.2Z"/><path class="cls-3" d="M47.1,99.36c-.2-1.9-7.9-4.1-10.5,2.1s2.1,15,10.9,15.7,6.2-.9,6.2-.9Z"/><path class="cls-3" d="M125.4,99.36c.2-1.9,7.9-4.1,10.5,2.1s-2.1,15-10.9,15.7-6.2-.9-6.2-.9Z"/><path class="cls-4" d="M104.9,141.46c-8,15.3-28.6,16.9-37.4.6.2-3.3.3-6.5.3-8.9h36.8C104.6,135.46,104.7,138.36,104.9,141.46Z"/><path class="cls-3" d="M86.2,141.16c-45.8,1.1-68.9-111.8,0-108.9C155.1,29.36,132,142.26,86.2,141.16Z"/><path class="cls-5" d="M70.8,88.76a4.08,4.08,0,1,1-5.7.9A4.12,4.12,0,0,1,70.8,88.76Z"/><path class="cls-5" d="M101.8,88.76a4,4,0,0,0-.9,5.7,4.08,4.08,0,1,0,.9-5.7Z"/><path class="cls-6" d="M65.8,103.66c2.3,1.8,2.4,4.4.2,5.9a7.67,7.67,0,0,1-8.2-.6c-2.3-1.8-2.4-4.4-.2-5.9S63.4,101.86,65.8,103.66Z"/><path class="cls-6" d="M106.9,103.66c-2.3,1.8-2.4,4.4-.2,5.9a7.67,7.67,0,0,0,8.2-.6c2.3-1.8,2.4-4.4.2-5.9S109.2,101.86,106.9,103.66Z"/><path class="cls-7" d="M72.6,77.66c-.2-.1-.3-.1-.5-.2a13.11,13.11,0,0,0-5.2-.7,11.7,11.7,0,0,0-4.9,1.5c-.7.5-3.6,2.8-2.8,3.7.3.1,3.2-1.4,4.1-1.7a12,12,0,0,1,3.8-.5,10.39,10.39,0,0,1,3.5.7,1,1,0,0,0,.3.1c2.4,1.2,2.2,1.9,3.8.8C77.2,80.06,74.6,78.66,72.6,77.66Z"/><path class="cls-7" d="M99.8,77.66c.2-.1.3-.1.5-.2a13.11,13.11,0,0,1,5.2-.7,11.7,11.7,0,0,1,4.9,1.5c.7.5,3.6,2.8,2.8,3.7-.3.1-3.2-1.4-4.1-1.7a12,12,0,0,0-3.8-.5,10.39,10.39,0,0,0-3.5.7,1,1,0,0,1-.3.1c-2.4,1.2-2.2,1.9-3.8.8C95.2,80.06,97.8,78.66,99.8,77.66Z"/><path class="cls-4" d="M84,126.16a.51.51,0,0,1,.5-.9,5,5,0,0,0,2.4.6,4.75,4.75,0,0,0,2.4-.6.51.51,0,0,1,.5.9,5.66,5.66,0,0,1-2.9.7A5.92,5.92,0,0,1,84,126.16Z"/><path class="cls-4" d="M85.8,108.16a.5.5,0,1,1,0-1,22.34,22.34,0,0,0,3.7-.2c.9-.2,1.6-.4,1.6-.8,0-1.4-1.4-10.3-1.5-10.3a.51.51,0,1,1,1-.2s1.5,9,1.5,10.5c0,1-1,1.6-2.4,1.8A25.49,25.49,0,0,1,85.8,108.16Z"/><path class="cls-4" d="M133.2,106.26a.5.5,0,0,1-1,0,5,5,0,0,0-.7-3,1.38,1.38,0,0,0-.9-.5,2.73,2.73,0,0,0-1.4.4,8.5,8.5,0,0,0-3.4,4,9.05,9.05,0,0,0-.8,2.3,4.35,4.35,0,0,1,2.3-.7,2.1,2.1,0,0,1,1.1.4,2.18,2.18,0,0,1,.7.9,3.43,3.43,0,0,1-.7,2.7.5.5,0,0,1-.8-.6,2.76,2.76,0,0,0,.6-1.9,1.38,1.38,0,0,0-.3-.4,1.42,1.42,0,0,0-.6-.2,2.59,2.59,0,0,0-2.1.9c-.2.2-.3.3-.5.3-.4.1-.6-.1-.7-.5h0v-.6a10.59,10.59,0,0,1,1.1-3.1,10,10,0,0,1,3.8-4.5,2.75,2.75,0,0,1,1.9-.5,2.46,2.46,0,0,1,1.7.8A11.17,11.17,0,0,1,133.2,106.26Z"/><path class="cls-4" d="M40.2,106.26a.5.5,0,0,1-1,0,5.39,5.39,0,0,1,.9-3.6,2,2,0,0,1,1.7-.8,4.89,4.89,0,0,1,1.9.5,9.5,9.5,0,0,1,3.8,4.5,30.71,30.71,0,0,1,1.1,3.1v.6h0c-.1.4-.3.6-.7.5-.2,0-.3-.1-.5-.3a2.59,2.59,0,0,0-2.1-.9,1.42,1.42,0,0,0-.6.2,1.38,1.38,0,0,0-.3.4,2.5,2.5,0,0,0,.6,1.9.5.5,0,0,1-.8.6,3.43,3.43,0,0,1-.7-2.7,1.6,1.6,0,0,1,.7-.9,3.58,3.58,0,0,1,1.1-.4,3.1,3.1,0,0,1,2.3.7c-.2-.6-.5-1.5-.8-2.3a8.5,8.5,0,0,0-3.4-4A2.5,2.5,0,0,0,42,103a1.05,1.05,0,0,0-.9.5C40.5,103.86,40.2,104.76,40.2,106.26Z"/><path class="cls-8" d="M136.8,41.66c1.9.4,1.7,1.9-3.9,5.9,5.1,6.5,5.9,16.8,4.2,26.4-.4,2.1-6.2,16.7-11.6,26.2-.5.9-.2-19-5.9-26.9-2.9-4-5.3-8.8-11.2-12.8-.1,1.1,3.5,4.2,2.1,4.8-5,2.4-19.2-.1-25.7-1.7,1.9,1.9,3.8,3.3,3.1,4.1-2.3,2.2-16.5-1.2-25.3-7.1-2.1,7-5.1,14.5-8.5,16.5-9.1,5.3-5.1,27.8-7.5,24.5-10.9-15.2-8.2-34.8-8.2-34.8a43.21,43.21,0,0,0-3.1,4.8c-1.5,3.1-2.5-25.6,11.1-29.4,0,0-2.2-.7-7.7.3-2,.4,4-5.2,10.5-6,.2-2.8,1.5-14.2,9.8-17.9,3.9-1.7,10.2-2.9,9.4-2.4a11.81,11.81,0,0,0-5.1,5.7c30.4-14.4,44.3.9,56.2,10.5C123.1,35.36,130.7,41.16,136.8,41.66Z"/><path class="cls-9" d="M101.7,112.86c-6.2,2.3-25.2,2.3-31.1.3C73.9,125.06,98.6,124.86,101.7,112.86Z"/><path class="cls-10" d="M67.1,139.36c-.5-.2-1.8-.2-1.8.7s.9,4.4.3,6.9c-.7,2.7-1.9,4.9-.5,5.4a61.21,61.21,0,0,0,19.9,3.9,56.6,56.6,0,0,0,22.4-3.9c1.4-.5.2-2.7-.5-5.4-.7-2.5.3-5.9.3-6.9s-1.3-.9-1.8-.7A48.12,48.12,0,0,1,67.1,139.36Z"/><path class="cls-11" d="M34.4,196.36a.7.7,0,1,1,1.4,0l-.2,20.5a.7.7,0,1,1-1.4,0Z"/><path class="cls-11" d="M136.7,196.36a.7.7,0,0,1,1.4,0l-.2,20.5a.7.7,0,1,1-1.4,0Z"/><path class="cls-2" d="M68.6,141.76a.5.5,0,0,1,1,0v2a31.71,31.71,0,0,1-.2,4.2,11.58,11.58,0,0,1-1.5,4.6.51.51,0,0,1-.9-.5,10.47,10.47,0,0,0,1.4-4.1c.1-1.6.1-2.9.2-4.1Z"/><path class="cls-2" d="M72.7,143.16a.5.5,0,0,1,1,0v2a31.71,31.71,0,0,1-.2,4.2A11.58,11.58,0,0,1,72,154a.51.51,0,0,1-.9-.5,10.47,10.47,0,0,0,1.4-4.1c.1-1.6.1-2.9.2-4.1Z"/><path class="cls-2" d="M77,144a.5.5,0,0,1,1,0v2a31.71,31.71,0,0,1-.2,4.2,11.58,11.58,0,0,1-1.5,4.6.51.51,0,1,1-.9-.5,10.47,10.47,0,0,0,1.4-4.1c.1-1.6.1-2.9.2-4.1A14.64,14.64,0,0,1,77,144Z"/><path class="cls-2" d="M81.4,144.76a.5.5,0,0,1,1,0v2a31.71,31.71,0,0,1-.2,4.2,11.58,11.58,0,0,1-1.5,4.6.51.51,0,0,1-.9-.5,10.47,10.47,0,0,0,1.4-4.1c.1-1.6.1-2.9.2-4.1A14.64,14.64,0,0,1,81.4,144.76Z"/><path class="cls-2" d="M102.2,141.76a.5.5,0,0,1,1,0v2a29.55,29.55,0,0,0,.2,4.1,10.47,10.47,0,0,0,1.4,4.1.51.51,0,1,1-.9.5,11.58,11.58,0,0,1-1.5-4.6c-.1-1.6-.1-2.9-.2-4.2A6,6,0,0,0,102.2,141.76Z"/><path class="cls-2" d="M98.2,143.16a.5.5,0,0,1,1,0v2a29.55,29.55,0,0,0,.2,4.1,10.47,10.47,0,0,0,1.4,4.1.51.51,0,1,1-.9.5,11.58,11.58,0,0,1-1.5-4.6c-.1-1.6-.1-2.9-.2-4.2Z"/><path class="cls-2" d="M93.9,144a.5.5,0,0,1,1,0v2a29.55,29.55,0,0,0,.2,4.1,10.47,10.47,0,0,0,1.4,4.1.51.51,0,0,1-.9.5,11.58,11.58,0,0,1-1.5-4.6c-.1-1.6-.1-2.9-.2-4.2Z"/><path class="cls-2" d="M89.5,144.76a.5.5,0,0,1,1,0v2a29.55,29.55,0,0,0,.2,4.1,10.47,10.47,0,0,0,1.4,4.1.51.51,0,0,1-.9.5,11.58,11.58,0,0,1-1.5-4.6c-.1-1.6-.1-2.9-.2-4.2Z"/><path class="cls-2" d="M85.5,144.76a.5.5,0,0,1,1,0v10.5a.5.5,0,0,1-1,0Z"/><path class="cls-12" d="M59.1,37.86a.51.51,0,1,1,.9-.5c2.7,5.1,8.4,9.5,14.9,13a80.83,80.83,0,0,0,24.9,8.5.51.51,0,1,1-.2,1,80.15,80.15,0,0,1-25.2-8.6C67.7,47.66,61.9,43.06,59.1,37.86Z"/><path class="cls-12" d="M64.6,33.46a.5.5,0,0,1,0-1,71.72,71.72,0,0,1,22.2,3.6,79.7,79.7,0,0,1,21,10.7,51.39,51.39,0,0,1,15,15.5,47.35,47.35,0,0,1,6.4,21.8.5.5,0,0,1-1,0c-.6-8.5-2.7-15.5-6.3-21.4a51.7,51.7,0,0,0-14.7-15.2,77.54,77.54,0,0,0-20.7-10.6A76.12,76.12,0,0,0,64.6,33.46Z"/><path class="cls-12" d="M68.3,29a.51.51,0,0,1-.5-.9c20.4-9.4,33.6,0,45,8a88.62,88.62,0,0,0,8.2,5.4.51.51,0,1,1-.5.9c-2.7-1.5-5.4-3.5-8.3-5.5C101.1,29.06,88.1,19.86,68.3,29Z"/><path class="cls-12" d="M55,46.16a.5.5,0,0,1,1,0,30.48,30.48,0,0,1-1.9,10.2,35.39,35.39,0,0,1-5,9.7A20.05,20.05,0,0,0,45.2,77a.5.5,0,0,1-1,0,21.47,21.47,0,0,1,4.1-11.5,36.11,36.11,0,0,0,4.9-9.4A31.56,31.56,0,0,0,55,46.16Z"/><path class="cls-8" d="M44.6,91.06c.6-2.4,1.6-9.2,1.7-8.2,1.1,20.9,9.2,34.5,16.8,40.5,7.4,5.9-4.1-14.7,23.1-14.4h1.6c27.3-.3,15.7,20.3,23.1,14.4s15.7-19.7,16.8-40.5c.1-1.1,1.1,5.8,1.7,8.2-4.3,26-20.8,50.7-42.3,50.1C65.4,141.66,48.9,117.06,44.6,91.06Z"/><path class="cls-4" d="M84.8,126.16a.51.51,0,0,1,.5-.9,5,5,0,0,0,2.4.6,4.75,4.75,0,0,0,2.4-.6.51.51,0,0,1,.5.9,6.36,6.36,0,0,1-5.8,0Z"/><path class="cls-9" d="M102.5,112.86c-6.2,2.3-25.2,2.3-31.1.3C74.7,125.06,99.3,124.86,102.5,112.86Z"/><text class="cls-13" transform="translate(68.4 10.04)">Omar</text></g></g></svg>